<?xml version="1.0" encoding="utf-8" standalone="no"?>
<!DOCTYPE svg PUBLIC "-//W3C//DTD SVG 1.1//EN"
  "http://www.w3.org/Graphics/SVG/1.1/DTD/svg11.dtd">
<!-- Created with matplotlib (https://matplotlib.org/) -->
<svg height="127.559055pt" version="1.1" viewBox="0 0 136.062992 127.559055" width="136.062992pt" xmlns="http://www.w3.org/2000/svg" xmlns:xlink="http://www.w3.org/1999/xlink">
 <defs>
  <style type="text/css">
*{stroke-linecap:butt;stroke-linejoin:round;}
  </style>
 </defs>
 <g id="figure_1">
  <g id="patch_1">
   <path d="M 0 127.559055 
L 136.062992 127.559055 
L 136.062992 0 
L 0 0 
z
" style="fill:none;"/>
  </g>
  <g id="axes_1">
   <g id="patch_2">
    <path d="M 45.354331 70.866142 
L 124.724409 70.866142 
L 124.724409 14.173228 
L 45.354331 14.173228 
z
" style="fill:none;"/>
   </g>
   <g id="PolyCollection_1">
    <defs>
     <path d="M 49.66946 -97.338537 
L 49.66946 -78.22955 
L 57.52944 -91.018671 
L 65.38942 -95.118945 
L 73.2494 -85.502466 
L 81.10938 -82.330049 
L 88.96936 -88.11171 
L 96.82934 -82.085277 
L 104.68932 -74.614304 
L 112.5493 -85.958102 
L 120.40928 -106.690406 
L 120.40928 -74.072883 
L 120.40928 -74.072883 
L 112.5493 -110.303592 
L 104.68932 -95.42392 
L 96.82934 -88.037629 
L 88.96936 -83.895734 
L 81.10938 -82.3992 
L 73.2494 -79.575514 
L 65.38942 -96.481196 
L 57.52944 -70.21208 
L 49.66946 -97.338537 
z
" id="m3bafdb91c5"/>
    </defs>
    <g clip-path="url(#p544c72b2e9)">
     <use style="fill:#440154;fill-opacity:0.3;" x="0" xlink:href="#m3bafdb91c5" y="127.559055"/>
    </g>
   </g>
   <g id="PolyCollection_2">
    <defs>
     <path d="M 49.66946 -75.644012 
L 49.66946 -99.261929 
L 57.52944 -89.806131 
L 65.38942 -74.263434 
L 73.2494 -89.352024 
L 81.10938 -89.255384 
L 88.96936 -79.762823 
L 96.82934 -91.822185 
L 104.68932 -90.613861 
L 112.5493 -74.566461 
L 120.40928 -84.091996 
L 120.40928 -73.855296 
L 120.40928 -73.855296 
L 112.5493 -86.472235 
L 104.68932 -67.744503 
L 96.82934 -101.827735 
L 88.96936 -82.223691 
L 81.10938 -91.019102 
L 73.2494 -72.442388 
L 65.38942 -61.901656 
L 57.52944 -102.008742 
L 49.66946 -75.644012 
z
" id="m68ae110eea"/>
    </defs>
    <g clip-path="url(#p544c72b2e9)">
     <use style="fill:#31688e;fill-opacity:0.3;" x="0" xlink:href="#m68ae110eea" y="127.559055"/>
    </g>
   </g>
   <g id="PolyCollection_3">
    <defs>
     <path d="M 49.66946 -71.308999 
L 49.66946 -76.869904 
L 57.52944 -95.193053 
L 65.38942 -79.269464 
L 73.2494 -96.410763 
L 81.10938 -82.029422 
L 88.96936 -76.111167 
L 96.82934 -59.775148 
L 104.68932 -83.764383 
L 112.5493 -88.045134 
L 120.40928 -93.048744 
L 120.40928 -75.362257 
L 120.40928 -75.362257 
L 112.5493 -77.754699 
L 104.68932 -106.222536 
L 96.82934 -78.76959 
L 88.96936 -84.561829 
L 81.10938 -75.540768 
L 73.2494 -81.491835 
L 65.38942 -80.995018 
L 57.52944 -100.571608 
L 49.66946 -71.308999 
z
" id="m300272ba19"/>
    </defs>
    <g clip-path="url(#p544c72b2e9)">
     <use style="fill:#35b779;fill-opacity:0.3;" x="0" xlink:href="#m300272ba19" y="127.559055"/>
    </g>
   </g>
   <g id="PolyCollection_4">
    <defs>
     <path d="M 49.66946 -97.67607 
L 49.66946 -83.081653 
L 57.52944 -88.644165 
L 65.38942 -92.629266 
L 73.2494 -94.013309 
L 81.10938 -105.623961 
L 88.96936 -98.737951 
L 96.82934 -88.314875 
L 104.68932 -96.209705 
L 112.5493 -98.023553 
L 120.40928 -79.337872 
L 120.40928 -69.385563 
L 120.40928 -69.385563 
L 112.5493 -73.286389 
L 104.68932 -75.959903 
L 96.82934 -97.43042 
L 88.96936 -86.480607 
L 81.10938 -82.323312 
L 73.2494 -91.867167 
L 65.38942 -93.177015 
L 57.52944 -89.959476 
L 49.66946 -97.67607 
z
" id="mb319706e3d"/>
    </defs>
    <g clip-path="url(#p544c72b2e9)">
     <use style="fill:#fde725;fill-opacity:0.3;" x="0" xlink:href="#mb319706e3d" y="127.559055"/>
    </g>
   </g>
   <g id="matplotlib.axis_1">
    <g id="xtick_1">
     <g id="line2d_1">
      <defs>
       <path d="M 0 0 
L 0 4 
" id="me12564a7c6" style="stroke:#000000;stroke-width:0.8;"/>
      </defs>
      <g>
       <use style="stroke:#000000;stroke-width:0.8;" x="49.66946" xlink:href="#me12564a7c6" y="73.866142"/>
      </g>
     </g>
     <g id="text_1">
      <!-- 0 -->
      <defs>
       <path d="M 31.78125 66.40625 
Q 24.171875 66.40625 20.328125 58.90625 
Q 16.5 51.421875 16.5 36.375 
Q 16.5 21.390625 20.328125 13.890625 
Q 24.171875 6.390625 31.78125 6.390625 
Q 39.453125 6.390625 43.28125 13.890625 
Q 47.125 21.390625 47.125 36.375 
Q 47.125 51.421875 43.28125 58.90625 
Q 39.453125 66.40625 31.78125 66.40625 
z
M 31.78125 74.21875 
Q 44.046875 74.21875 50.515625 64.515625 
Q 56.984375 54.828125 56.984375 36.375 
Q 56.984375 17.96875 50.515625 8.265625 
Q 44.046875 -1.421875 31.78125 -1.421875 
Q 19.53125 -1.421875 13.0625 8.265625 
Q 6.59375 17.96875 6.59375 36.375 
Q 6.59375 54.828125 13.0625 64.515625 
Q 19.53125 74.21875 31.78125 74.21875 
z
" id="DejaVuSans-48"/>
      </defs>
      <g transform="translate(46.806335 88.204735)scale(0.09 -0.09)">
       <use xlink:href="#DejaVuSans-48"/>
      </g>
     </g>
    </g>
    <g id="xtick_2">
     <g id="line2d_2">
      <g>
       <use style="stroke:#000000;stroke-width:0.8;" x="81.10938" xlink:href="#me12564a7c6" y="73.866142"/>
      </g>
     </g>
     <g id="text_2">
      <!-- 4 -->
      <defs>
       <path d="M 37.796875 64.3125 
L 12.890625 25.390625 
L 37.796875 25.390625 
z
M 35.203125 72.90625 
L 47.609375 72.90625 
L 47.609375 25.390625 
L 58.015625 25.390625 
L 58.015625 17.1875 
L 47.609375 17.1875 
L 47.609375 0 
L 37.796875 0 
L 37.796875 17.1875 
L 4.890625 17.1875 
L 4.890625 26.703125 
z
" id="DejaVuSans-52"/>
      </defs>
      <g transform="translate(78.246255 88.204735)scale(0.09 -0.09)">
       <use xlink:href="#DejaVuSans-52"/>
      </g>
     </g>
    </g>
    <g id="xtick_3">
     <g id="line2d_3">
      <g>
       <use style="stroke:#000000;stroke-width:0.8;" x="112.5493" xlink:href="#me12564a7c6" y="73.866142"/>
      </g>
     </g>
     <g id="text_3">
      <!-- 8 -->
      <defs>
       <path d="M 31.78125 34.625 
Q 24.75 34.625 20.71875 30.859375 
Q 16.703125 27.09375 16.703125 20.515625 
Q 16.703125 13.921875 20.71875 10.15625 
Q 24.75 6.390625 31.78125 6.390625 
Q 38.8125 6.390625 42.859375 10.171875 
Q 46.921875 13.96875 46.921875 20.515625 
Q 46.921875 27.09375 42.890625 30.859375 
Q 38.875 34.625 31.78125 34.625 
z
M 21.921875 38.8125 
Q 15.578125 40.375 12.03125 44.71875 
Q 8.5 49.078125 8.5 55.328125 
Q 8.5 64.0625 14.71875 69.140625 
Q 20.953125 74.21875 31.78125 74.21875 
Q 42.671875 74.21875 48.875 69.140625 
Q 55.078125 64.0625 55.078125 55.328125 
Q 55.078125 49.078125 51.53125 44.71875 
Q 48 40.375 41.703125 38.8125 
Q 48.828125 37.15625 52.796875 32.3125 
Q 56.78125 27.484375 56.78125 20.515625 
Q 56.78125 9.90625 50.3125 4.234375 
Q 43.84375 -1.421875 31.78125 -1.421875 
Q 19.734375 -1.421875 13.25 4.234375 
Q 6.78125 9.90625 6.78125 20.515625 
Q 6.78125 27.484375 10.78125 32.3125 
Q 14.796875 37.15625 21.921875 38.8125 
z
M 18.3125 54.390625 
Q 18.3125 48.734375 21.84375 45.5625 
Q 25.390625 42.390625 31.78125 42.390625 
Q 38.140625 42.390625 41.71875 45.5625 
Q 45.3125 48.734375 45.3125 54.390625 
Q 45.3125 60.0625 41.71875 63.234375 
Q 38.140625 66.40625 31.78125 66.40625 
Q 25.390625 66.40625 21.84375 63.234375 
Q 18.3125 60.0625 18.3125 54.390625 
z
" id="DejaVuSans-56"/>
      </defs>
      <g transform="translate(109.686175 88.204735)scale(0.09 -0.09)">
       <use xlink:href="#DejaVuSans-56"/>
      </g>
     </g>
    </g>
    <g id="text_4">
     <!-- xlabel (xunit) -->
     <defs>
      <path d="M 54.890625 54.6875 
L 35.109375 28.078125 
L 55.90625 0 
L 45.3125 0 
L 29.390625 21.484375 
L 13.484375 0 
L 2.875 0 
L 24.125 28.609375 
L 4.6875 54.6875 
L 15.28125 54.6875 
L 29.78125 35.203125 
L 44.28125 54.6875 
z
" id="DejaVuSans-120"/>
      <path d="M 9.421875 75.984375 
L 18.40625 75.984375 
L 18.40625 0 
L 9.421875 0 
z
" id="DejaVuSans-108"/>
      <path d="M 34.28125 27.484375 
Q 23.390625 27.484375 19.1875 25 
Q 14.984375 22.515625 14.984375 16.5 
Q 14.984375 11.71875 18.140625 8.90625 
Q 21.296875 6.109375 26.703125 6.109375 
Q 34.1875 6.109375 38.703125 11.40625 
Q 43.21875 16.703125 43.21875 25.484375 
L 43.21875 27.484375 
z
M 52.203125 31.203125 
L 52.203125 0 
L 43.21875 0 
L 43.21875 8.296875 
Q 40.140625 3.328125 35.546875 0.953125 
Q 30.953125 -1.421875 24.3125 -1.421875 
Q 15.921875 -1.421875 10.953125 3.296875 
Q 6 8.015625 6 15.921875 
Q 6 25.140625 12.171875 29.828125 
Q 18.359375 34.515625 30.609375 34.515625 
L 43.21875 34.515625 
L 43.21875 35.40625 
Q 43.21875 41.609375 39.140625 45 
Q 35.0625 48.390625 27.6875 48.390625 
Q 23 48.390625 18.546875 47.265625 
Q 14.109375 46.140625 10.015625 43.890625 
L 10.015625 52.203125 
Q 14.9375 54.109375 19.578125 55.046875 
Q 24.21875 56 28.609375 56 
Q 40.484375 56 46.34375 49.84375 
Q 52.203125 43.703125 52.203125 31.203125 
z
" id="DejaVuSans-97"/>
      <path d="M 48.6875 27.296875 
Q 48.6875 37.203125 44.609375 42.84375 
Q 40.53125 48.484375 33.40625 48.484375 
Q 26.265625 48.484375 22.1875 42.84375 
Q 18.109375 37.203125 18.109375 27.296875 
Q 18.109375 17.390625 22.1875 11.75 
Q 26.265625 6.109375 33.40625 6.109375 
Q 40.53125 6.109375 44.609375 11.75 
Q 48.6875 17.390625 48.6875 27.296875 
z
M 18.109375 46.390625 
Q 20.953125 51.265625 25.265625 53.625 
Q 29.59375 56 35.59375 56 
Q 45.5625 56 51.78125 48.09375 
Q 58.015625 40.1875 58.015625 27.296875 
Q 58.015625 14.40625 51.78125 6.484375 
Q 45.5625 -1.421875 35.59375 -1.421875 
Q 29.59375 -1.421875 25.265625 0.953125 
Q 20.953125 3.328125 18.109375 8.203125 
L 18.109375 0 
L 9.078125 0 
L 9.078125 75.984375 
L 18.109375 75.984375 
z
" id="DejaVuSans-98"/>
      <path d="M 56.203125 29.59375 
L 56.203125 25.203125 
L 14.890625 25.203125 
Q 15.484375 15.921875 20.484375 11.0625 
Q 25.484375 6.203125 34.421875 6.203125 
Q 39.59375 6.203125 44.453125 7.46875 
Q 49.3125 8.734375 54.109375 11.28125 
L 54.109375 2.78125 
Q 49.265625 0.734375 44.1875 -0.34375 
Q 39.109375 -1.421875 33.890625 -1.421875 
Q 20.796875 -1.421875 13.15625 6.1875 
Q 5.515625 13.8125 5.515625 26.8125 
Q 5.515625 40.234375 12.765625 48.109375 
Q 20.015625 56 32.328125 56 
Q 43.359375 56 49.78125 48.890625 
Q 56.203125 41.796875 56.203125 29.59375 
z
M 47.21875 32.234375 
Q 47.125 39.59375 43.09375 43.984375 
Q 39.0625 48.390625 32.421875 48.390625 
Q 24.90625 48.390625 20.390625 44.140625 
Q 15.875 39.890625 15.1875 32.171875 
z
" id="DejaVuSans-101"/>
      <path id="DejaVuSans-32"/>
      <path d="M 31 75.875 
Q 24.46875 64.65625 21.28125 53.65625 
Q 18.109375 42.671875 18.109375 31.390625 
Q 18.109375 20.125 21.3125 9.0625 
Q 24.515625 -2 31 -13.1875 
L 23.1875 -13.1875 
Q 15.875 -1.703125 12.234375 9.375 
Q 8.59375 20.453125 8.59375 31.390625 
Q 8.59375 42.28125 12.203125 53.3125 
Q 15.828125 64.359375 23.1875 75.875 
z
" id="DejaVuSans-40"/>
      <path d="M 8.5 21.578125 
L 8.5 54.6875 
L 17.484375 54.6875 
L 17.484375 21.921875 
Q 17.484375 14.15625 20.5 10.265625 
Q 23.53125 6.390625 29.59375 6.390625 
Q 36.859375 6.390625 41.078125 11.03125 
Q 45.3125 15.671875 45.3125 23.6875 
L 45.3125 54.6875 
L 54.296875 54.6875 
L 54.296875 0 
L 45.3125 0 
L 45.3125 8.40625 
Q 42.046875 3.421875 37.71875 1 
Q 33.40625 -1.421875 27.6875 -1.421875 
Q 18.265625 -1.421875 13.375 4.4375 
Q 8.5 10.296875 8.5 21.578125 
z
M 31.109375 56 
z
" id="DejaVuSans-117"/>
      <path d="M 54.890625 33.015625 
L 54.890625 0 
L 45.90625 0 
L 45.90625 32.71875 
Q 45.90625 40.484375 42.875 44.328125 
Q 39.84375 48.1875 33.796875 48.1875 
Q 26.515625 48.1875 22.3125 43.546875 
Q 18.109375 38.921875 18.109375 30.90625 
L 18.109375 0 
L 9.078125 0 
L 9.078125 54.6875 
L 18.109375 54.6875 
L 18.109375 46.1875 
Q 21.34375 51.125 25.703125 53.5625 
Q 30.078125 56 35.796875 56 
Q 45.21875 56 50.046875 50.171875 
Q 54.890625 44.34375 54.890625 33.015625 
z
" id="DejaVuSans-110"/>
      <path d="M 9.421875 54.6875 
L 18.40625 54.6875 
L 18.40625 0 
L 9.421875 0 
z
M 9.421875 75.984375 
L 18.40625 75.984375 
L 18.40625 64.59375 
L 9.421875 64.59375 
z
" id="DejaVuSans-105"/>
      <path d="M 18.3125 70.21875 
L 18.3125 54.6875 
L 36.8125 54.6875 
L 36.8125 47.703125 
L 18.3125 47.703125 
L 18.3125 18.015625 
Q 18.3125 11.328125 20.140625 9.421875 
Q 21.96875 7.515625 27.59375 7.515625 
L 36.8125 7.515625 
L 36.8125 0 
L 27.59375 0 
Q 17.1875 0 13.234375 3.875 
Q 9.28125 7.765625 9.28125 18.015625 
L 9.28125 47.703125 
L 2.6875 47.703125 
L 2.6875 54.6875 
L 9.28125 54.6875 
L 9.28125 70.21875 
z
" id="DejaVuSans-116"/>
      <path d="M 8.015625 75.875 
L 15.828125 75.875 
Q 23.140625 64.359375 26.78125 53.3125 
Q 30.421875 42.28125 30.421875 31.390625 
Q 30.421875 20.453125 26.78125 9.375 
Q 23.140625 -1.703125 15.828125 -13.1875 
L 8.015625 -13.1875 
Q 14.5 -2 17.703125 9.0625 
Q 20.90625 20.125 20.90625 31.390625 
Q 20.90625 42.671875 17.703125 53.65625 
Q 14.5 64.65625 8.015625 75.875 
z
" id="DejaVuSans-41"/>
     </defs>
     <g transform="translate(55.169214 98.415048)scale(0.09 -0.09)">
      <use xlink:href="#DejaVuSans-120"/>
      <use x="59.179688" xlink:href="#DejaVuSans-108"/>
      <use x="86.962891" xlink:href="#DejaVuSans-97"/>
      <use x="148.242188" xlink:href="#DejaVuSans-98"/>
      <use x="211.71875" xlink:href="#DejaVuSans-101"/>
      <use x="273.242188" xlink:href="#DejaVuSans-108"/>
      <use x="301.025391" xlink:href="#DejaVuSans-32"/>
      <use x="332.8125" xlink:href="#DejaVuSans-40"/>
      <use x="371.826172" xlink:href="#DejaVuSans-120"/>
      <use x="431.005859" xlink:href="#DejaVuSans-117"/>
      <use x="494.384766" xlink:href="#DejaVuSans-110"/>
      <use x="557.763672" xlink:href="#DejaVuSans-105"/>
      <use x="585.546875" xlink:href="#DejaVuSans-116"/>
      <use x="624.755859" xlink:href="#DejaVuSans-41"/>
     </g>
    </g>
   </g>
   <g id="matplotlib.axis_2">
    <g id="ytick_1">
     <g id="line2d_4">
      <defs>
       <path d="M 0 0 
L -4 0 
" id="mbdb535550a" style="stroke:#000000;stroke-width:0.8;"/>
      </defs>
      <g>
       <use style="stroke:#000000;stroke-width:0.8;" x="42.354331" xlink:href="#mbdb535550a" y="63.621681"/>
      </g>
     </g>
     <g id="text_5">
      <!-- −2.5 -->
      <defs>
       <path d="M 10.59375 35.5 
L 73.1875 35.5 
L 73.1875 27.203125 
L 10.59375 27.203125 
z
" id="DejaVuSans-8722"/>
       <path d="M 19.1875 8.296875 
L 53.609375 8.296875 
L 53.609375 0 
L 7.328125 0 
L 7.328125 8.296875 
Q 12.9375 14.109375 22.625 23.890625 
Q 32.328125 33.6875 34.8125 36.53125 
Q 39.546875 41.84375 41.421875 45.53125 
Q 43.3125 49.21875 43.3125 52.78125 
Q 43.3125 58.59375 39.234375 62.25 
Q 35.15625 65.921875 28.609375 65.921875 
Q 23.96875 65.921875 18.8125 64.3125 
Q 13.671875 62.703125 7.8125 59.421875 
L 7.8125 69.390625 
Q 13.765625 71.78125 18.9375 73 
Q 24.125 74.21875 28.421875 74.21875 
Q 39.75 74.21875 46.484375 68.546875 
Q 53.21875 62.890625 53.21875 53.421875 
Q 53.21875 48.921875 51.53125 44.890625 
Q 49.859375 40.875 45.40625 35.40625 
Q 44.1875 33.984375 37.640625 27.21875 
Q 31.109375 20.453125 19.1875 8.296875 
z
" id="DejaVuSans-50"/>
       <path d="M 10.6875 12.40625 
L 21 12.40625 
L 21 0 
L 10.6875 0 
z
" id="DejaVuSans-46"/>
       <path d="M 10.796875 72.90625 
L 49.515625 72.90625 
L 49.515625 64.59375 
L 19.828125 64.59375 
L 19.828125 46.734375 
Q 21.96875 47.46875 24.109375 47.828125 
Q 26.265625 48.1875 28.421875 48.1875 
Q 40.625 48.1875 47.75 41.5 
Q 54.890625 34.8125 54.890625 23.390625 
Q 54.890625 11.625 47.5625 5.09375 
Q 40.234375 -1.421875 26.90625 -1.421875 
Q 22.3125 -1.421875 17.546875 -0.640625 
Q 12.796875 0.140625 7.71875 1.703125 
L 7.71875 11.625 
Q 12.109375 9.234375 16.796875 8.0625 
Q 21.484375 6.890625 26.703125 6.890625 
Q 35.15625 6.890625 40.078125 11.328125 
Q 45.015625 15.765625 45.015625 23.390625 
Q 45.015625 31 40.078125 35.4375 
Q 35.15625 39.890625 26.703125 39.890625 
Q 22.75 39.890625 18.8125 39.015625 
Q 14.890625 38.140625 10.796875 36.28125 
z
" id="DejaVuSans-53"/>
      </defs>
      <g transform="translate(12.999799 67.040977)scale(0.09 -0.09)">
       <use xlink:href="#DejaVuSans-8722"/>
       <use x="83.789062" xlink:href="#DejaVuSans-50"/>
       <use x="147.412109" xlink:href="#DejaVuSans-46"/>
       <use x="179.199219" xlink:href="#DejaVuSans-53"/>
      </g>
     </g>
    </g>
    <g id="ytick_2">
     <g id="line2d_5">
      <g>
       <use style="stroke:#000000;stroke-width:0.8;" x="42.354331" xlink:href="#mbdb535550a" y="43.774861"/>
      </g>
     </g>
     <g id="text_6">
      <!-- 0.0 -->
      <g transform="translate(20.541518 47.194158)scale(0.09 -0.09)">
       <use xlink:href="#DejaVuSans-48"/>
       <use x="63.623047" xlink:href="#DejaVuSans-46"/>
       <use x="95.410156" xlink:href="#DejaVuSans-48"/>
      </g>
     </g>
    </g>
    <g id="ytick_3">
     <g id="line2d_6">
      <g>
       <use style="stroke:#000000;stroke-width:0.8;" x="42.354331" xlink:href="#mbdb535550a" y="23.928041"/>
      </g>
     </g>
     <g id="text_7">
      <!-- 2.5 -->
      <g transform="translate(20.541518 27.347338)scale(0.09 -0.09)">
       <use xlink:href="#DejaVuSans-50"/>
       <use x="63.623047" xlink:href="#DejaVuSans-46"/>
       <use x="95.410156" xlink:href="#DejaVuSans-53"/>
      </g>
     </g>
    </g>
    <g id="text_8">
     <!-- ylabel (yunit) -->
     <defs>
      <path d="M 32.171875 -5.078125 
Q 28.375 -14.84375 24.75 -17.8125 
Q 21.140625 -20.796875 15.09375 -20.796875 
L 7.90625 -20.796875 
L 7.90625 -13.28125 
L 13.1875 -13.28125 
Q 16.890625 -13.28125 18.9375 -11.515625 
Q 21 -9.765625 23.484375 -3.21875 
L 25.09375 0.875 
L 2.984375 54.6875 
L 12.5 54.6875 
L 29.59375 11.921875 
L 46.6875 54.6875 
L 56.203125 54.6875 
z
" id="DejaVuSans-121"/>
     </defs>
     <g transform="translate(9.628081 72.389841)rotate(-90)scale(0.09 -0.09)">
      <use xlink:href="#DejaVuSans-121"/>
      <use x="59.179688" xlink:href="#DejaVuSans-108"/>
      <use x="86.962891" xlink:href="#DejaVuSans-97"/>
      <use x="148.242188" xlink:href="#DejaVuSans-98"/>
      <use x="211.71875" xlink:href="#DejaVuSans-101"/>
      <use x="273.242188" xlink:href="#DejaVuSans-108"/>
      <use x="301.025391" xlink:href="#DejaVuSans-32"/>
      <use x="332.8125" xlink:href="#DejaVuSans-40"/>
      <use x="371.826172" xlink:href="#DejaVuSans-121"/>
      <use x="431.005859" xlink:href="#DejaVuSans-117"/>
      <use x="494.384766" xlink:href="#DejaVuSans-110"/>
      <use x="557.763672" xlink:href="#DejaVuSans-105"/>
      <use x="585.546875" xlink:href="#DejaVuSans-116"/>
      <use x="624.755859" xlink:href="#DejaVuSans-41"/>
     </g>
    </g>
   </g>
   <g id="line2d_7">
    <path clip-path="url(#p544c72b2e9)" d="M 49.66946 39.775012 
L 57.52944 46.94368 
L 65.38942 31.758984 
L 73.2494 45.020065 
L 81.10938 45.194431 
L 88.96936 41.555333 
L 96.82934 42.497602 
L 104.68932 42.539943 
L 112.5493 29.428208 
L 120.40928 37.177411 
" style="fill:none;stroke:#440154;stroke-linecap:square;"/>
   </g>
   <g id="line2d_8">
    <path clip-path="url(#p544c72b2e9)" d="M 49.66946 40.106085 
L 57.52944 31.651618 
L 65.38942 59.47651 
L 73.2494 46.661849 
L 81.10938 37.421812 
L 88.96936 46.565798 
L 96.82934 30.734095 
L 104.68932 48.379873 
L 112.5493 47.039707 
L 120.40928 48.585409 
" style="fill:none;stroke:#31688e;stroke-linecap:square;"/>
   </g>
   <g id="line2d_9">
    <path clip-path="url(#p544c72b2e9)" d="M 49.66946 53.469604 
L 57.52944 29.676725 
L 65.38942 47.426814 
L 73.2494 38.607756 
L 81.10938 48.77396 
L 88.96936 47.222557 
L 96.82934 58.286686 
L 104.68932 32.565596 
L 112.5493 44.659138 
L 120.40928 43.353555 
" style="fill:none;stroke:#35b779;stroke-linecap:square;"/>
   </g>
   <g id="line2d_10">
    <path clip-path="url(#p544c72b2e9)" d="M 49.66946 37.180194 
L 57.52944 38.257235 
L 65.38942 34.655915 
L 73.2494 34.618817 
L 81.10938 33.585419 
L 88.96936 34.949776 
L 96.82934 34.686408 
L 104.68932 41.474251 
L 112.5493 41.904084 
L 120.40928 53.197337 
" style="fill:none;stroke:#fde725;stroke-linecap:square;"/>
   </g>
   <g id="line2d_11">
    <defs>
     <path d="M 0 0.00025 
C 0.000066 0.00025 0.00013 0.000224 0.000177 0.000177 
C 0.000224 0.00013 0.00025 0.000066 0.00025 0 
C 0.00025 -0.000066 0.000224 -0.00013 0.000177 -0.000177 
C 0.00013 -0.000224 0.000066 -0.00025 0 -0.00025 
C -0.000066 -0.00025 -0.00013 -0.000224 -0.000177 -0.000177 
C -0.000224 -0.00013 -0.00025 -0.000066 -0.00025 0 
C -0.00025 0.000066 -0.000224 0.00013 -0.000177 0.000177 
C -0.00013 0.000224 -0.000066 0.00025 0 0.00025 
z
" id="m9d36ecaa1e" style="stroke:#ffffff;stroke-opacity:0.001;"/>
    </defs>
    <g clip-path="url(#p544c72b2e9)">
     <use style="fill:#ffffff;fill-opacity:0.001;stroke:#ffffff;stroke-opacity:0.001;" x="85.03937" xlink:href="#m9d36ecaa1e" y="70.866142"/>
     <use style="fill:#ffffff;fill-opacity:0.001;stroke:#ffffff;stroke-opacity:0.001;" x="85.03937" xlink:href="#m9d36ecaa1e" y="14.173228"/>
    </g>
   </g>
   <g id="line2d_12">
    <g clip-path="url(#p544c72b2e9)">
     <use style="fill:#ffffff;fill-opacity:0.001;stroke:#ffffff;stroke-opacity:0.001;" x="45.354331" xlink:href="#m9d36ecaa1e" y="42.519685"/>
     <use style="fill:#ffffff;fill-opacity:0.001;stroke:#ffffff;stroke-opacity:0.001;" x="124.724409" xlink:href="#m9d36ecaa1e" y="42.519685"/>
    </g>
   </g>
   <g id="patch_3">
    <path d="M 42.354331 70.866142 
L 42.354331 14.173228 
" style="fill:none;stroke:#000000;stroke-linecap:square;stroke-linejoin:miter;stroke-width:0.8;"/>
   </g>
   <g id="patch_4">
    <path d="M 124.724409 70.866142 
L 124.724409 14.173228 
" style="fill:none;"/>
   </g>
   <g id="patch_5">
    <path d="M 45.354331 73.866142 
L 124.724409 73.866142 
" style="fill:none;stroke:#000000;stroke-linecap:square;stroke-linejoin:miter;stroke-width:0.8;"/>
   </g>
   <g id="patch_6">
    <path d="M 45.354331 14.173228 
L 124.724409 14.173228 
" style="fill:none;"/>
   </g>
   <g id="text_9">
    <!-- datavyz demo plot -->
    <defs>
     <path d="M 45.40625 46.390625 
L 45.40625 75.984375 
L 54.390625 75.984375 
L 54.390625 0 
L 45.40625 0 
L 45.40625 8.203125 
Q 42.578125 3.328125 38.25 0.953125 
Q 33.9375 -1.421875 27.875 -1.421875 
Q 17.96875 -1.421875 11.734375 6.484375 
Q 5.515625 14.40625 5.515625 27.296875 
Q 5.515625 40.1875 11.734375 48.09375 
Q 17.96875 56 27.875 56 
Q 33.9375 56 38.25 53.625 
Q 42.578125 51.265625 45.40625 46.390625 
z
M 14.796875 27.296875 
Q 14.796875 17.390625 18.875 11.75 
Q 22.953125 6.109375 30.078125 6.109375 
Q 37.203125 6.109375 41.296875 11.75 
Q 45.40625 17.390625 45.40625 27.296875 
Q 45.40625 37.203125 41.296875 42.84375 
Q 37.203125 48.484375 30.078125 48.484375 
Q 22.953125 48.484375 18.875 42.84375 
Q 14.796875 37.203125 14.796875 27.296875 
z
" id="DejaVuSans-100"/>
     <path d="M 2.984375 54.6875 
L 12.5 54.6875 
L 29.59375 8.796875 
L 46.6875 54.6875 
L 56.203125 54.6875 
L 35.6875 0 
L 23.484375 0 
z
" id="DejaVuSans-118"/>
     <path d="M 5.515625 54.6875 
L 48.1875 54.6875 
L 48.1875 46.484375 
L 14.40625 7.171875 
L 48.1875 7.171875 
L 48.1875 0 
L 4.296875 0 
L 4.296875 8.203125 
L 38.09375 47.515625 
L 5.515625 47.515625 
z
" id="DejaVuSans-122"/>
     <path d="M 52 44.1875 
Q 55.375 50.25 60.0625 53.125 
Q 64.75 56 71.09375 56 
Q 79.640625 56 84.28125 50.015625 
Q 88.921875 44.046875 88.921875 33.015625 
L 88.921875 0 
L 79.890625 0 
L 79.890625 32.71875 
Q 79.890625 40.578125 77.09375 44.375 
Q 74.3125 48.1875 68.609375 48.1875 
Q 61.625 48.1875 57.5625 43.546875 
Q 53.515625 38.921875 53.515625 30.90625 
L 53.515625 0 
L 44.484375 0 
L 44.484375 32.71875 
Q 44.484375 40.625 41.703125 44.40625 
Q 38.921875 48.1875 33.109375 48.1875 
Q 26.21875 48.1875 22.15625 43.53125 
Q 18.109375 38.875 18.109375 30.90625 
L 18.109375 0 
L 9.078125 0 
L 9.078125 54.6875 
L 18.109375 54.6875 
L 18.109375 46.1875 
Q 21.1875 51.21875 25.484375 53.609375 
Q 29.78125 56 35.6875 56 
Q 41.65625 56 45.828125 52.96875 
Q 50 49.953125 52 44.1875 
z
" id="DejaVuSans-109"/>
     <path d="M 30.609375 48.390625 
Q 23.390625 48.390625 19.1875 42.75 
Q 14.984375 37.109375 14.984375 27.296875 
Q 14.984375 17.484375 19.15625 11.84375 
Q 23.34375 6.203125 30.609375 6.203125 
Q 37.796875 6.203125 41.984375 11.859375 
Q 46.1875 17.53125 46.1875 27.296875 
Q 46.1875 37.015625 41.984375 42.703125 
Q 37.796875 48.390625 30.609375 48.390625 
z
M 30.609375 56 
Q 42.328125 56 49.015625 48.375 
Q 55.71875 40.765625 55.71875 27.296875 
Q 55.71875 13.875 49.015625 6.21875 
Q 42.328125 -1.421875 30.609375 -1.421875 
Q 18.84375 -1.421875 12.171875 6.21875 
Q 5.515625 13.875 5.515625 27.296875 
Q 5.515625 40.765625 12.171875 48.375 
Q 18.84375 56 30.609375 56 
z
" id="DejaVuSans-111"/>
     <path d="M 18.109375 8.203125 
L 18.109375 -20.796875 
L 9.078125 -20.796875 
L 9.078125 54.6875 
L 18.109375 54.6875 
L 18.109375 46.390625 
Q 20.953125 51.265625 25.265625 53.625 
Q 29.59375 56 35.59375 56 
Q 45.5625 56 51.78125 48.09375 
Q 58.015625 40.1875 58.015625 27.296875 
Q 58.015625 14.40625 51.78125 6.484375 
Q 45.5625 -1.421875 35.59375 -1.421875 
Q 29.59375 -1.421875 25.265625 0.953125 
Q 20.953125 3.328125 18.109375 8.203125 
z
M 48.6875 27.296875 
Q 48.6875 37.203125 44.609375 42.84375 
Q 40.53125 48.484375 33.40625 48.484375 
Q 26.265625 48.484375 22.1875 42.84375 
Q 18.109375 37.203125 18.109375 27.296875 
Q 18.109375 17.390625 22.1875 11.75 
Q 26.265625 6.109375 33.40625 6.109375 
Q 40.53125 6.109375 44.609375 11.75 
Q 48.6875 17.390625 48.6875 27.296875 
z
" id="DejaVuSans-112"/>
    </defs>
    <g transform="translate(42.967183 8.173228)scale(0.09 -0.09)">
     <use xlink:href="#DejaVuSans-100"/>
     <use x="63.476562" xlink:href="#DejaVuSans-97"/>
     <use x="124.755859" xlink:href="#DejaVuSans-116"/>
     <use x="163.964844" xlink:href="#DejaVuSans-97"/>
     <use x="225.244141" xlink:href="#DejaVuSans-118"/>
     <use x="284.423828" xlink:href="#DejaVuSans-121"/>
     <use x="343.603516" xlink:href="#DejaVuSans-122"/>
     <use x="396.09375" xlink:href="#DejaVuSans-32"/>
     <use x="427.880859" xlink:href="#DejaVuSans-100"/>
     <use x="491.357422" xlink:href="#DejaVuSans-101"/>
     <use x="552.880859" xlink:href="#DejaVuSans-109"/>
     <use x="650.292969" xlink:href="#DejaVuSans-111"/>
     <use x="711.474609" xlink:href="#DejaVuSans-32"/>
     <use x="743.261719" xlink:href="#DejaVuSans-112"/>
     <use x="806.738281" xlink:href="#DejaVuSans-108"/>
     <use x="834.521484" xlink:href="#DejaVuSans-111"/>
     <use x="895.703125" xlink:href="#DejaVuSans-116"/>
    </g>
   </g>
  </g>
 </g>
 <defs>
  <clipPath id="p544c72b2e9">
   <rect height="56.692913" width="79.370079" x="45.354331" y="14.173228"/>
  </clipPath>
 </defs>
</svg>
