<?xml version="1.0" encoding="utf-8" standalone="no"?>
<!DOCTYPE svg PUBLIC "-//W3C//DTD SVG 1.1//EN"
  "http://www.w3.org/Graphics/SVG/1.1/DTD/svg11.dtd">
<!-- Created with matplotlib (https://matplotlib.org/) -->
<svg height="130.393701pt" version="1.1" viewBox="0 0 147.401575 130.393701" width="147.401575pt" xmlns="http://www.w3.org/2000/svg" xmlns:xlink="http://www.w3.org/1999/xlink">
 <defs>
  <style type="text/css">
*{stroke-linecap:butt;stroke-linejoin:round;}
  </style>
 </defs>
 <g id="figure_1">
  <g id="patch_1">
   <path d="M 0 130.393701 
L 147.401575 130.393701 
L 147.401575 0 
L 0 0 
z
" style="fill:none;"/>
  </g>
  <g id="axes_1">
   <g id="patch_2">
    <path d="M 56.692913 76.535433 
L 136.062992 76.535433 
L 136.062992 19.84252 
L 56.692913 19.84252 
z
" style="fill:none;"/>
   </g>
   <g id="matplotlib.axis_1">
    <g id="xtick_1">
     <g id="line2d_1">
      <defs>
       <path d="M 0 0 
L 0 4 
" id="m56e395bd76" style="stroke:#000000;stroke-width:0.8;"/>
      </defs>
      <g>
       <use style="stroke:#000000;stroke-width:0.8;" x="61.008042" xlink:href="#m56e395bd76" y="79.535433"/>
      </g>
     </g>
     <g id="text_1">
      <!-- 0 -->
      <defs>
       <path d="M 31.78125 66.40625 
Q 24.171875 66.40625 20.328125 58.90625 
Q 16.5 51.421875 16.5 36.375 
Q 16.5 21.390625 20.328125 13.890625 
Q 24.171875 6.390625 31.78125 6.390625 
Q 39.453125 6.390625 43.28125 13.890625 
Q 47.125 21.390625 47.125 36.375 
Q 47.125 51.421875 43.28125 58.90625 
Q 39.453125 66.40625 31.78125 66.40625 
z
M 31.78125 74.21875 
Q 44.046875 74.21875 50.515625 64.515625 
Q 56.984375 54.828125 56.984375 36.375 
Q 56.984375 17.96875 50.515625 8.265625 
Q 44.046875 -1.421875 31.78125 -1.421875 
Q 19.53125 -1.421875 13.0625 8.265625 
Q 6.59375 17.96875 6.59375 36.375 
Q 6.59375 54.828125 13.0625 64.515625 
Q 19.53125 74.21875 31.78125 74.21875 
z
" id="DejaVuSans-48"/>
      </defs>
      <g transform="translate(58.463042 93.114183)scale(0.08 -0.08)">
       <use xlink:href="#DejaVuSans-48"/>
      </g>
     </g>
    </g>
    <g id="xtick_2">
     <g id="line2d_2">
      <g>
       <use style="stroke:#000000;stroke-width:0.8;" x="92.447963" xlink:href="#m56e395bd76" y="79.535433"/>
      </g>
     </g>
     <g id="text_2">
      <!-- 4 -->
      <defs>
       <path d="M 37.796875 64.3125 
L 12.890625 25.390625 
L 37.796875 25.390625 
z
M 35.203125 72.90625 
L 47.609375 72.90625 
L 47.609375 25.390625 
L 58.015625 25.390625 
L 58.015625 17.1875 
L 47.609375 17.1875 
L 47.609375 0 
L 37.796875 0 
L 37.796875 17.1875 
L 4.890625 17.1875 
L 4.890625 26.703125 
z
" id="DejaVuSans-52"/>
      </defs>
      <g transform="translate(89.902963 93.114183)scale(0.08 -0.08)">
       <use xlink:href="#DejaVuSans-52"/>
      </g>
     </g>
    </g>
    <g id="xtick_3">
     <g id="line2d_3">
      <g>
       <use style="stroke:#000000;stroke-width:0.8;" x="123.887883" xlink:href="#m56e395bd76" y="79.535433"/>
      </g>
     </g>
     <g id="text_3">
      <!-- 8 -->
      <defs>
       <path d="M 31.78125 34.625 
Q 24.75 34.625 20.71875 30.859375 
Q 16.703125 27.09375 16.703125 20.515625 
Q 16.703125 13.921875 20.71875 10.15625 
Q 24.75 6.390625 31.78125 6.390625 
Q 38.8125 6.390625 42.859375 10.171875 
Q 46.921875 13.96875 46.921875 20.515625 
Q 46.921875 27.09375 42.890625 30.859375 
Q 38.875 34.625 31.78125 34.625 
z
M 21.921875 38.8125 
Q 15.578125 40.375 12.03125 44.71875 
Q 8.5 49.078125 8.5 55.328125 
Q 8.5 64.0625 14.71875 69.140625 
Q 20.953125 74.21875 31.78125 74.21875 
Q 42.671875 74.21875 48.875 69.140625 
Q 55.078125 64.0625 55.078125 55.328125 
Q 55.078125 49.078125 51.53125 44.71875 
Q 48 40.375 41.703125 38.8125 
Q 48.828125 37.15625 52.796875 32.3125 
Q 56.78125 27.484375 56.78125 20.515625 
Q 56.78125 9.90625 50.3125 4.234375 
Q 43.84375 -1.421875 31.78125 -1.421875 
Q 19.734375 -1.421875 13.25 4.234375 
Q 6.78125 9.90625 6.78125 20.515625 
Q 6.78125 27.484375 10.78125 32.3125 
Q 14.796875 37.15625 21.921875 38.8125 
z
M 18.3125 54.390625 
Q 18.3125 48.734375 21.84375 45.5625 
Q 25.390625 42.390625 31.78125 42.390625 
Q 38.140625 42.390625 41.71875 45.5625 
Q 45.3125 48.734375 45.3125 54.390625 
Q 45.3125 60.0625 41.71875 63.234375 
Q 38.140625 66.40625 31.78125 66.40625 
Q 25.390625 66.40625 21.84375 63.234375 
Q 18.3125 60.0625 18.3125 54.390625 
z
" id="DejaVuSans-56"/>
      </defs>
      <g transform="translate(121.342883 93.114183)scale(0.08 -0.08)">
       <use xlink:href="#DejaVuSans-56"/>
      </g>
     </g>
    </g>
    <g id="text_4">
     <!-- xlabel (xunit) -->
     <defs>
      <path d="M 54.890625 54.6875 
L 35.109375 28.078125 
L 55.90625 0 
L 45.3125 0 
L 29.390625 21.484375 
L 13.484375 0 
L 2.875 0 
L 24.125 28.609375 
L 4.6875 54.6875 
L 15.28125 54.6875 
L 29.78125 35.203125 
L 44.28125 54.6875 
z
" id="DejaVuSans-120"/>
      <path d="M 9.421875 75.984375 
L 18.40625 75.984375 
L 18.40625 0 
L 9.421875 0 
z
" id="DejaVuSans-108"/>
      <path d="M 34.28125 27.484375 
Q 23.390625 27.484375 19.1875 25 
Q 14.984375 22.515625 14.984375 16.5 
Q 14.984375 11.71875 18.140625 8.90625 
Q 21.296875 6.109375 26.703125 6.109375 
Q 34.1875 6.109375 38.703125 11.40625 
Q 43.21875 16.703125 43.21875 25.484375 
L 43.21875 27.484375 
z
M 52.203125 31.203125 
L 52.203125 0 
L 43.21875 0 
L 43.21875 8.296875 
Q 40.140625 3.328125 35.546875 0.953125 
Q 30.953125 -1.421875 24.3125 -1.421875 
Q 15.921875 -1.421875 10.953125 3.296875 
Q 6 8.015625 6 15.921875 
Q 6 25.140625 12.171875 29.828125 
Q 18.359375 34.515625 30.609375 34.515625 
L 43.21875 34.515625 
L 43.21875 35.40625 
Q 43.21875 41.609375 39.140625 45 
Q 35.0625 48.390625 27.6875 48.390625 
Q 23 48.390625 18.546875 47.265625 
Q 14.109375 46.140625 10.015625 43.890625 
L 10.015625 52.203125 
Q 14.9375 54.109375 19.578125 55.046875 
Q 24.21875 56 28.609375 56 
Q 40.484375 56 46.34375 49.84375 
Q 52.203125 43.703125 52.203125 31.203125 
z
" id="DejaVuSans-97"/>
      <path d="M 48.6875 27.296875 
Q 48.6875 37.203125 44.609375 42.84375 
Q 40.53125 48.484375 33.40625 48.484375 
Q 26.265625 48.484375 22.1875 42.84375 
Q 18.109375 37.203125 18.109375 27.296875 
Q 18.109375 17.390625 22.1875 11.75 
Q 26.265625 6.109375 33.40625 6.109375 
Q 40.53125 6.109375 44.609375 11.75 
Q 48.6875 17.390625 48.6875 27.296875 
z
M 18.109375 46.390625 
Q 20.953125 51.265625 25.265625 53.625 
Q 29.59375 56 35.59375 56 
Q 45.5625 56 51.78125 48.09375 
Q 58.015625 40.1875 58.015625 27.296875 
Q 58.015625 14.40625 51.78125 6.484375 
Q 45.5625 -1.421875 35.59375 -1.421875 
Q 29.59375 -1.421875 25.265625 0.953125 
Q 20.953125 3.328125 18.109375 8.203125 
L 18.109375 0 
L 9.078125 0 
L 9.078125 75.984375 
L 18.109375 75.984375 
z
" id="DejaVuSans-98"/>
      <path d="M 56.203125 29.59375 
L 56.203125 25.203125 
L 14.890625 25.203125 
Q 15.484375 15.921875 20.484375 11.0625 
Q 25.484375 6.203125 34.421875 6.203125 
Q 39.59375 6.203125 44.453125 7.46875 
Q 49.3125 8.734375 54.109375 11.28125 
L 54.109375 2.78125 
Q 49.265625 0.734375 44.1875 -0.34375 
Q 39.109375 -1.421875 33.890625 -1.421875 
Q 20.796875 -1.421875 13.15625 6.1875 
Q 5.515625 13.8125 5.515625 26.8125 
Q 5.515625 40.234375 12.765625 48.109375 
Q 20.015625 56 32.328125 56 
Q 43.359375 56 49.78125 48.890625 
Q 56.203125 41.796875 56.203125 29.59375 
z
M 47.21875 32.234375 
Q 47.125 39.59375 43.09375 43.984375 
Q 39.0625 48.390625 32.421875 48.390625 
Q 24.90625 48.390625 20.390625 44.140625 
Q 15.875 39.890625 15.1875 32.171875 
z
" id="DejaVuSans-101"/>
      <path id="DejaVuSans-32"/>
      <path d="M 31 75.875 
Q 24.46875 64.65625 21.28125 53.65625 
Q 18.109375 42.671875 18.109375 31.390625 
Q 18.109375 20.125 21.3125 9.0625 
Q 24.515625 -2 31 -13.1875 
L 23.1875 -13.1875 
Q 15.875 -1.703125 12.234375 9.375 
Q 8.59375 20.453125 8.59375 31.390625 
Q 8.59375 42.28125 12.203125 53.3125 
Q 15.828125 64.359375 23.1875 75.875 
z
" id="DejaVuSans-40"/>
      <path d="M 8.5 21.578125 
L 8.5 54.6875 
L 17.484375 54.6875 
L 17.484375 21.921875 
Q 17.484375 14.15625 20.5 10.265625 
Q 23.53125 6.390625 29.59375 6.390625 
Q 36.859375 6.390625 41.078125 11.03125 
Q 45.3125 15.671875 45.3125 23.6875 
L 45.3125 54.6875 
L 54.296875 54.6875 
L 54.296875 0 
L 45.3125 0 
L 45.3125 8.40625 
Q 42.046875 3.421875 37.71875 1 
Q 33.40625 -1.421875 27.6875 -1.421875 
Q 18.265625 -1.421875 13.375 4.4375 
Q 8.5 10.296875 8.5 21.578125 
z
M 31.109375 56 
z
" id="DejaVuSans-117"/>
      <path d="M 54.890625 33.015625 
L 54.890625 0 
L 45.90625 0 
L 45.90625 32.71875 
Q 45.90625 40.484375 42.875 44.328125 
Q 39.84375 48.1875 33.796875 48.1875 
Q 26.515625 48.1875 22.3125 43.546875 
Q 18.109375 38.921875 18.109375 30.90625 
L 18.109375 0 
L 9.078125 0 
L 9.078125 54.6875 
L 18.109375 54.6875 
L 18.109375 46.1875 
Q 21.34375 51.125 25.703125 53.5625 
Q 30.078125 56 35.796875 56 
Q 45.21875 56 50.046875 50.171875 
Q 54.890625 44.34375 54.890625 33.015625 
z
" id="DejaVuSans-110"/>
      <path d="M 9.421875 54.6875 
L 18.40625 54.6875 
L 18.40625 0 
L 9.421875 0 
z
M 9.421875 75.984375 
L 18.40625 75.984375 
L 18.40625 64.59375 
L 9.421875 64.59375 
z
" id="DejaVuSans-105"/>
      <path d="M 18.3125 70.21875 
L 18.3125 54.6875 
L 36.8125 54.6875 
L 36.8125 47.703125 
L 18.3125 47.703125 
L 18.3125 18.015625 
Q 18.3125 11.328125 20.140625 9.421875 
Q 21.96875 7.515625 27.59375 7.515625 
L 36.8125 7.515625 
L 36.8125 0 
L 27.59375 0 
Q 17.1875 0 13.234375 3.875 
Q 9.28125 7.765625 9.28125 18.015625 
L 9.28125 47.703125 
L 2.6875 47.703125 
L 2.6875 54.6875 
L 9.28125 54.6875 
L 9.28125 70.21875 
z
" id="DejaVuSans-116"/>
      <path d="M 8.015625 75.875 
L 15.828125 75.875 
Q 23.140625 64.359375 26.78125 53.3125 
Q 30.421875 42.28125 30.421875 31.390625 
Q 30.421875 20.453125 26.78125 9.375 
Q 23.140625 -1.703125 15.828125 -13.1875 
L 8.015625 -13.1875 
Q 14.5 -2 17.703125 9.0625 
Q 20.90625 20.125 20.90625 31.390625 
Q 20.90625 42.671875 17.703125 53.65625 
Q 14.5 64.65625 8.015625 75.875 
z
" id="DejaVuSans-41"/>
     </defs>
     <g transform="translate(69.826703 102.356683)scale(0.08 -0.08)">
      <use xlink:href="#DejaVuSans-120"/>
      <use x="59.179688" xlink:href="#DejaVuSans-108"/>
      <use x="86.962891" xlink:href="#DejaVuSans-97"/>
      <use x="148.242188" xlink:href="#DejaVuSans-98"/>
      <use x="211.71875" xlink:href="#DejaVuSans-101"/>
      <use x="273.242188" xlink:href="#DejaVuSans-108"/>
      <use x="301.025391" xlink:href="#DejaVuSans-32"/>
      <use x="332.8125" xlink:href="#DejaVuSans-40"/>
      <use x="371.826172" xlink:href="#DejaVuSans-120"/>
      <use x="431.005859" xlink:href="#DejaVuSans-117"/>
      <use x="494.384766" xlink:href="#DejaVuSans-110"/>
      <use x="557.763672" xlink:href="#DejaVuSans-105"/>
      <use x="585.546875" xlink:href="#DejaVuSans-116"/>
      <use x="624.755859" xlink:href="#DejaVuSans-41"/>
     </g>
    </g>
   </g>
   <g id="matplotlib.axis_2">
    <g id="ytick_1">
     <g id="line2d_4">
      <defs>
       <path d="M 0 0 
L -4 0 
" id="m48d58c48c6" style="stroke:#000000;stroke-width:0.8;"/>
      </defs>
      <g>
       <use style="stroke:#000000;stroke-width:0.8;" x="53.692913" xlink:href="#m48d58c48c6" y="69.475622"/>
      </g>
     </g>
     <g id="text_5">
      <!-- −3 -->
      <defs>
       <path d="M 10.59375 35.5 
L 73.1875 35.5 
L 73.1875 27.203125 
L 10.59375 27.203125 
z
" id="DejaVuSans-8722"/>
       <path d="M 40.578125 39.3125 
Q 47.65625 37.796875 51.625 33 
Q 55.609375 28.21875 55.609375 21.1875 
Q 55.609375 10.40625 48.1875 4.484375 
Q 40.765625 -1.421875 27.09375 -1.421875 
Q 22.515625 -1.421875 17.65625 -0.515625 
Q 12.796875 0.390625 7.625 2.203125 
L 7.625 11.71875 
Q 11.71875 9.328125 16.59375 8.109375 
Q 21.484375 6.890625 26.8125 6.890625 
Q 36.078125 6.890625 40.9375 10.546875 
Q 45.796875 14.203125 45.796875 21.1875 
Q 45.796875 27.640625 41.28125 31.265625 
Q 36.765625 34.90625 28.71875 34.90625 
L 20.21875 34.90625 
L 20.21875 43.015625 
L 29.109375 43.015625 
Q 36.375 43.015625 40.234375 45.921875 
Q 44.09375 48.828125 44.09375 54.296875 
Q 44.09375 59.90625 40.109375 62.90625 
Q 36.140625 65.921875 28.71875 65.921875 
Q 24.65625 65.921875 20.015625 65.03125 
Q 15.375 64.15625 9.8125 62.3125 
L 9.8125 71.09375 
Q 15.4375 72.65625 20.34375 73.4375 
Q 25.25 74.21875 29.59375 74.21875 
Q 40.828125 74.21875 47.359375 69.109375 
Q 53.90625 64.015625 53.90625 55.328125 
Q 53.90625 49.265625 50.4375 45.09375 
Q 46.96875 40.921875 40.578125 39.3125 
z
" id="DejaVuSans-51"/>
      </defs>
      <g transform="translate(34.399163 72.514997)scale(0.08 -0.08)">
       <use xlink:href="#DejaVuSans-8722"/>
       <use x="83.789062" xlink:href="#DejaVuSans-51"/>
      </g>
     </g>
    </g>
    <g id="ytick_2">
     <g id="line2d_5">
      <g>
       <use style="stroke:#000000;stroke-width:0.8;" x="53.692913" xlink:href="#m48d58c48c6" y="47.346798"/>
      </g>
     </g>
     <g id="text_6">
      <!-- 0 -->
      <g transform="translate(41.102913 50.386173)scale(0.08 -0.08)">
       <use xlink:href="#DejaVuSans-48"/>
      </g>
     </g>
    </g>
    <g id="ytick_3">
     <g id="line2d_6">
      <g>
       <use style="stroke:#000000;stroke-width:0.8;" x="53.692913" xlink:href="#m48d58c48c6" y="25.217973"/>
      </g>
     </g>
     <g id="text_7">
      <!-- 3 -->
      <g transform="translate(41.102913 28.257348)scale(0.08 -0.08)">
       <use xlink:href="#DejaVuSans-51"/>
      </g>
     </g>
    </g>
    <g id="text_8">
     <!-- ylabel (yunit) -->
     <defs>
      <path d="M 32.171875 -5.078125 
Q 28.375 -14.84375 24.75 -17.8125 
Q 21.140625 -20.796875 15.09375 -20.796875 
L 7.90625 -20.796875 
L 7.90625 -13.28125 
L 13.1875 -13.28125 
Q 16.890625 -13.28125 18.9375 -11.515625 
Q 21 -9.765625 23.484375 -3.21875 
L 25.09375 0.875 
L 2.984375 54.6875 
L 12.5 54.6875 
L 29.59375 11.921875 
L 46.6875 54.6875 
L 56.203125 54.6875 
z
" id="DejaVuSans-121"/>
     </defs>
     <g transform="translate(31.235413 74.740226)rotate(-90)scale(0.08 -0.08)">
      <use xlink:href="#DejaVuSans-121"/>
      <use x="59.179688" xlink:href="#DejaVuSans-108"/>
      <use x="86.962891" xlink:href="#DejaVuSans-97"/>
      <use x="148.242188" xlink:href="#DejaVuSans-98"/>
      <use x="211.71875" xlink:href="#DejaVuSans-101"/>
      <use x="273.242188" xlink:href="#DejaVuSans-108"/>
      <use x="301.025391" xlink:href="#DejaVuSans-32"/>
      <use x="332.8125" xlink:href="#DejaVuSans-40"/>
      <use x="371.826172" xlink:href="#DejaVuSans-121"/>
      <use x="431.005859" xlink:href="#DejaVuSans-117"/>
      <use x="494.384766" xlink:href="#DejaVuSans-110"/>
      <use x="557.763672" xlink:href="#DejaVuSans-105"/>
      <use x="585.546875" xlink:href="#DejaVuSans-116"/>
      <use x="624.755859" xlink:href="#DejaVuSans-41"/>
     </g>
    </g>
   </g>
   <g id="LineCollection_1">
    <path clip-path="url(#pa6560f51bf)" d="M 61.008042 45.24457 
L 61.008042 53.692417 
" style="fill:none;stroke:#440154;"/>
    <path clip-path="url(#pa6560f51bf)" d="M 68.868023 41.931038 
L 68.868023 52.486016 
" style="fill:none;stroke:#440154;"/>
    <path clip-path="url(#pa6560f51bf)" d="M 76.728003 29.903388 
L 76.728003 37.173239 
" style="fill:none;stroke:#440154;"/>
    <path clip-path="url(#pa6560f51bf)" d="M 84.587983 54.570353 
L 84.587983 25.634056 
" style="fill:none;stroke:#440154;"/>
    <path clip-path="url(#pa6560f51bf)" d="M 92.447963 27.674763 
L 92.447963 55.04882 
" style="fill:none;stroke:#440154;"/>
    <path clip-path="url(#pa6560f51bf)" d="M 100.307943 30.599679 
L 100.307943 67.974599 
" style="fill:none;stroke:#440154;"/>
    <path clip-path="url(#pa6560f51bf)" d="M 108.167923 22.924755 
L 108.167923 23.076123 
" style="fill:none;stroke:#440154;"/>
    <path clip-path="url(#pa6560f51bf)" d="M 116.027903 39.932816 
L 116.027903 51.544813 
" style="fill:none;stroke:#440154;"/>
    <path clip-path="url(#pa6560f51bf)" d="M 123.887883 28.815636 
L 123.887883 31.012402 
" style="fill:none;stroke:#440154;"/>
    <path clip-path="url(#pa6560f51bf)" d="M 131.747863 35.857623 
L 131.747863 54.182249 
" style="fill:none;stroke:#440154;"/>
   </g>
   <g id="LineCollection_2">
    <path clip-path="url(#pa6560f51bf)" d="M 61.008042 37.776266 
L 61.008042 39.269697 
" style="fill:none;stroke:#31688e;"/>
    <path clip-path="url(#pa6560f51bf)" d="M 68.868023 33.122996 
L 68.868023 34.87612 
" style="fill:none;stroke:#31688e;"/>
    <path clip-path="url(#pa6560f51bf)" d="M 76.728003 38.278611 
L 76.728003 35.469168 
" style="fill:none;stroke:#31688e;"/>
    <path clip-path="url(#pa6560f51bf)" d="M 84.587983 57.669297 
L 84.587983 55.83582 
" style="fill:none;stroke:#31688e;"/>
    <path clip-path="url(#pa6560f51bf)" d="M 92.447963 65.231101 
L 92.447963 49.55123 
" style="fill:none;stroke:#31688e;"/>
    <path clip-path="url(#pa6560f51bf)" d="M 100.307943 57.134917 
L 100.307943 61.664593 
" style="fill:none;stroke:#31688e;"/>
    <path clip-path="url(#pa6560f51bf)" d="M 108.167923 49.783082 
L 108.167923 61.771428 
" style="fill:none;stroke:#31688e;"/>
    <path clip-path="url(#pa6560f51bf)" d="M 116.027903 35.482535 
L 116.027903 44.685988 
" style="fill:none;stroke:#31688e;"/>
    <path clip-path="url(#pa6560f51bf)" d="M 123.887883 39.534987 
L 123.887883 62.981064 
" style="fill:none;stroke:#31688e;"/>
    <path clip-path="url(#pa6560f51bf)" d="M 131.747863 45.657392 
L 131.747863 50.214365 
" style="fill:none;stroke:#31688e;"/>
   </g>
   <g id="LineCollection_3">
    <path clip-path="url(#pa6560f51bf)" d="M 61.008042 46.6695 
L 61.008042 59.62091 
" style="fill:none;stroke:#35b779;"/>
    <path clip-path="url(#pa6560f51bf)" d="M 68.868023 57.342311 
L 68.868023 45.872179 
" style="fill:none;stroke:#35b779;"/>
    <path clip-path="url(#pa6560f51bf)" d="M 76.728003 35.852461 
L 76.728003 44.56766 
" style="fill:none;stroke:#35b779;"/>
    <path clip-path="url(#pa6560f51bf)" d="M 84.587983 67.85491 
L 84.587983 35.553955 
" style="fill:none;stroke:#35b779;"/>
    <path clip-path="url(#pa6560f51bf)" d="M 92.447963 44.178979 
L 92.447963 34.437231 
" style="fill:none;stroke:#35b779;"/>
    <path clip-path="url(#pa6560f51bf)" d="M 100.307943 66.242253 
L 100.307943 55.46915 
" style="fill:none;stroke:#35b779;"/>
    <path clip-path="url(#pa6560f51bf)" d="M 108.167923 41.913518 
L 108.167923 52.2355 
" style="fill:none;stroke:#35b779;"/>
    <path clip-path="url(#pa6560f51bf)" d="M 116.027903 37.070638 
L 116.027903 68.147118 
" style="fill:none;stroke:#35b779;"/>
    <path clip-path="url(#pa6560f51bf)" d="M 123.887883 41.143681 
L 123.887883 73.453198 
" style="fill:none;stroke:#35b779;"/>
    <path clip-path="url(#pa6560f51bf)" d="M 131.747863 52.569337 
L 131.747863 47.748087 
" style="fill:none;stroke:#35b779;"/>
   </g>
   <g id="LineCollection_4">
    <path clip-path="url(#pa6560f51bf)" d="M 61.008042 41.034881 
L 61.008042 37.467851 
" style="fill:none;stroke:#fde725;"/>
    <path clip-path="url(#pa6560f51bf)" d="M 68.868023 47.127682 
L 68.868023 53.479695 
" style="fill:none;stroke:#fde725;"/>
    <path clip-path="url(#pa6560f51bf)" d="M 76.728003 45.082235 
L 76.728003 37.053572 
" style="fill:none;stroke:#fde725;"/>
    <path clip-path="url(#pa6560f51bf)" d="M 84.587983 45.589426 
L 84.587983 59.003503 
" style="fill:none;stroke:#fde725;"/>
    <path clip-path="url(#pa6560f51bf)" d="M 92.447963 46.754653 
L 92.447963 42.159121 
" style="fill:none;stroke:#fde725;"/>
    <path clip-path="url(#pa6560f51bf)" d="M 100.307943 46.82851 
L 100.307943 30.214182 
" style="fill:none;stroke:#fde725;"/>
    <path clip-path="url(#pa6560f51bf)" d="M 108.167923 42.612331 
L 108.167923 44.296236 
" style="fill:none;stroke:#fde725;"/>
    <path clip-path="url(#pa6560f51bf)" d="M 116.027903 49.475897 
L 116.027903 46.536243 
" style="fill:none;stroke:#fde725;"/>
    <path clip-path="url(#pa6560f51bf)" d="M 123.887883 35.39962 
L 123.887883 47.007389 
" style="fill:none;stroke:#fde725;"/>
    <path clip-path="url(#pa6560f51bf)" d="M 131.747863 37.452103 
L 131.747863 49.354194 
" style="fill:none;stroke:#fde725;"/>
   </g>
   <g id="line2d_7">
    <defs>
     <path d="M 0 0.00025 
C 0.000066 0.00025 0.00013 0.000224 0.000177 0.000177 
C 0.000224 0.00013 0.00025 0.000066 0.00025 0 
C 0.00025 -0.000066 0.000224 -0.00013 0.000177 -0.000177 
C 0.00013 -0.000224 0.000066 -0.00025 0 -0.00025 
C -0.000066 -0.00025 -0.00013 -0.000224 -0.000177 -0.000177 
C -0.000224 -0.00013 -0.00025 -0.000066 -0.00025 0 
C -0.00025 0.000066 -0.000224 0.00013 -0.000177 0.000177 
C -0.00013 0.000224 -0.000066 0.00025 0 0.00025 
z
" id="mdcc85212a7" style="stroke:#ffffff;stroke-opacity:0.001;"/>
    </defs>
    <g clip-path="url(#pa6560f51bf)">
     <use style="fill:#ffffff;fill-opacity:0.001;stroke:#ffffff;stroke-opacity:0.001;" x="96.377953" xlink:href="#mdcc85212a7" y="76.535433"/>
     <use style="fill:#ffffff;fill-opacity:0.001;stroke:#ffffff;stroke-opacity:0.001;" x="96.377953" xlink:href="#mdcc85212a7" y="19.84252"/>
    </g>
   </g>
   <g id="line2d_8">
    <g clip-path="url(#pa6560f51bf)">
     <use style="fill:#ffffff;fill-opacity:0.001;stroke:#ffffff;stroke-opacity:0.001;" x="56.692913" xlink:href="#mdcc85212a7" y="48.188976"/>
     <use style="fill:#ffffff;fill-opacity:0.001;stroke:#ffffff;stroke-opacity:0.001;" x="136.062992" xlink:href="#mdcc85212a7" y="48.188976"/>
    </g>
   </g>
   <g id="line2d_9">
    <path clip-path="url(#pa6560f51bf)" d="M 61.008042 49.468494 
L 68.868023 47.208527 
L 76.728003 33.538313 
L 84.587983 40.102205 
L 92.447963 41.361791 
L 100.307943 49.287139 
L 108.167923 23.000439 
L 116.027903 45.738815 
L 123.887883 29.914019 
L 131.747863 45.019936 
" style="fill:none;"/>
    <defs>
     <path d="M 0 1.5 
C 0.397805 1.5 0.77937 1.341951 1.06066 1.06066 
C 1.341951 0.77937 1.5 0.397805 1.5 0 
C 1.5 -0.397805 1.341951 -0.77937 1.06066 -1.06066 
C 0.77937 -1.341951 0.397805 -1.5 0 -1.5 
C -0.397805 -1.5 -0.77937 -1.341951 -1.06066 -1.06066 
C -1.341951 -0.77937 -1.5 -0.397805 -1.5 0 
C -1.5 0.397805 -1.341951 0.77937 -1.06066 1.06066 
C -0.77937 1.341951 -0.397805 1.5 0 1.5 
z
" id="m3dc5e351d3" style="stroke:#440154;"/>
    </defs>
    <g clip-path="url(#pa6560f51bf)">
     <use style="fill:#440154;stroke:#440154;" x="61.008042" xlink:href="#m3dc5e351d3" y="49.468494"/>
     <use style="fill:#440154;stroke:#440154;" x="68.868023" xlink:href="#m3dc5e351d3" y="47.208527"/>
     <use style="fill:#440154;stroke:#440154;" x="76.728003" xlink:href="#m3dc5e351d3" y="33.538313"/>
     <use style="fill:#440154;stroke:#440154;" x="84.587983" xlink:href="#m3dc5e351d3" y="40.102205"/>
     <use style="fill:#440154;stroke:#440154;" x="92.447963" xlink:href="#m3dc5e351d3" y="41.361791"/>
     <use style="fill:#440154;stroke:#440154;" x="100.307943" xlink:href="#m3dc5e351d3" y="49.287139"/>
     <use style="fill:#440154;stroke:#440154;" x="108.167923" xlink:href="#m3dc5e351d3" y="23.000439"/>
     <use style="fill:#440154;stroke:#440154;" x="116.027903" xlink:href="#m3dc5e351d3" y="45.738815"/>
     <use style="fill:#440154;stroke:#440154;" x="123.887883" xlink:href="#m3dc5e351d3" y="29.914019"/>
     <use style="fill:#440154;stroke:#440154;" x="131.747863" xlink:href="#m3dc5e351d3" y="45.019936"/>
    </g>
   </g>
   <g id="line2d_10">
    <path clip-path="url(#pa6560f51bf)" d="M 61.008042 38.522982 
L 68.868023 33.999558 
L 76.728003 36.87389 
L 84.587983 56.752558 
L 92.447963 57.391165 
L 100.307943 59.399755 
L 108.167923 55.777255 
L 116.027903 40.084261 
L 123.887883 51.258026 
L 131.747863 47.935878 
" style="fill:none;"/>
    <defs>
     <path d="M 0 1.5 
C 0.397805 1.5 0.77937 1.341951 1.06066 1.06066 
C 1.341951 0.77937 1.5 0.397805 1.5 0 
C 1.5 -0.397805 1.341951 -0.77937 1.06066 -1.06066 
C 0.77937 -1.341951 0.397805 -1.5 0 -1.5 
C -0.397805 -1.5 -0.77937 -1.341951 -1.06066 -1.06066 
C -1.341951 -0.77937 -1.5 -0.397805 -1.5 0 
C -1.5 0.397805 -1.341951 0.77937 -1.06066 1.06066 
C -0.77937 1.341951 -0.397805 1.5 0 1.5 
z
" id="mc08eccb972" style="stroke:#31688e;"/>
    </defs>
    <g clip-path="url(#pa6560f51bf)">
     <use style="fill:#31688e;stroke:#31688e;" x="61.008042" xlink:href="#mc08eccb972" y="38.522982"/>
     <use style="fill:#31688e;stroke:#31688e;" x="68.868023" xlink:href="#mc08eccb972" y="33.999558"/>
     <use style="fill:#31688e;stroke:#31688e;" x="76.728003" xlink:href="#mc08eccb972" y="36.87389"/>
     <use style="fill:#31688e;stroke:#31688e;" x="84.587983" xlink:href="#mc08eccb972" y="56.752558"/>
     <use style="fill:#31688e;stroke:#31688e;" x="92.447963" xlink:href="#mc08eccb972" y="57.391165"/>
     <use style="fill:#31688e;stroke:#31688e;" x="100.307943" xlink:href="#mc08eccb972" y="59.399755"/>
     <use style="fill:#31688e;stroke:#31688e;" x="108.167923" xlink:href="#mc08eccb972" y="55.777255"/>
     <use style="fill:#31688e;stroke:#31688e;" x="116.027903" xlink:href="#mc08eccb972" y="40.084261"/>
     <use style="fill:#31688e;stroke:#31688e;" x="123.887883" xlink:href="#mc08eccb972" y="51.258026"/>
     <use style="fill:#31688e;stroke:#31688e;" x="131.747863" xlink:href="#mc08eccb972" y="47.935878"/>
    </g>
   </g>
   <g id="line2d_11">
    <path clip-path="url(#pa6560f51bf)" d="M 61.008042 53.145205 
L 68.868023 51.607245 
L 76.728003 40.210061 
L 84.587983 51.704432 
L 92.447963 39.308105 
L 100.307943 60.855702 
L 108.167923 47.074509 
L 116.027903 52.608878 
L 123.887883 57.29844 
L 131.747863 50.158712 
" style="fill:none;"/>
    <defs>
     <path d="M 0 1.5 
C 0.397805 1.5 0.77937 1.341951 1.06066 1.06066 
C 1.341951 0.77937 1.5 0.397805 1.5 0 
C 1.5 -0.397805 1.341951 -0.77937 1.06066 -1.06066 
C 0.77937 -1.341951 0.397805 -1.5 0 -1.5 
C -0.397805 -1.5 -0.77937 -1.341951 -1.06066 -1.06066 
C -1.341951 -0.77937 -1.5 -0.397805 -1.5 0 
C -1.5 0.397805 -1.341951 0.77937 -1.06066 1.06066 
C -0.77937 1.341951 -0.397805 1.5 0 1.5 
z
" id="m8a7cc2b0ac" style="stroke:#35b779;"/>
    </defs>
    <g clip-path="url(#pa6560f51bf)">
     <use style="fill:#35b779;stroke:#35b779;" x="61.008042" xlink:href="#m8a7cc2b0ac" y="53.145205"/>
     <use style="fill:#35b779;stroke:#35b779;" x="68.868023" xlink:href="#m8a7cc2b0ac" y="51.607245"/>
     <use style="fill:#35b779;stroke:#35b779;" x="76.728003" xlink:href="#m8a7cc2b0ac" y="40.210061"/>
     <use style="fill:#35b779;stroke:#35b779;" x="84.587983" xlink:href="#m8a7cc2b0ac" y="51.704432"/>
     <use style="fill:#35b779;stroke:#35b779;" x="92.447963" xlink:href="#m8a7cc2b0ac" y="39.308105"/>
     <use style="fill:#35b779;stroke:#35b779;" x="100.307943" xlink:href="#m8a7cc2b0ac" y="60.855702"/>
     <use style="fill:#35b779;stroke:#35b779;" x="108.167923" xlink:href="#m8a7cc2b0ac" y="47.074509"/>
     <use style="fill:#35b779;stroke:#35b779;" x="116.027903" xlink:href="#m8a7cc2b0ac" y="52.608878"/>
     <use style="fill:#35b779;stroke:#35b779;" x="123.887883" xlink:href="#m8a7cc2b0ac" y="57.29844"/>
     <use style="fill:#35b779;stroke:#35b779;" x="131.747863" xlink:href="#m8a7cc2b0ac" y="50.158712"/>
    </g>
   </g>
   <g id="line2d_12">
    <path clip-path="url(#pa6560f51bf)" d="M 61.008042 39.251366 
L 68.868023 50.303689 
L 76.728003 41.067903 
L 84.587983 52.296465 
L 92.447963 44.456887 
L 100.307943 38.521346 
L 108.167923 43.454283 
L 116.027903 48.00607 
L 123.887883 41.203505 
L 131.747863 43.403149 
" style="fill:none;"/>
    <defs>
     <path d="M 0 1.5 
C 0.397805 1.5 0.77937 1.341951 1.06066 1.06066 
C 1.341951 0.77937 1.5 0.397805 1.5 0 
C 1.5 -0.397805 1.341951 -0.77937 1.06066 -1.06066 
C 0.77937 -1.341951 0.397805 -1.5 0 -1.5 
C -0.397805 -1.5 -0.77937 -1.341951 -1.06066 -1.06066 
C -1.341951 -0.77937 -1.5 -0.397805 -1.5 0 
C -1.5 0.397805 -1.341951 0.77937 -1.06066 1.06066 
C -0.77937 1.341951 -0.397805 1.5 0 1.5 
z
" id="m48b60a20fb" style="stroke:#fde725;"/>
    </defs>
    <g clip-path="url(#pa6560f51bf)">
     <use style="fill:#fde725;stroke:#fde725;" x="61.008042" xlink:href="#m48b60a20fb" y="39.251366"/>
     <use style="fill:#fde725;stroke:#fde725;" x="68.868023" xlink:href="#m48b60a20fb" y="50.303689"/>
     <use style="fill:#fde725;stroke:#fde725;" x="76.728003" xlink:href="#m48b60a20fb" y="41.067903"/>
     <use style="fill:#fde725;stroke:#fde725;" x="84.587983" xlink:href="#m48b60a20fb" y="52.296465"/>
     <use style="fill:#fde725;stroke:#fde725;" x="92.447963" xlink:href="#m48b60a20fb" y="44.456887"/>
     <use style="fill:#fde725;stroke:#fde725;" x="100.307943" xlink:href="#m48b60a20fb" y="38.521346"/>
     <use style="fill:#fde725;stroke:#fde725;" x="108.167923" xlink:href="#m48b60a20fb" y="43.454283"/>
     <use style="fill:#fde725;stroke:#fde725;" x="116.027903" xlink:href="#m48b60a20fb" y="48.00607"/>
     <use style="fill:#fde725;stroke:#fde725;" x="123.887883" xlink:href="#m48b60a20fb" y="41.203505"/>
     <use style="fill:#fde725;stroke:#fde725;" x="131.747863" xlink:href="#m48b60a20fb" y="43.403149"/>
    </g>
   </g>
   <g id="patch_3">
    <path d="M 53.692913 76.535433 
L 53.692913 19.84252 
" style="fill:none;stroke:#000000;stroke-linecap:square;stroke-linejoin:miter;stroke-width:0.8;"/>
   </g>
   <g id="patch_4">
    <path d="M 136.062992 76.535433 
L 136.062992 19.84252 
" style="fill:none;"/>
   </g>
   <g id="patch_5">
    <path d="M 56.692913 79.535433 
L 136.062992 79.535433 
" style="fill:none;stroke:#000000;stroke-linecap:square;stroke-linejoin:miter;stroke-width:0.8;"/>
   </g>
   <g id="patch_6">
    <path d="M 56.692913 19.84252 
L 136.062992 19.84252 
" style="fill:none;"/>
   </g>
   <g id="text_9">
    <!-- datavyz demo plot -->
    <defs>
     <path d="M 45.40625 46.390625 
L 45.40625 75.984375 
L 54.390625 75.984375 
L 54.390625 0 
L 45.40625 0 
L 45.40625 8.203125 
Q 42.578125 3.328125 38.25 0.953125 
Q 33.9375 -1.421875 27.875 -1.421875 
Q 17.96875 -1.421875 11.734375 6.484375 
Q 5.515625 14.40625 5.515625 27.296875 
Q 5.515625 40.1875 11.734375 48.09375 
Q 17.96875 56 27.875 56 
Q 33.9375 56 38.25 53.625 
Q 42.578125 51.265625 45.40625 46.390625 
z
M 14.796875 27.296875 
Q 14.796875 17.390625 18.875 11.75 
Q 22.953125 6.109375 30.078125 6.109375 
Q 37.203125 6.109375 41.296875 11.75 
Q 45.40625 17.390625 45.40625 27.296875 
Q 45.40625 37.203125 41.296875 42.84375 
Q 37.203125 48.484375 30.078125 48.484375 
Q 22.953125 48.484375 18.875 42.84375 
Q 14.796875 37.203125 14.796875 27.296875 
z
" id="DejaVuSans-100"/>
     <path d="M 2.984375 54.6875 
L 12.5 54.6875 
L 29.59375 8.796875 
L 46.6875 54.6875 
L 56.203125 54.6875 
L 35.6875 0 
L 23.484375 0 
z
" id="DejaVuSans-118"/>
     <path d="M 5.515625 54.6875 
L 48.1875 54.6875 
L 48.1875 46.484375 
L 14.40625 7.171875 
L 48.1875 7.171875 
L 48.1875 0 
L 4.296875 0 
L 4.296875 8.203125 
L 38.09375 47.515625 
L 5.515625 47.515625 
z
" id="DejaVuSans-122"/>
     <path d="M 52 44.1875 
Q 55.375 50.25 60.0625 53.125 
Q 64.75 56 71.09375 56 
Q 79.640625 56 84.28125 50.015625 
Q 88.921875 44.046875 88.921875 33.015625 
L 88.921875 0 
L 79.890625 0 
L 79.890625 32.71875 
Q 79.890625 40.578125 77.09375 44.375 
Q 74.3125 48.1875 68.609375 48.1875 
Q 61.625 48.1875 57.5625 43.546875 
Q 53.515625 38.921875 53.515625 30.90625 
L 53.515625 0 
L 44.484375 0 
L 44.484375 32.71875 
Q 44.484375 40.625 41.703125 44.40625 
Q 38.921875 48.1875 33.109375 48.1875 
Q 26.21875 48.1875 22.15625 43.53125 
Q 18.109375 38.875 18.109375 30.90625 
L 18.109375 0 
L 9.078125 0 
L 9.078125 54.6875 
L 18.109375 54.6875 
L 18.109375 46.1875 
Q 21.1875 51.21875 25.484375 53.609375 
Q 29.78125 56 35.6875 56 
Q 41.65625 56 45.828125 52.96875 
Q 50 49.953125 52 44.1875 
z
" id="DejaVuSans-109"/>
     <path d="M 30.609375 48.390625 
Q 23.390625 48.390625 19.1875 42.75 
Q 14.984375 37.109375 14.984375 27.296875 
Q 14.984375 17.484375 19.15625 11.84375 
Q 23.34375 6.203125 30.609375 6.203125 
Q 37.796875 6.203125 41.984375 11.859375 
Q 46.1875 17.53125 46.1875 27.296875 
Q 46.1875 37.015625 41.984375 42.703125 
Q 37.796875 48.390625 30.609375 48.390625 
z
M 30.609375 56 
Q 42.328125 56 49.015625 48.375 
Q 55.71875 40.765625 55.71875 27.296875 
Q 55.71875 13.875 49.015625 6.21875 
Q 42.328125 -1.421875 30.609375 -1.421875 
Q 18.84375 -1.421875 12.171875 6.21875 
Q 5.515625 13.875 5.515625 27.296875 
Q 5.515625 40.765625 12.171875 48.375 
Q 18.84375 56 30.609375 56 
z
" id="DejaVuSans-111"/>
     <path d="M 18.109375 8.203125 
L 18.109375 -20.796875 
L 9.078125 -20.796875 
L 9.078125 54.6875 
L 18.109375 54.6875 
L 18.109375 46.390625 
Q 20.953125 51.265625 25.265625 53.625 
Q 29.59375 56 35.59375 56 
Q 45.5625 56 51.78125 48.09375 
Q 58.015625 40.1875 58.015625 27.296875 
Q 58.015625 14.40625 51.78125 6.484375 
Q 45.5625 -1.421875 35.59375 -1.421875 
Q 29.59375 -1.421875 25.265625 0.953125 
Q 20.953125 3.328125 18.109375 8.203125 
z
M 48.6875 27.296875 
Q 48.6875 37.203125 44.609375 42.84375 
Q 40.53125 48.484375 33.40625 48.484375 
Q 26.265625 48.484375 22.1875 42.84375 
Q 18.109375 37.203125 18.109375 27.296875 
Q 18.109375 17.390625 22.1875 11.75 
Q 26.265625 6.109375 33.40625 6.109375 
Q 40.53125 6.109375 44.609375 11.75 
Q 48.6875 17.390625 48.6875 27.296875 
z
" id="DejaVuSans-112"/>
    </defs>
    <g transform="translate(58.980453 13.84252)scale(0.08 -0.08)">
     <use xlink:href="#DejaVuSans-100"/>
     <use x="63.476562" xlink:href="#DejaVuSans-97"/>
     <use x="124.755859" xlink:href="#DejaVuSans-116"/>
     <use x="163.964844" xlink:href="#DejaVuSans-97"/>
     <use x="225.244141" xlink:href="#DejaVuSans-118"/>
     <use x="284.423828" xlink:href="#DejaVuSans-121"/>
     <use x="343.603516" xlink:href="#DejaVuSans-122"/>
     <use x="396.09375" xlink:href="#DejaVuSans-32"/>
     <use x="427.880859" xlink:href="#DejaVuSans-100"/>
     <use x="491.357422" xlink:href="#DejaVuSans-101"/>
     <use x="552.880859" xlink:href="#DejaVuSans-109"/>
     <use x="650.292969" xlink:href="#DejaVuSans-111"/>
     <use x="711.474609" xlink:href="#DejaVuSans-32"/>
     <use x="743.261719" xlink:href="#DejaVuSans-112"/>
     <use x="806.738281" xlink:href="#DejaVuSans-108"/>
     <use x="834.521484" xlink:href="#DejaVuSans-111"/>
     <use x="895.703125" xlink:href="#DejaVuSans-116"/>
    </g>
   </g>
  </g>
 </g>
 <defs>
  <clipPath id="pa6560f51bf">
   <rect height="56.692913" width="79.370079" x="56.692913" y="19.84252"/>
  </clipPath>
 </defs>
</svg>
