<?xml version="1.0" encoding="utf-8" standalone="no"?>
<!DOCTYPE svg PUBLIC "-//W3C//DTD SVG 1.1//EN"
  "http://www.w3.org/Graphics/SVG/1.1/DTD/svg11.dtd">
<!-- Created with matplotlib (https://matplotlib.org/) -->
<svg height="119.055118pt" version="1.1" viewBox="0 0 136.062992 119.055118" width="136.062992pt" xmlns="http://www.w3.org/2000/svg" xmlns:xlink="http://www.w3.org/1999/xlink">
 <defs>
  <style type="text/css">
*{stroke-linecap:butt;stroke-linejoin:round;}
  </style>
 </defs>
 <g id="figure_1">
  <g id="patch_1">
   <path d="M 0 119.055118 
L 136.062992 119.055118 
L 136.062992 0 
L 0 0 
z
" style="fill:none;"/>
  </g>
  <g id="axes_1">
   <g id="patch_2">
    <path d="M 45.354331 70.866142 
L 124.724409 70.866142 
L 124.724409 14.173228 
L 45.354331 14.173228 
z
" style="fill:none;"/>
   </g>
   <g id="matplotlib.axis_1">
    <g id="xtick_1">
     <g id="line2d_1">
      <defs>
       <path d="M 0 0 
L 0 4 
" id="mdbbbb13cfc" style="stroke:#000000;stroke-width:0.8;"/>
      </defs>
      <g>
       <use style="stroke:#000000;stroke-width:0.8;" x="49.66946" xlink:href="#mdbbbb13cfc" y="73.866142"/>
      </g>
     </g>
     <g id="text_1">
      <!-- 0 -->
      <defs>
       <path d="M 31.78125 66.40625 
Q 24.171875 66.40625 20.328125 58.90625 
Q 16.5 51.421875 16.5 36.375 
Q 16.5 21.390625 20.328125 13.890625 
Q 24.171875 6.390625 31.78125 6.390625 
Q 39.453125 6.390625 43.28125 13.890625 
Q 47.125 21.390625 47.125 36.375 
Q 47.125 51.421875 43.28125 58.90625 
Q 39.453125 66.40625 31.78125 66.40625 
z
M 31.78125 74.21875 
Q 44.046875 74.21875 50.515625 64.515625 
Q 56.984375 54.828125 56.984375 36.375 
Q 56.984375 17.96875 50.515625 8.265625 
Q 44.046875 -1.421875 31.78125 -1.421875 
Q 19.53125 -1.421875 13.0625 8.265625 
Q 6.59375 17.96875 6.59375 36.375 
Q 6.59375 54.828125 13.0625 64.515625 
Q 19.53125 74.21875 31.78125 74.21875 
z
" id="DejaVuSans-48"/>
      </defs>
      <g transform="translate(46.806335 88.204735)scale(0.09 -0.09)">
       <use xlink:href="#DejaVuSans-48"/>
      </g>
     </g>
    </g>
    <g id="xtick_2">
     <g id="line2d_2">
      <g>
       <use style="stroke:#000000;stroke-width:0.8;" x="81.10938" xlink:href="#mdbbbb13cfc" y="73.866142"/>
      </g>
     </g>
     <g id="text_2">
      <!-- 4 -->
      <defs>
       <path d="M 37.796875 64.3125 
L 12.890625 25.390625 
L 37.796875 25.390625 
z
M 35.203125 72.90625 
L 47.609375 72.90625 
L 47.609375 25.390625 
L 58.015625 25.390625 
L 58.015625 17.1875 
L 47.609375 17.1875 
L 47.609375 0 
L 37.796875 0 
L 37.796875 17.1875 
L 4.890625 17.1875 
L 4.890625 26.703125 
z
" id="DejaVuSans-52"/>
      </defs>
      <g transform="translate(78.246255 88.204735)scale(0.09 -0.09)">
       <use xlink:href="#DejaVuSans-52"/>
      </g>
     </g>
    </g>
    <g id="xtick_3">
     <g id="line2d_3">
      <g>
       <use style="stroke:#000000;stroke-width:0.8;" x="112.5493" xlink:href="#mdbbbb13cfc" y="73.866142"/>
      </g>
     </g>
     <g id="text_3">
      <!-- 8 -->
      <defs>
       <path d="M 31.78125 34.625 
Q 24.75 34.625 20.71875 30.859375 
Q 16.703125 27.09375 16.703125 20.515625 
Q 16.703125 13.921875 20.71875 10.15625 
Q 24.75 6.390625 31.78125 6.390625 
Q 38.8125 6.390625 42.859375 10.171875 
Q 46.921875 13.96875 46.921875 20.515625 
Q 46.921875 27.09375 42.890625 30.859375 
Q 38.875 34.625 31.78125 34.625 
z
M 21.921875 38.8125 
Q 15.578125 40.375 12.03125 44.71875 
Q 8.5 49.078125 8.5 55.328125 
Q 8.5 64.0625 14.71875 69.140625 
Q 20.953125 74.21875 31.78125 74.21875 
Q 42.671875 74.21875 48.875 69.140625 
Q 55.078125 64.0625 55.078125 55.328125 
Q 55.078125 49.078125 51.53125 44.71875 
Q 48 40.375 41.703125 38.8125 
Q 48.828125 37.15625 52.796875 32.3125 
Q 56.78125 27.484375 56.78125 20.515625 
Q 56.78125 9.90625 50.3125 4.234375 
Q 43.84375 -1.421875 31.78125 -1.421875 
Q 19.734375 -1.421875 13.25 4.234375 
Q 6.78125 9.90625 6.78125 20.515625 
Q 6.78125 27.484375 10.78125 32.3125 
Q 14.796875 37.15625 21.921875 38.8125 
z
M 18.3125 54.390625 
Q 18.3125 48.734375 21.84375 45.5625 
Q 25.390625 42.390625 31.78125 42.390625 
Q 38.140625 42.390625 41.71875 45.5625 
Q 45.3125 48.734375 45.3125 54.390625 
Q 45.3125 60.0625 41.71875 63.234375 
Q 38.140625 66.40625 31.78125 66.40625 
Q 25.390625 66.40625 21.84375 63.234375 
Q 18.3125 60.0625 18.3125 54.390625 
z
" id="DejaVuSans-56"/>
      </defs>
      <g transform="translate(109.686175 88.204735)scale(0.09 -0.09)">
       <use xlink:href="#DejaVuSans-56"/>
      </g>
     </g>
    </g>
    <g id="text_4">
     <!-- xlabel (xunit) -->
     <defs>
      <path d="M 54.890625 54.6875 
L 35.109375 28.078125 
L 55.90625 0 
L 45.3125 0 
L 29.390625 21.484375 
L 13.484375 0 
L 2.875 0 
L 24.125 28.609375 
L 4.6875 54.6875 
L 15.28125 54.6875 
L 29.78125 35.203125 
L 44.28125 54.6875 
z
" id="DejaVuSans-120"/>
      <path d="M 9.421875 75.984375 
L 18.40625 75.984375 
L 18.40625 0 
L 9.421875 0 
z
" id="DejaVuSans-108"/>
      <path d="M 34.28125 27.484375 
Q 23.390625 27.484375 19.1875 25 
Q 14.984375 22.515625 14.984375 16.5 
Q 14.984375 11.71875 18.140625 8.90625 
Q 21.296875 6.109375 26.703125 6.109375 
Q 34.1875 6.109375 38.703125 11.40625 
Q 43.21875 16.703125 43.21875 25.484375 
L 43.21875 27.484375 
z
M 52.203125 31.203125 
L 52.203125 0 
L 43.21875 0 
L 43.21875 8.296875 
Q 40.140625 3.328125 35.546875 0.953125 
Q 30.953125 -1.421875 24.3125 -1.421875 
Q 15.921875 -1.421875 10.953125 3.296875 
Q 6 8.015625 6 15.921875 
Q 6 25.140625 12.171875 29.828125 
Q 18.359375 34.515625 30.609375 34.515625 
L 43.21875 34.515625 
L 43.21875 35.40625 
Q 43.21875 41.609375 39.140625 45 
Q 35.0625 48.390625 27.6875 48.390625 
Q 23 48.390625 18.546875 47.265625 
Q 14.109375 46.140625 10.015625 43.890625 
L 10.015625 52.203125 
Q 14.9375 54.109375 19.578125 55.046875 
Q 24.21875 56 28.609375 56 
Q 40.484375 56 46.34375 49.84375 
Q 52.203125 43.703125 52.203125 31.203125 
z
" id="DejaVuSans-97"/>
      <path d="M 48.6875 27.296875 
Q 48.6875 37.203125 44.609375 42.84375 
Q 40.53125 48.484375 33.40625 48.484375 
Q 26.265625 48.484375 22.1875 42.84375 
Q 18.109375 37.203125 18.109375 27.296875 
Q 18.109375 17.390625 22.1875 11.75 
Q 26.265625 6.109375 33.40625 6.109375 
Q 40.53125 6.109375 44.609375 11.75 
Q 48.6875 17.390625 48.6875 27.296875 
z
M 18.109375 46.390625 
Q 20.953125 51.265625 25.265625 53.625 
Q 29.59375 56 35.59375 56 
Q 45.5625 56 51.78125 48.09375 
Q 58.015625 40.1875 58.015625 27.296875 
Q 58.015625 14.40625 51.78125 6.484375 
Q 45.5625 -1.421875 35.59375 -1.421875 
Q 29.59375 -1.421875 25.265625 0.953125 
Q 20.953125 3.328125 18.109375 8.203125 
L 18.109375 0 
L 9.078125 0 
L 9.078125 75.984375 
L 18.109375 75.984375 
z
" id="DejaVuSans-98"/>
      <path d="M 56.203125 29.59375 
L 56.203125 25.203125 
L 14.890625 25.203125 
Q 15.484375 15.921875 20.484375 11.0625 
Q 25.484375 6.203125 34.421875 6.203125 
Q 39.59375 6.203125 44.453125 7.46875 
Q 49.3125 8.734375 54.109375 11.28125 
L 54.109375 2.78125 
Q 49.265625 0.734375 44.1875 -0.34375 
Q 39.109375 -1.421875 33.890625 -1.421875 
Q 20.796875 -1.421875 13.15625 6.1875 
Q 5.515625 13.8125 5.515625 26.8125 
Q 5.515625 40.234375 12.765625 48.109375 
Q 20.015625 56 32.328125 56 
Q 43.359375 56 49.78125 48.890625 
Q 56.203125 41.796875 56.203125 29.59375 
z
M 47.21875 32.234375 
Q 47.125 39.59375 43.09375 43.984375 
Q 39.0625 48.390625 32.421875 48.390625 
Q 24.90625 48.390625 20.390625 44.140625 
Q 15.875 39.890625 15.1875 32.171875 
z
" id="DejaVuSans-101"/>
      <path id="DejaVuSans-32"/>
      <path d="M 31 75.875 
Q 24.46875 64.65625 21.28125 53.65625 
Q 18.109375 42.671875 18.109375 31.390625 
Q 18.109375 20.125 21.3125 9.0625 
Q 24.515625 -2 31 -13.1875 
L 23.1875 -13.1875 
Q 15.875 -1.703125 12.234375 9.375 
Q 8.59375 20.453125 8.59375 31.390625 
Q 8.59375 42.28125 12.203125 53.3125 
Q 15.828125 64.359375 23.1875 75.875 
z
" id="DejaVuSans-40"/>
      <path d="M 8.5 21.578125 
L 8.5 54.6875 
L 17.484375 54.6875 
L 17.484375 21.921875 
Q 17.484375 14.15625 20.5 10.265625 
Q 23.53125 6.390625 29.59375 6.390625 
Q 36.859375 6.390625 41.078125 11.03125 
Q 45.3125 15.671875 45.3125 23.6875 
L 45.3125 54.6875 
L 54.296875 54.6875 
L 54.296875 0 
L 45.3125 0 
L 45.3125 8.40625 
Q 42.046875 3.421875 37.71875 1 
Q 33.40625 -1.421875 27.6875 -1.421875 
Q 18.265625 -1.421875 13.375 4.4375 
Q 8.5 10.296875 8.5 21.578125 
z
M 31.109375 56 
z
" id="DejaVuSans-117"/>
      <path d="M 54.890625 33.015625 
L 54.890625 0 
L 45.90625 0 
L 45.90625 32.71875 
Q 45.90625 40.484375 42.875 44.328125 
Q 39.84375 48.1875 33.796875 48.1875 
Q 26.515625 48.1875 22.3125 43.546875 
Q 18.109375 38.921875 18.109375 30.90625 
L 18.109375 0 
L 9.078125 0 
L 9.078125 54.6875 
L 18.109375 54.6875 
L 18.109375 46.1875 
Q 21.34375 51.125 25.703125 53.5625 
Q 30.078125 56 35.796875 56 
Q 45.21875 56 50.046875 50.171875 
Q 54.890625 44.34375 54.890625 33.015625 
z
" id="DejaVuSans-110"/>
      <path d="M 9.421875 54.6875 
L 18.40625 54.6875 
L 18.40625 0 
L 9.421875 0 
z
M 9.421875 75.984375 
L 18.40625 75.984375 
L 18.40625 64.59375 
L 9.421875 64.59375 
z
" id="DejaVuSans-105"/>
      <path d="M 18.3125 70.21875 
L 18.3125 54.6875 
L 36.8125 54.6875 
L 36.8125 47.703125 
L 18.3125 47.703125 
L 18.3125 18.015625 
Q 18.3125 11.328125 20.140625 9.421875 
Q 21.96875 7.515625 27.59375 7.515625 
L 36.8125 7.515625 
L 36.8125 0 
L 27.59375 0 
Q 17.1875 0 13.234375 3.875 
Q 9.28125 7.765625 9.28125 18.015625 
L 9.28125 47.703125 
L 2.6875 47.703125 
L 2.6875 54.6875 
L 9.28125 54.6875 
L 9.28125 70.21875 
z
" id="DejaVuSans-116"/>
      <path d="M 8.015625 75.875 
L 15.828125 75.875 
Q 23.140625 64.359375 26.78125 53.3125 
Q 30.421875 42.28125 30.421875 31.390625 
Q 30.421875 20.453125 26.78125 9.375 
Q 23.140625 -1.703125 15.828125 -13.1875 
L 8.015625 -13.1875 
Q 14.5 -2 17.703125 9.0625 
Q 20.90625 20.125 20.90625 31.390625 
Q 20.90625 42.671875 17.703125 53.65625 
Q 14.5 64.65625 8.015625 75.875 
z
" id="DejaVuSans-41"/>
     </defs>
     <g transform="translate(55.169214 98.415048)scale(0.09 -0.09)">
      <use xlink:href="#DejaVuSans-120"/>
      <use x="59.179688" xlink:href="#DejaVuSans-108"/>
      <use x="86.962891" xlink:href="#DejaVuSans-97"/>
      <use x="148.242188" xlink:href="#DejaVuSans-98"/>
      <use x="211.71875" xlink:href="#DejaVuSans-101"/>
      <use x="273.242188" xlink:href="#DejaVuSans-108"/>
      <use x="301.025391" xlink:href="#DejaVuSans-32"/>
      <use x="332.8125" xlink:href="#DejaVuSans-40"/>
      <use x="371.826172" xlink:href="#DejaVuSans-120"/>
      <use x="431.005859" xlink:href="#DejaVuSans-117"/>
      <use x="494.384766" xlink:href="#DejaVuSans-110"/>
      <use x="557.763672" xlink:href="#DejaVuSans-105"/>
      <use x="585.546875" xlink:href="#DejaVuSans-116"/>
      <use x="624.755859" xlink:href="#DejaVuSans-41"/>
     </g>
    </g>
   </g>
   <g id="matplotlib.axis_2">
    <g id="ytick_1">
     <g id="line2d_4">
      <defs>
       <path d="M 0 0 
L -4 0 
" id="mab1add1baa" style="stroke:#000000;stroke-width:0.8;"/>
      </defs>
      <g>
       <use style="stroke:#000000;stroke-width:0.8;" x="42.354331" xlink:href="#mab1add1baa" y="64.137301"/>
      </g>
     </g>
     <g id="text_5">
      <!-- −3 -->
      <defs>
       <path d="M 10.59375 35.5 
L 73.1875 35.5 
L 73.1875 27.203125 
L 10.59375 27.203125 
z
" id="DejaVuSans-8722"/>
       <path d="M 40.578125 39.3125 
Q 47.65625 37.796875 51.625 33 
Q 55.609375 28.21875 55.609375 21.1875 
Q 55.609375 10.40625 48.1875 4.484375 
Q 40.765625 -1.421875 27.09375 -1.421875 
Q 22.515625 -1.421875 17.65625 -0.515625 
Q 12.796875 0.390625 7.625 2.203125 
L 7.625 11.71875 
Q 11.71875 9.328125 16.59375 8.109375 
Q 21.484375 6.890625 26.8125 6.890625 
Q 36.078125 6.890625 40.9375 10.546875 
Q 45.796875 14.203125 45.796875 21.1875 
Q 45.796875 27.640625 41.28125 31.265625 
Q 36.765625 34.90625 28.71875 34.90625 
L 20.21875 34.90625 
L 20.21875 43.015625 
L 29.109375 43.015625 
Q 36.375 43.015625 40.234375 45.921875 
Q 44.09375 48.828125 44.09375 54.296875 
Q 44.09375 59.90625 40.109375 62.90625 
Q 36.140625 65.921875 28.71875 65.921875 
Q 24.65625 65.921875 20.015625 65.03125 
Q 15.375 64.15625 9.8125 62.3125 
L 9.8125 71.09375 
Q 15.4375 72.65625 20.34375 73.4375 
Q 25.25 74.21875 29.59375 74.21875 
Q 40.828125 74.21875 47.359375 69.109375 
Q 53.90625 64.015625 53.90625 55.328125 
Q 53.90625 49.265625 50.4375 45.09375 
Q 46.96875 40.921875 40.578125 39.3125 
z
" id="DejaVuSans-51"/>
      </defs>
      <g transform="translate(21.586362 67.556598)scale(0.09 -0.09)">
       <use xlink:href="#DejaVuSans-8722"/>
       <use x="83.789062" xlink:href="#DejaVuSans-51"/>
      </g>
     </g>
    </g>
    <g id="ytick_2">
     <g id="line2d_5">
      <g>
       <use style="stroke:#000000;stroke-width:0.8;" x="42.354331" xlink:href="#mab1add1baa" y="42.653565"/>
      </g>
     </g>
     <g id="text_6">
      <!-- 0 -->
      <g transform="translate(29.128081 46.072862)scale(0.09 -0.09)">
       <use xlink:href="#DejaVuSans-48"/>
      </g>
     </g>
    </g>
    <g id="ytick_3">
     <g id="line2d_6">
      <g>
       <use style="stroke:#000000;stroke-width:0.8;" x="42.354331" xlink:href="#mab1add1baa" y="21.169829"/>
      </g>
     </g>
     <g id="text_7">
      <!-- 3 -->
      <g transform="translate(29.128081 24.589126)scale(0.09 -0.09)">
       <use xlink:href="#DejaVuSans-51"/>
      </g>
     </g>
    </g>
    <g id="text_8">
     <!-- ylabel (yunit) -->
     <defs>
      <path d="M 32.171875 -5.078125 
Q 28.375 -14.84375 24.75 -17.8125 
Q 21.140625 -20.796875 15.09375 -20.796875 
L 7.90625 -20.796875 
L 7.90625 -13.28125 
L 13.1875 -13.28125 
Q 16.890625 -13.28125 18.9375 -11.515625 
Q 21 -9.765625 23.484375 -3.21875 
L 25.09375 0.875 
L 2.984375 54.6875 
L 12.5 54.6875 
L 29.59375 11.921875 
L 46.6875 54.6875 
L 56.203125 54.6875 
z
" id="DejaVuSans-121"/>
     </defs>
     <g transform="translate(18.214643 72.389841)rotate(-90)scale(0.09 -0.09)">
      <use xlink:href="#DejaVuSans-121"/>
      <use x="59.179688" xlink:href="#DejaVuSans-108"/>
      <use x="86.962891" xlink:href="#DejaVuSans-97"/>
      <use x="148.242188" xlink:href="#DejaVuSans-98"/>
      <use x="211.71875" xlink:href="#DejaVuSans-101"/>
      <use x="273.242188" xlink:href="#DejaVuSans-108"/>
      <use x="301.025391" xlink:href="#DejaVuSans-32"/>
      <use x="332.8125" xlink:href="#DejaVuSans-40"/>
      <use x="371.826172" xlink:href="#DejaVuSans-121"/>
      <use x="431.005859" xlink:href="#DejaVuSans-117"/>
      <use x="494.384766" xlink:href="#DejaVuSans-110"/>
      <use x="557.763672" xlink:href="#DejaVuSans-105"/>
      <use x="585.546875" xlink:href="#DejaVuSans-116"/>
      <use x="624.755859" xlink:href="#DejaVuSans-41"/>
     </g>
    </g>
   </g>
   <g id="LineCollection_1">
    <path clip-path="url(#pc73aacdede)" d="M 49.66946 34.966679 
L 49.66946 58.307612 
" style="fill:none;stroke:#440154;"/>
    <path clip-path="url(#pc73aacdede)" d="M 57.52944 41.183407 
L 57.52944 62.869481 
" style="fill:none;stroke:#440154;"/>
    <path clip-path="url(#pc73aacdede)" d="M 65.38942 44.385171 
L 65.38942 48.97223 
" style="fill:none;stroke:#440154;"/>
    <path clip-path="url(#pc73aacdede)" d="M 73.2494 35.812139 
L 73.2494 55.71282 
" style="fill:none;stroke:#440154;"/>
    <path clip-path="url(#pc73aacdede)" d="M 81.10938 32.37152 
L 81.10938 37.307917 
" style="fill:none;stroke:#440154;"/>
    <path clip-path="url(#pc73aacdede)" d="M 88.96936 39.687504 
L 88.96936 23.732869 
" style="fill:none;stroke:#440154;"/>
    <path clip-path="url(#pc73aacdede)" d="M 96.82934 48.873448 
L 96.82934 20.178409 
" style="fill:none;stroke:#440154;"/>
    <path clip-path="url(#pc73aacdede)" d="M 104.68932 17.255463 
L 104.68932 34.773435 
" style="fill:none;stroke:#440154;"/>
    <path clip-path="url(#pc73aacdede)" d="M 112.5493 35.012765 
L 112.5493 44.134461 
" style="fill:none;stroke:#440154;"/>
    <path clip-path="url(#pc73aacdede)" d="M 120.40928 30.330768 
L 120.40928 47.613864 
" style="fill:none;stroke:#440154;"/>
   </g>
   <g id="LineCollection_2">
    <path clip-path="url(#pc73aacdede)" d="M 49.66946 44.984626 
L 49.66946 30.022717 
" style="fill:none;stroke:#31688e;"/>
    <path clip-path="url(#pc73aacdede)" d="M 57.52944 22.405351 
L 57.52944 60.740134 
" style="fill:none;stroke:#31688e;"/>
    <path clip-path="url(#pc73aacdede)" d="M 65.38942 18.569214 
L 65.38942 38.413109 
" style="fill:none;stroke:#31688e;"/>
    <path clip-path="url(#pc73aacdede)" d="M 73.2494 44.79101 
L 73.2494 39.819854 
" style="fill:none;stroke:#31688e;"/>
    <path clip-path="url(#pc73aacdede)" d="M 81.10938 39.524028 
L 81.10938 44.310775 
" style="fill:none;stroke:#31688e;"/>
    <path clip-path="url(#pc73aacdede)" d="M 88.96936 33.458152 
L 88.96936 45.259059 
" style="fill:none;stroke:#31688e;"/>
    <path clip-path="url(#pc73aacdede)" d="M 96.82934 26.44774 
L 96.82934 23.328278 
" style="fill:none;stroke:#31688e;"/>
    <path clip-path="url(#pc73aacdede)" d="M 104.68932 27.586335 
L 104.68932 44.127466 
" style="fill:none;stroke:#31688e;"/>
    <path clip-path="url(#pc73aacdede)" d="M 112.5493 46.799574 
L 112.5493 53.788604 
" style="fill:none;stroke:#31688e;"/>
    <path clip-path="url(#pc73aacdede)" d="M 120.40928 39.237266 
L 120.40928 51.395185 
" style="fill:none;stroke:#31688e;"/>
   </g>
   <g id="LineCollection_3">
    <path clip-path="url(#pc73aacdede)" d="M 49.66946 28.125889 
L 49.66946 46.572319 
" style="fill:none;stroke:#35b779;"/>
    <path clip-path="url(#pc73aacdede)" d="M 57.52944 43.867742 
L 57.52944 43.293466 
" style="fill:none;stroke:#35b779;"/>
    <path clip-path="url(#pc73aacdede)" d="M 65.38942 44.080388 
L 65.38942 32.915459 
" style="fill:none;stroke:#35b779;"/>
    <path clip-path="url(#pc73aacdede)" d="M 73.2494 39.590376 
L 73.2494 53.37288 
" style="fill:none;stroke:#35b779;"/>
    <path clip-path="url(#pc73aacdede)" d="M 81.10938 46.604813 
L 81.10938 42.477 
" style="fill:none;stroke:#35b779;"/>
    <path clip-path="url(#pc73aacdede)" d="M 88.96936 39.104344 
L 88.96936 56.111692 
" style="fill:none;stroke:#35b779;"/>
    <path clip-path="url(#pc73aacdede)" d="M 96.82934 53.945894 
L 96.82934 18.124954 
" style="fill:none;stroke:#35b779;"/>
    <path clip-path="url(#pc73aacdede)" d="M 104.68932 28.82762 
L 104.68932 41.706752 
" style="fill:none;stroke:#35b779;"/>
    <path clip-path="url(#pc73aacdede)" d="M 112.5493 56.78605 
L 112.5493 24.693356 
" style="fill:none;stroke:#35b779;"/>
    <path clip-path="url(#pc73aacdede)" d="M 120.40928 47.63121 
L 120.40928 46.5437 
" style="fill:none;stroke:#35b779;"/>
   </g>
   <g id="LineCollection_4">
    <path clip-path="url(#pc73aacdede)" d="M 49.66946 50.589595 
L 49.66946 44.527353 
" style="fill:none;stroke:#fde725;"/>
    <path clip-path="url(#pc73aacdede)" d="M 57.52944 21.387256 
L 57.52944 29.183061 
" style="fill:none;stroke:#fde725;"/>
    <path clip-path="url(#pc73aacdede)" d="M 65.38942 38.132956 
L 65.38942 36.670904 
" style="fill:none;stroke:#fde725;"/>
    <path clip-path="url(#pc73aacdede)" d="M 73.2494 50.55811 
L 73.2494 50.191043 
" style="fill:none;stroke:#fde725;"/>
    <path clip-path="url(#pc73aacdede)" d="M 81.10938 39.115565 
L 81.10938 24.07699 
" style="fill:none;stroke:#fde725;"/>
    <path clip-path="url(#pc73aacdede)" d="M 88.96936 33.93727 
L 88.96936 38.04771 
" style="fill:none;stroke:#fde725;"/>
    <path clip-path="url(#pc73aacdede)" d="M 96.82934 43.713126 
L 96.82934 42.036597 
" style="fill:none;stroke:#fde725;"/>
    <path clip-path="url(#pc73aacdede)" d="M 104.68932 45.259853 
L 104.68932 33.867415 
" style="fill:none;stroke:#fde725;"/>
    <path clip-path="url(#pc73aacdede)" d="M 112.5493 59.9898 
L 112.5493 44.924126 
" style="fill:none;stroke:#fde725;"/>
    <path clip-path="url(#pc73aacdede)" d="M 120.40928 67.783907 
L 120.40928 33.330624 
" style="fill:none;stroke:#fde725;"/>
   </g>
   <g id="line2d_7">
    <defs>
     <path d="M 0 0.00025 
C 0.000066 0.00025 0.00013 0.000224 0.000177 0.000177 
C 0.000224 0.00013 0.00025 0.000066 0.00025 0 
C 0.00025 -0.000066 0.000224 -0.00013 0.000177 -0.000177 
C 0.00013 -0.000224 0.000066 -0.00025 0 -0.00025 
C -0.000066 -0.00025 -0.00013 -0.000224 -0.000177 -0.000177 
C -0.000224 -0.00013 -0.00025 -0.000066 -0.00025 0 
C -0.00025 0.000066 -0.000224 0.00013 -0.000177 0.000177 
C -0.00013 0.000224 -0.000066 0.00025 0 0.00025 
z
" id="m9f49df5a2c" style="stroke:#ffffff;stroke-opacity:0.001;"/>
    </defs>
    <g clip-path="url(#pc73aacdede)">
     <use style="fill:#ffffff;fill-opacity:0.001;stroke:#ffffff;stroke-opacity:0.001;" x="85.03937" xlink:href="#m9f49df5a2c" y="70.866142"/>
     <use style="fill:#ffffff;fill-opacity:0.001;stroke:#ffffff;stroke-opacity:0.001;" x="85.03937" xlink:href="#m9f49df5a2c" y="14.173228"/>
    </g>
   </g>
   <g id="line2d_8">
    <g clip-path="url(#pc73aacdede)">
     <use style="fill:#ffffff;fill-opacity:0.001;stroke:#ffffff;stroke-opacity:0.001;" x="45.354331" xlink:href="#m9f49df5a2c" y="42.519685"/>
     <use style="fill:#ffffff;fill-opacity:0.001;stroke:#ffffff;stroke-opacity:0.001;" x="124.724409" xlink:href="#m9f49df5a2c" y="42.519685"/>
    </g>
   </g>
   <g id="line2d_9">
    <path clip-path="url(#pc73aacdede)" d="M 49.66946 46.637145 
L 57.52944 52.026444 
L 65.38942 46.6787 
L 73.2494 45.762479 
L 81.10938 34.839718 
L 88.96936 31.710186 
L 96.82934 34.525929 
L 104.68932 26.014449 
L 112.5493 39.573613 
L 120.40928 38.972316 
" style="fill:none;"/>
    <defs>
     <path d="M 0 1.5 
C 0.397805 1.5 0.77937 1.341951 1.06066 1.06066 
C 1.341951 0.77937 1.5 0.397805 1.5 0 
C 1.5 -0.397805 1.341951 -0.77937 1.06066 -1.06066 
C 0.77937 -1.341951 0.397805 -1.5 0 -1.5 
C -0.397805 -1.5 -0.77937 -1.341951 -1.06066 -1.06066 
C -1.341951 -0.77937 -1.5 -0.397805 -1.5 0 
C -1.5 0.397805 -1.341951 0.77937 -1.06066 1.06066 
C -0.77937 1.341951 -0.397805 1.5 0 1.5 
z
" id="md2219a35ac" style="stroke:#440154;"/>
    </defs>
    <g clip-path="url(#pc73aacdede)">
     <use style="fill:#440154;stroke:#440154;" x="49.66946" xlink:href="#md2219a35ac" y="46.637145"/>
     <use style="fill:#440154;stroke:#440154;" x="57.52944" xlink:href="#md2219a35ac" y="52.026444"/>
     <use style="fill:#440154;stroke:#440154;" x="65.38942" xlink:href="#md2219a35ac" y="46.6787"/>
     <use style="fill:#440154;stroke:#440154;" x="73.2494" xlink:href="#md2219a35ac" y="45.762479"/>
     <use style="fill:#440154;stroke:#440154;" x="81.10938" xlink:href="#md2219a35ac" y="34.839718"/>
     <use style="fill:#440154;stroke:#440154;" x="88.96936" xlink:href="#md2219a35ac" y="31.710186"/>
     <use style="fill:#440154;stroke:#440154;" x="96.82934" xlink:href="#md2219a35ac" y="34.525929"/>
     <use style="fill:#440154;stroke:#440154;" x="104.68932" xlink:href="#md2219a35ac" y="26.014449"/>
     <use style="fill:#440154;stroke:#440154;" x="112.5493" xlink:href="#md2219a35ac" y="39.573613"/>
     <use style="fill:#440154;stroke:#440154;" x="120.40928" xlink:href="#md2219a35ac" y="38.972316"/>
    </g>
   </g>
   <g id="line2d_10">
    <path clip-path="url(#pc73aacdede)" d="M 49.66946 37.503672 
L 57.52944 41.572742 
L 65.38942 28.491162 
L 73.2494 42.305432 
L 81.10938 41.917402 
L 88.96936 39.358605 
L 96.82934 24.888009 
L 104.68932 35.856901 
L 112.5493 50.294089 
L 120.40928 45.316226 
" style="fill:none;"/>
    <defs>
     <path d="M 0 1.5 
C 0.397805 1.5 0.77937 1.341951 1.06066 1.06066 
C 1.341951 0.77937 1.5 0.397805 1.5 0 
C 1.5 -0.397805 1.341951 -0.77937 1.06066 -1.06066 
C 0.77937 -1.341951 0.397805 -1.5 0 -1.5 
C -0.397805 -1.5 -0.77937 -1.341951 -1.06066 -1.06066 
C -1.341951 -0.77937 -1.5 -0.397805 -1.5 0 
C -1.5 0.397805 -1.341951 0.77937 -1.06066 1.06066 
C -0.77937 1.341951 -0.397805 1.5 0 1.5 
z
" id="m3c2d098640" style="stroke:#31688e;"/>
    </defs>
    <g clip-path="url(#pc73aacdede)">
     <use style="fill:#31688e;stroke:#31688e;" x="49.66946" xlink:href="#m3c2d098640" y="37.503672"/>
     <use style="fill:#31688e;stroke:#31688e;" x="57.52944" xlink:href="#m3c2d098640" y="41.572742"/>
     <use style="fill:#31688e;stroke:#31688e;" x="65.38942" xlink:href="#m3c2d098640" y="28.491162"/>
     <use style="fill:#31688e;stroke:#31688e;" x="73.2494" xlink:href="#m3c2d098640" y="42.305432"/>
     <use style="fill:#31688e;stroke:#31688e;" x="81.10938" xlink:href="#m3c2d098640" y="41.917402"/>
     <use style="fill:#31688e;stroke:#31688e;" x="88.96936" xlink:href="#m3c2d098640" y="39.358605"/>
     <use style="fill:#31688e;stroke:#31688e;" x="96.82934" xlink:href="#m3c2d098640" y="24.888009"/>
     <use style="fill:#31688e;stroke:#31688e;" x="104.68932" xlink:href="#m3c2d098640" y="35.856901"/>
     <use style="fill:#31688e;stroke:#31688e;" x="112.5493" xlink:href="#m3c2d098640" y="50.294089"/>
     <use style="fill:#31688e;stroke:#31688e;" x="120.40928" xlink:href="#m3c2d098640" y="45.316226"/>
    </g>
   </g>
   <g id="line2d_11">
    <path clip-path="url(#pc73aacdede)" d="M 49.66946 37.349104 
L 57.52944 43.580604 
L 65.38942 38.497923 
L 73.2494 46.481628 
L 81.10938 44.540907 
L 88.96936 47.608018 
L 96.82934 36.035424 
L 104.68932 35.267186 
L 112.5493 40.739703 
L 120.40928 47.087455 
" style="fill:none;"/>
    <defs>
     <path d="M 0 1.5 
C 0.397805 1.5 0.77937 1.341951 1.06066 1.06066 
C 1.341951 0.77937 1.5 0.397805 1.5 0 
C 1.5 -0.397805 1.341951 -0.77937 1.06066 -1.06066 
C 0.77937 -1.341951 0.397805 -1.5 0 -1.5 
C -0.397805 -1.5 -0.77937 -1.341951 -1.06066 -1.06066 
C -1.341951 -0.77937 -1.5 -0.397805 -1.5 0 
C -1.5 0.397805 -1.341951 0.77937 -1.06066 1.06066 
C -0.77937 1.341951 -0.397805 1.5 0 1.5 
z
" id="med61bafd82" style="stroke:#35b779;"/>
    </defs>
    <g clip-path="url(#pc73aacdede)">
     <use style="fill:#35b779;stroke:#35b779;" x="49.66946" xlink:href="#med61bafd82" y="37.349104"/>
     <use style="fill:#35b779;stroke:#35b779;" x="57.52944" xlink:href="#med61bafd82" y="43.580604"/>
     <use style="fill:#35b779;stroke:#35b779;" x="65.38942" xlink:href="#med61bafd82" y="38.497923"/>
     <use style="fill:#35b779;stroke:#35b779;" x="73.2494" xlink:href="#med61bafd82" y="46.481628"/>
     <use style="fill:#35b779;stroke:#35b779;" x="81.10938" xlink:href="#med61bafd82" y="44.540907"/>
     <use style="fill:#35b779;stroke:#35b779;" x="88.96936" xlink:href="#med61bafd82" y="47.608018"/>
     <use style="fill:#35b779;stroke:#35b779;" x="96.82934" xlink:href="#med61bafd82" y="36.035424"/>
     <use style="fill:#35b779;stroke:#35b779;" x="104.68932" xlink:href="#med61bafd82" y="35.267186"/>
     <use style="fill:#35b779;stroke:#35b779;" x="112.5493" xlink:href="#med61bafd82" y="40.739703"/>
     <use style="fill:#35b779;stroke:#35b779;" x="120.40928" xlink:href="#med61bafd82" y="47.087455"/>
    </g>
   </g>
   <g id="line2d_12">
    <path clip-path="url(#pc73aacdede)" d="M 49.66946 47.558474 
L 57.52944 25.285158 
L 65.38942 37.40193 
L 73.2494 50.374576 
L 81.10938 31.596277 
L 88.96936 35.99249 
L 96.82934 42.874861 
L 104.68932 39.563634 
L 112.5493 52.456963 
L 120.40928 50.557265 
" style="fill:none;"/>
    <defs>
     <path d="M 0 1.5 
C 0.397805 1.5 0.77937 1.341951 1.06066 1.06066 
C 1.341951 0.77937 1.5 0.397805 1.5 0 
C 1.5 -0.397805 1.341951 -0.77937 1.06066 -1.06066 
C 0.77937 -1.341951 0.397805 -1.5 0 -1.5 
C -0.397805 -1.5 -0.77937 -1.341951 -1.06066 -1.06066 
C -1.341951 -0.77937 -1.5 -0.397805 -1.5 0 
C -1.5 0.397805 -1.341951 0.77937 -1.06066 1.06066 
C -0.77937 1.341951 -0.397805 1.5 0 1.5 
z
" id="m0a6b23e4fa" style="stroke:#fde725;"/>
    </defs>
    <g clip-path="url(#pc73aacdede)">
     <use style="fill:#fde725;stroke:#fde725;" x="49.66946" xlink:href="#m0a6b23e4fa" y="47.558474"/>
     <use style="fill:#fde725;stroke:#fde725;" x="57.52944" xlink:href="#m0a6b23e4fa" y="25.285158"/>
     <use style="fill:#fde725;stroke:#fde725;" x="65.38942" xlink:href="#m0a6b23e4fa" y="37.40193"/>
     <use style="fill:#fde725;stroke:#fde725;" x="73.2494" xlink:href="#m0a6b23e4fa" y="50.374576"/>
     <use style="fill:#fde725;stroke:#fde725;" x="81.10938" xlink:href="#m0a6b23e4fa" y="31.596277"/>
     <use style="fill:#fde725;stroke:#fde725;" x="88.96936" xlink:href="#m0a6b23e4fa" y="35.99249"/>
     <use style="fill:#fde725;stroke:#fde725;" x="96.82934" xlink:href="#m0a6b23e4fa" y="42.874861"/>
     <use style="fill:#fde725;stroke:#fde725;" x="104.68932" xlink:href="#m0a6b23e4fa" y="39.563634"/>
     <use style="fill:#fde725;stroke:#fde725;" x="112.5493" xlink:href="#m0a6b23e4fa" y="52.456963"/>
     <use style="fill:#fde725;stroke:#fde725;" x="120.40928" xlink:href="#m0a6b23e4fa" y="50.557265"/>
    </g>
   </g>
   <g id="patch_3">
    <path d="M 42.354331 70.866142 
L 42.354331 14.173228 
" style="fill:none;stroke:#000000;stroke-linecap:square;stroke-linejoin:miter;stroke-width:0.8;"/>
   </g>
   <g id="patch_4">
    <path d="M 124.724409 70.866142 
L 124.724409 14.173228 
" style="fill:none;"/>
   </g>
   <g id="patch_5">
    <path d="M 45.354331 73.866142 
L 124.724409 73.866142 
" style="fill:none;stroke:#000000;stroke-linecap:square;stroke-linejoin:miter;stroke-width:0.8;"/>
   </g>
   <g id="patch_6">
    <path d="M 45.354331 14.173228 
L 124.724409 14.173228 
" style="fill:none;"/>
   </g>
   <g id="text_9">
    <!-- datavyz demo plot -->
    <defs>
     <path d="M 45.40625 46.390625 
L 45.40625 75.984375 
L 54.390625 75.984375 
L 54.390625 0 
L 45.40625 0 
L 45.40625 8.203125 
Q 42.578125 3.328125 38.25 0.953125 
Q 33.9375 -1.421875 27.875 -1.421875 
Q 17.96875 -1.421875 11.734375 6.484375 
Q 5.515625 14.40625 5.515625 27.296875 
Q 5.515625 40.1875 11.734375 48.09375 
Q 17.96875 56 27.875 56 
Q 33.9375 56 38.25 53.625 
Q 42.578125 51.265625 45.40625 46.390625 
z
M 14.796875 27.296875 
Q 14.796875 17.390625 18.875 11.75 
Q 22.953125 6.109375 30.078125 6.109375 
Q 37.203125 6.109375 41.296875 11.75 
Q 45.40625 17.390625 45.40625 27.296875 
Q 45.40625 37.203125 41.296875 42.84375 
Q 37.203125 48.484375 30.078125 48.484375 
Q 22.953125 48.484375 18.875 42.84375 
Q 14.796875 37.203125 14.796875 27.296875 
z
" id="DejaVuSans-100"/>
     <path d="M 2.984375 54.6875 
L 12.5 54.6875 
L 29.59375 8.796875 
L 46.6875 54.6875 
L 56.203125 54.6875 
L 35.6875 0 
L 23.484375 0 
z
" id="DejaVuSans-118"/>
     <path d="M 5.515625 54.6875 
L 48.1875 54.6875 
L 48.1875 46.484375 
L 14.40625 7.171875 
L 48.1875 7.171875 
L 48.1875 0 
L 4.296875 0 
L 4.296875 8.203125 
L 38.09375 47.515625 
L 5.515625 47.515625 
z
" id="DejaVuSans-122"/>
     <path d="M 52 44.1875 
Q 55.375 50.25 60.0625 53.125 
Q 64.75 56 71.09375 56 
Q 79.640625 56 84.28125 50.015625 
Q 88.921875 44.046875 88.921875 33.015625 
L 88.921875 0 
L 79.890625 0 
L 79.890625 32.71875 
Q 79.890625 40.578125 77.09375 44.375 
Q 74.3125 48.1875 68.609375 48.1875 
Q 61.625 48.1875 57.5625 43.546875 
Q 53.515625 38.921875 53.515625 30.90625 
L 53.515625 0 
L 44.484375 0 
L 44.484375 32.71875 
Q 44.484375 40.625 41.703125 44.40625 
Q 38.921875 48.1875 33.109375 48.1875 
Q 26.21875 48.1875 22.15625 43.53125 
Q 18.109375 38.875 18.109375 30.90625 
L 18.109375 0 
L 9.078125 0 
L 9.078125 54.6875 
L 18.109375 54.6875 
L 18.109375 46.1875 
Q 21.1875 51.21875 25.484375 53.609375 
Q 29.78125 56 35.6875 56 
Q 41.65625 56 45.828125 52.96875 
Q 50 49.953125 52 44.1875 
z
" id="DejaVuSans-109"/>
     <path d="M 30.609375 48.390625 
Q 23.390625 48.390625 19.1875 42.75 
Q 14.984375 37.109375 14.984375 27.296875 
Q 14.984375 17.484375 19.15625 11.84375 
Q 23.34375 6.203125 30.609375 6.203125 
Q 37.796875 6.203125 41.984375 11.859375 
Q 46.1875 17.53125 46.1875 27.296875 
Q 46.1875 37.015625 41.984375 42.703125 
Q 37.796875 48.390625 30.609375 48.390625 
z
M 30.609375 56 
Q 42.328125 56 49.015625 48.375 
Q 55.71875 40.765625 55.71875 27.296875 
Q 55.71875 13.875 49.015625 6.21875 
Q 42.328125 -1.421875 30.609375 -1.421875 
Q 18.84375 -1.421875 12.171875 6.21875 
Q 5.515625 13.875 5.515625 27.296875 
Q 5.515625 40.765625 12.171875 48.375 
Q 18.84375 56 30.609375 56 
z
" id="DejaVuSans-111"/>
     <path d="M 18.109375 8.203125 
L 18.109375 -20.796875 
L 9.078125 -20.796875 
L 9.078125 54.6875 
L 18.109375 54.6875 
L 18.109375 46.390625 
Q 20.953125 51.265625 25.265625 53.625 
Q 29.59375 56 35.59375 56 
Q 45.5625 56 51.78125 48.09375 
Q 58.015625 40.1875 58.015625 27.296875 
Q 58.015625 14.40625 51.78125 6.484375 
Q 45.5625 -1.421875 35.59375 -1.421875 
Q 29.59375 -1.421875 25.265625 0.953125 
Q 20.953125 3.328125 18.109375 8.203125 
z
M 48.6875 27.296875 
Q 48.6875 37.203125 44.609375 42.84375 
Q 40.53125 48.484375 33.40625 48.484375 
Q 26.265625 48.484375 22.1875 42.84375 
Q 18.109375 37.203125 18.109375 27.296875 
Q 18.109375 17.390625 22.1875 11.75 
Q 26.265625 6.109375 33.40625 6.109375 
Q 40.53125 6.109375 44.609375 11.75 
Q 48.6875 17.390625 48.6875 27.296875 
z
" id="DejaVuSans-112"/>
    </defs>
    <g transform="translate(42.967183 8.173228)scale(0.09 -0.09)">
     <use xlink:href="#DejaVuSans-100"/>
     <use x="63.476562" xlink:href="#DejaVuSans-97"/>
     <use x="124.755859" xlink:href="#DejaVuSans-116"/>
     <use x="163.964844" xlink:href="#DejaVuSans-97"/>
     <use x="225.244141" xlink:href="#DejaVuSans-118"/>
     <use x="284.423828" xlink:href="#DejaVuSans-121"/>
     <use x="343.603516" xlink:href="#DejaVuSans-122"/>
     <use x="396.09375" xlink:href="#DejaVuSans-32"/>
     <use x="427.880859" xlink:href="#DejaVuSans-100"/>
     <use x="491.357422" xlink:href="#DejaVuSans-101"/>
     <use x="552.880859" xlink:href="#DejaVuSans-109"/>
     <use x="650.292969" xlink:href="#DejaVuSans-111"/>
     <use x="711.474609" xlink:href="#DejaVuSans-32"/>
     <use x="743.261719" xlink:href="#DejaVuSans-112"/>
     <use x="806.738281" xlink:href="#DejaVuSans-108"/>
     <use x="834.521484" xlink:href="#DejaVuSans-111"/>
     <use x="895.703125" xlink:href="#DejaVuSans-116"/>
    </g>
   </g>
  </g>
 </g>
 <defs>
  <clipPath id="pc73aacdede">
   <rect height="56.692913" width="79.370079" x="45.354331" y="14.173228"/>
  </clipPath>
 </defs>
</svg>
