<?xml version="1.0" encoding="utf-8" standalone="no"?>
<!DOCTYPE svg PUBLIC "-//W3C//DTD SVG 1.1//EN"
  "http://www.w3.org/Graphics/SVG/1.1/DTD/svg11.dtd">
<!-- Created with matplotlib (https://matplotlib.org/) -->
<svg height="103.464567pt" version="1.1" viewBox="0 0 816.377953 103.464567" width="816.377953pt" xmlns="http://www.w3.org/2000/svg" xmlns:xlink="http://www.w3.org/1999/xlink">
 <defs>
  <style type="text/css">
*{stroke-linecap:butt;stroke-linejoin:round;}
  </style>
 </defs>
 <g id="figure_1">
  <g id="patch_1">
   <path d="M 0 103.464567 
L 816.377953 103.464567 
L 816.377953 0 
L 0 0 
z
" style="fill:none;"/>
  </g>
  <g id="axes_1">
   <g id="patch_2">
    <path d="M 68.031496 76.535433 
L 782.362205 76.535433 
L 782.362205 19.84252 
L 68.031496 19.84252 
z
" style="fill:none;"/>
   </g>
   <g id="matplotlib.axis_1"/>
   <g id="matplotlib.axis_2"/>
   <g id="line2d_1">
    <path clip-path="url(#pa74284c56c)" d="M 106.867658 58.26186 
L 107.504953 55.833012 
L 108.142249 56.264256 
L 108.779545 59.320296 
L 109.41684 59.23187 
L 110.054136 52.5395 
L 110.691432 57.951799 
L 111.328727 55.687337 
L 111.966023 62.367901 
L 112.603319 64.49143 
L 113.240614 54.092614 
L 113.87791 63.069726 
L 114.515206 56.392372 
L 115.152501 47.914507 
L 115.789797 54.120209 
L 116.427093 68.799867 
L 117.064388 56.470962 
L 117.701684 54.96675 
L 118.33898 55.780154 
L 118.976276 56.276568 
L 119.613571 59.525809 
L 120.250867 61.266637 
L 120.888163 59.114936 
L 121.525458 59.944809 
L 122.162754 59.644827 
L 122.80005 62.97335 
L 123.437345 58.646234 
L 124.074641 56.778999 
L 124.711937 53.02528 
L 125.349232 59.454822 
L 125.986528 58.695972 
L 126.623824 59.856643 
L 127.898415 48.037547 
L 129.173006 63.848065 
L 129.810302 58.909323 
L 130.447598 58.081174 
L 131.084893 59.026917 
L 131.722189 57.897835 
L 132.359485 56.159331 
L 132.996781 56.735593 
L 133.634076 67.361017 
L 134.271372 65.245801 
L 134.908668 59.990292 
L 135.545963 57.495675 
L 136.183259 58.958801 
L 136.820555 56.752024 
L 137.45785 22.924755 
L 138.095146 60.577543 
L 138.732442 63.682834 
L 140.007033 54.82763 
L 140.644329 52.771503 
L 141.281624 57.349337 
L 141.91892 65.730772 
L 142.556216 51.615008 
L 143.193511 56.184131 
L 143.830807 64.009919 
L 144.468103 64.04289 
L 145.105398 63.512537 
L 145.742694 61.315361 
L 146.37999 66.595548 
L 147.017286 56.054733 
L 147.654581 56.239857 
L 148.291877 59.172787 
L 148.929173 55.539304 
L 149.566468 64.545855 
L 150.203764 51.351043 
L 150.84106 57.187287 
L 151.478355 59.00325 
L 152.115651 59.845018 
L 152.752947 58.598414 
L 153.390242 63.58552 
L 154.027538 56.870157 
L 155.302129 59.568464 
L 156.576721 57.543816 
L 157.214016 51.577682 
L 157.851312 51.485315 
L 158.488608 59.651479 
L 159.125903 48.428077 
L 159.763199 66.906947 
L 160.400495 63.530638 
L 161.675086 55.777066 
L 162.949678 60.67976 
L 163.586973 56.017183 
L 164.224269 50.27634 
L 164.861565 56.001483 
L 165.49886 57.410414 
L 166.136156 60.549736 
L 166.773452 62.4654 
L 167.410747 57.74225 
L 168.048043 54.25019 
L 168.685339 58.781997 
L 169.322634 60.549825 
L 169.95993 63.999685 
L 170.597226 54.779041 
L 171.234521 68.182356 
L 171.871817 51.150064 
L 172.509113 55.690008 
L 173.146408 54.377642 
L 174.421 55.46338 
L 175.058295 62.188594 
L 175.695591 56.805702 
L 176.332887 62.564025 
L 176.970183 52.469167 
L 177.607478 55.261637 
L 178.244774 64.139375 
L 178.88207 58.869745 
L 179.519365 54.973707 
L 180.156661 22.924755 
L 180.793957 56.535544 
L 181.431252 67.448208 
L 182.068548 62.053422 
L 182.705844 65.854563 
L 183.343139 60.814644 
L 183.980435 52.067318 
L 184.617731 56.957278 
L 185.255026 63.332116 
L 185.892322 64.140956 
L 186.529618 59.94189 
L 187.166913 54.936144 
L 187.804209 57.518306 
L 188.441505 56.523401 
L 189.0788 62.659386 
L 189.716096 57.988791 
L 190.353392 56.378957 
L 191.627983 59.850594 
L 192.265279 55.974647 
L 192.902575 55.933747 
L 193.53987 61.097581 
L 194.177166 69.098893 
L 194.814462 54.816931 
L 195.451757 51.818541 
L 196.089053 59.415689 
L 196.726349 62.288707 
L 197.363644 61.502406 
L 198.00094 52.964008 
L 198.638236 59.660687 
L 199.275531 50.164151 
L 199.912827 60.744242 
L 200.550123 49.4823 
L 201.187418 73.453198 
L 201.824714 61.883579 
L 202.46201 65.059525 
L 203.736601 59.91315 
L 204.373897 60.310204 
L 205.011193 63.685522 
L 205.648488 59.004224 
L 206.285784 52.116981 
L 206.92308 55.132638 
L 207.560375 58.752917 
L 208.197671 58.602157 
L 208.834967 53.459431 
L 209.472262 56.390875 
L 210.109558 63.585491 
L 210.746854 59.143443 
L 211.384149 56.156612 
L 212.021445 59.830237 
L 212.658741 58.935836 
L 213.296036 58.923212 
L 213.933332 57.709989 
L 214.570628 60.424203 
L 215.207923 59.964039 
L 215.845219 54.320888 
L 216.482515 59.322628 
L 217.11981 57.055755 
L 217.757106 59.523091 
L 218.394402 56.520436 
L 219.031697 58.997787 
L 219.668993 52.529549 
L 220.306289 57.516497 
L 220.943585 56.884536 
L 221.58088 58.8542 
L 222.218176 51.91978 
L 222.855472 63.450906 
L 223.492767 55.089032 
L 224.130063 51.558982 
L 224.767359 56.73865 
L 225.404654 52.66638 
L 226.04195 55.155326 
L 226.679246 56.543131 
L 227.316541 54.732359 
L 227.953837 56.296543 
L 228.591133 58.308538 
L 229.228428 65.071638 
L 229.865724 55.357594 
L 230.50302 54.072301 
L 231.140315 63.682169 
L 231.777611 57.354137 
L 232.414907 57.847432 
L 233.052202 67.415657 
L 233.689498 59.758994 
L 234.326794 59.713619 
L 234.96409 54.052049 
L 235.601385 53.230037 
L 236.238681 49.493372 
L 236.875977 56.92991 
L 237.513272 62.454628 
L 238.150568 58.723376 
L 238.787864 59.982683 
L 239.425159 49.888045 
L 240.062455 60.400578 
L 240.699751 53.845387 
L 241.974342 61.353318 
L 242.611638 49.892599 
L 243.248933 63.180815 
L 243.886229 63.669535 
L 244.523525 59.554344 
L 245.16082 52.016254 
L 245.798116 63.601643 
L 246.435412 59.828629 
L 247.072707 62.243552 
L 247.710003 58.303793 
L 248.347299 59.63966 
L 248.984595 59.358438 
L 249.62189 55.433453 
L 250.259186 59.668508 
L 250.896482 57.875912 
L 251.533777 54.820326 
L 252.171073 57.459803 
L 252.808369 42.632622 
L 253.445664 58.06633 
L 254.08296 54.128703 
L 254.720256 62.300993 
L 255.357551 58.580364 
L 255.994847 61.222253 
L 256.632143 56.000695 
L 257.269438 52.429164 
L 257.906734 57.2542 
L 258.54403 58.99329 
L 259.181325 60.40074 
L 259.818621 57.65374 
L 260.455917 54.092291 
L 261.093212 58.589954 
L 261.730508 60.312255 
L 262.367804 56.584755 
L 263.0051 58.159396 
L 263.642395 56.045448 
L 264.279691 58.729196 
L 264.916987 67.791794 
L 265.554282 52.628261 
L 266.191578 57.487335 
L 266.828874 56.442623 
L 267.466169 56.216869 
L 268.103465 63.282264 
L 268.740761 61.787031 
L 269.378056 57.18261 
L 270.015352 51.204895 
L 270.652648 55.561832 
L 271.289943 62.888853 
L 271.927239 54.175766 
L 272.564535 55.632037 
L 273.20183 64.778696 
L 274.476422 49.572664 
L 275.113717 55.928865 
L 275.751013 58.664383 
L 276.388309 51.955978 
L 277.025604 69.409847 
L 277.6629 61.627937 
L 278.300196 59.936162 
L 278.937492 48.986291 
L 279.574787 62.783342 
L 280.212083 58.975721 
L 280.849379 63.567079 
L 281.486674 62.639028 
L 282.12397 62.025191 
L 282.761266 58.278424 
L 283.398561 60.473527 
L 284.035857 54.993588 
L 284.673153 61.941451 
L 285.310448 55.186751 
L 285.947744 54.213598 
L 286.58504 59.098542 
L 287.222335 55.486122 
L 287.859631 59.280765 
L 288.496927 67.704347 
L 289.134222 54.762617 
L 289.771518 62.366521 
L 290.408814 54.586689 
L 291.046109 59.061505 
L 291.683405 53.537318 
L 292.320701 57.903318 
L 292.957997 56.759387 
L 293.595292 61.409219 
L 294.232588 58.610536 
L 294.869884 66.080381 
L 295.507179 67.717158 
L 296.144475 57.578586 
L 296.781771 61.855797 
L 297.419066 57.58795 
L 298.056362 66.31635 
L 298.693658 59.137156 
L 299.330953 57.870776 
L 299.968249 53.320582 
L 300.605545 50.562959 
L 301.24284 53.749311 
L 301.880136 60.578158 
L 302.517432 56.300255 
L 303.154727 60.444829 
L 303.792023 62.005404 
L 304.429319 51.065592 
L 305.066614 59.13794 
L 305.70391 53.937018 
L 306.341206 50.145324 
L 306.978502 53.004851 
L 307.615797 50.59263 
L 308.253093 60.193388 
L 308.890389 60.238634 
L 309.527684 55.176824 
L 310.16498 58.498678 
L 310.802276 60.123081 
L 311.439571 58.893867 
L 312.076867 59.037702 
L 312.714163 65.807365 
L 313.351458 58.027049 
L 313.988754 51.698133 
L 314.62605 64.961254 
L 315.263345 52.760361 
L 315.900641 62.300588 
L 316.537937 51.869143 
L 317.175232 57.729482 
L 317.812528 56.616019 
L 318.449824 61.775722 
L 319.087119 63.008249 
L 320.361711 53.906151 
L 320.999007 62.909198 
L 321.636302 65.04875 
L 322.273598 58.908694 
L 322.910894 62.493094 
L 323.548189 61.820582 
L 324.185485 56.106016 
L 324.822781 56.851601 
L 325.460076 56.310926 
L 326.097372 62.233146 
L 326.734668 64.005643 
L 327.371963 61.503251 
L 328.009259 59.995295 
L 328.646555 51.907199 
L 329.28385 53.981496 
L 329.921146 60.388899 
L 330.558442 60.540714 
L 331.195737 58.688811 
L 331.833033 58.11815 
L 332.470329 59.03391 
L 333.107624 59.033777 
L 333.74492 63.159207 
L 334.382216 61.133301 
L 335.019511 60.574257 
L 335.656807 58.949142 
L 336.294103 58.150955 
L 336.931399 59.889099 
L 337.568694 54.522368 
L 338.20599 47.096209 
L 338.843286 59.223375 
L 339.480581 47.595062 
L 340.117877 54.210888 
L 340.755173 57.840285 
L 341.392468 57.147404 
L 342.029764 54.917285 
L 342.66706 56.966086 
L 343.304355 55.615636 
L 343.941651 64.32063 
L 344.578947 56.948409 
L 345.216242 66.231551 
L 345.853538 57.259644 
L 346.490834 55.27791 
L 347.128129 57.507042 
L 347.765425 60.772806 
L 348.402721 52.527917 
L 349.040016 55.560762 
L 349.677312 54.009603 
L 350.314608 60.323814 
L 350.951904 60.59451 
L 351.589199 59.315986 
L 352.226495 57.434244 
L 352.863791 61.413251 
L 353.501086 48.887814 
L 354.138382 51.10793 
L 354.775678 62.361391 
L 355.412973 55.662935 
L 356.050269 61.440299 
L 356.687565 61.909421 
L 357.32486 55.71079 
L 357.962156 62.832755 
L 358.599452 60.170802 
L 359.236747 55.147505 
L 359.874043 59.511155 
L 360.511339 48.107512 
L 361.148634 55.771531 
L 361.78593 59.037235 
L 362.423226 59.290959 
L 363.060521 58.44228 
L 363.697817 58.059264 
L 364.335113 60.445045 
L 364.972409 55.198241 
L 365.609704 60.151436 
L 366.247 61.091992 
L 366.884296 51.39617 
L 367.521591 54.56766 
L 368.158887 60.074811 
L 368.796183 58.833346 
L 369.433478 51.891032 
L 370.70807 62.148351 
L 371.345365 54.387405 
L 371.982661 60.508003 
L 372.619957 22.924755 
L 373.257252 62.038604 
L 373.894548 58.066648 
L 374.531844 65.687164 
L 375.169139 59.387021 
L 375.806435 60.103074 
L 376.443731 54.857769 
L 377.081026 53.789365 
L 377.718322 57.976399 
L 378.355618 66.992052 
L 378.992913 64.953074 
L 379.630209 62.256915 
L 380.267505 60.760638 
L 380.904801 53.079362 
L 381.542096 59.821965 
L 382.179392 69.982932 
L 383.453983 55.785963 
L 384.091279 52.420287 
L 385.36587 55.755085 
L 386.640462 57.236652 
L 387.277757 57.215108 
L 387.915053 58.967049 
L 388.552349 54.546758 
L 389.189644 51.13308 
L 389.82694 22.924755 
L 390.464236 54.238607 
L 391.101531 56.753204 
L 391.738827 60.941585 
L 393.013418 57.95502 
L 393.650714 59.326493 
L 394.28801 56.21645 
L 394.925306 58.881891 
L 395.562601 58.535362 
L 396.199897 59.624399 
L 396.837193 59.380573 
L 397.474488 58.146609 
L 398.111784 51.676379 
L 398.74908 58.335136 
L 399.386375 63.812992 
L 400.023671 65.437687 
L 400.660967 65.172977 
L 401.298262 53.608619 
L 401.935558 56.394621 
L 402.572854 53.241857 
L 403.210149 61.383621 
L 403.847445 58.661803 
L 404.484741 61.500998 
L 405.122036 62.787287 
L 405.759332 57.160031 
L 406.396628 53.108845 
L 407.033923 58.457376 
L 407.671219 52.013282 
L 408.308515 64.240392 
L 408.945811 61.504368 
L 409.583106 56.265597 
L 410.220402 62.576851 
L 410.857698 52.248304 
L 412.132289 62.156034 
L 412.769585 59.498453 
L 413.40688 63.128002 
L 414.044176 51.754824 
L 414.681472 58.838648 
L 415.318767 59.860426 
L 415.956063 65.282707 
L 416.593359 55.48567 
L 417.230654 56.265117 
L 417.86795 55.838816 
L 418.505246 54.802434 
L 419.142541 61.522779 
L 419.779837 49.251113 
L 420.417133 63.101587 
L 421.054428 54.685847 
L 421.691724 62.973008 
L 422.32902 66.428264 
L 422.966316 61.758339 
L 423.603611 54.158089 
L 424.240907 66.084705 
L 424.878203 57.036879 
L 425.515498 55.179246 
L 426.152794 61.756697 
L 426.79009 64.225133 
L 427.427385 61.990972 
L 428.064681 63.035837 
L 428.701977 52.787222 
L 429.339272 55.586913 
L 429.976568 65.537648 
L 430.613864 61.597233 
L 431.251159 55.852007 
L 431.888455 48.907756 
L 432.525751 60.481343 
L 433.163046 56.170752 
L 433.800342 49.843728 
L 434.437638 52.031621 
L 435.074933 57.86845 
L 435.712229 54.971484 
L 436.349525 57.288924 
L 436.98682 60.085842 
L 437.624116 59.95223 
L 438.261412 22.924755 
L 438.898708 67.342973 
L 439.536003 59.40165 
L 440.173299 61.248144 
L 440.810595 66.384568 
L 441.44789 54.654631 
L 442.085186 58.459072 
L 442.722482 58.79509 
L 443.359777 49.500895 
L 443.997073 55.113584 
L 444.634369 56.291354 
L 445.271664 55.573524 
L 445.90896 59.611614 
L 446.546256 60.450945 
L 447.183551 49.52719 
L 447.820847 61.234943 
L 448.458143 64.932927 
L 449.095438 54.841876 
L 449.732734 59.247068 
L 450.37003 49.823028 
L 451.007325 59.072444 
L 451.644621 64.740222 
L 452.281917 56.924551 
L 452.919213 52.672672 
L 453.556508 57.895477 
L 454.193804 58.348059 
L 454.8311 57.757959 
L 455.468395 55.326903 
L 456.105691 51.039013 
L 456.742987 65.747302 
L 457.380282 53.751814 
L 458.017578 54.96157 
L 458.654874 58.125398 
L 459.292169 62.217479 
L 459.929465 62.376823 
L 460.566761 56.570633 
L 461.204056 57.880346 
L 461.841352 53.019119 
L 462.478648 55.714766 
L 463.115943 65.272732 
L 463.753239 60.959058 
L 464.390535 61.749283 
L 465.02783 59.814215 
L 465.665126 62.183156 
L 466.302422 62.660036 
L 466.939718 63.595342 
L 467.577013 59.366225 
L 468.214309 56.303696 
L 468.851605 54.011549 
L 469.4889 59.40806 
L 470.126196 51.950402 
L 470.763492 56.552809 
L 471.400787 58.327574 
L 472.038083 67.004265 
L 472.675379 55.247849 
L 473.312674 58.872834 
L 473.94997 52.659753 
L 474.587266 55.962314 
L 475.224561 62.112982 
L 475.861857 63.979058 
L 476.499153 56.289751 
L 477.136448 61.271195 
L 477.773744 63.409943 
L 478.41104 59.489542 
L 479.048335 62.921882 
L 479.685631 61.452719 
L 480.322927 54.339977 
L 480.960223 57.229261 
L 481.597518 56.187129 
L 482.234814 63.051872 
L 482.87211 58.870623 
L 483.509405 61.969615 
L 484.146701 58.964774 
L 484.783997 49.899151 
L 485.421292 67.333913 
L 486.058588 66.899351 
L 486.695884 64.93215 
L 487.333179 59.33652 
L 487.970475 52.621756 
L 488.607771 59.095706 
L 489.245066 50.1383 
L 489.882362 56.478534 
L 490.519658 56.752655 
L 491.156953 60.414361 
L 491.794249 53.833538 
L 492.431545 62.564869 
L 493.06884 65.941141 
L 493.706136 60.511813 
L 494.343432 65.229351 
L 494.980727 55.519426 
L 495.618023 22.924755 
L 496.255319 57.878129 
L 498.167206 60.860993 
L 498.804502 57.360224 
L 499.441797 57.847329 
L 500.079093 56.032998 
L 500.716389 63.62278 
L 501.353684 53.822541 
L 502.628276 59.931813 
L 503.265571 59.704175 
L 503.902867 63.735811 
L 504.540163 63.296254 
L 505.177458 52.287887 
L 505.814754 58.228926 
L 506.45205 55.220691 
L 507.089345 57.371692 
L 507.726641 62.561323 
L 508.363937 61.601996 
L 509.001232 58.468261 
L 509.638528 60.993204 
L 510.275824 59.392865 
L 510.91312 55.141549 
L 512.187711 61.988986 
L 512.825007 61.003156 
L 513.462302 58.999231 
L 514.099598 56.576404 
L 514.736894 57.297445 
L 515.374189 50.307157 
L 516.011485 64.486025 
L 516.648781 57.213519 
L 517.286076 64.031034 
L 517.923372 54.695542 
L 518.560668 54.465333 
L 519.197963 51.408913 
L 519.835259 59.121068 
L 520.472555 56.080055 
L 521.10985 56.659978 
L 521.747146 58.214463 
L 522.384442 52.144016 
L 523.021737 55.666696 
L 523.659033 54.635196 
L 524.296329 58.780286 
L 524.933625 52.928755 
L 525.57092 60.796067 
L 526.208216 55.523093 
L 526.845512 60.86502 
L 527.482807 58.203993 
L 528.120103 61.418724 
L 529.394694 57.108034 
L 530.03199 56.732765 
L 530.669286 57.783585 
L 531.306581 63.052143 
L 531.943877 57.235272 
L 532.581173 60.379512 
L 533.218468 53.865639 
L 533.855764 58.47454 
L 534.49306 61.608158 
L 535.130355 59.595794 
L 535.767651 61.244847 
L 536.404947 51.183979 
L 537.042242 45.665759 
L 537.679538 53.703897 
L 538.316834 55.284283 
L 538.95413 49.161248 
L 539.591425 60.038106 
L 540.866017 64.733178 
L 541.503312 61.786477 
L 542.140608 59.500708 
L 542.777904 61.092195 
L 543.415199 57.128521 
L 544.052495 57.220301 
L 544.689791 58.98977 
L 545.327086 64.463793 
L 545.964382 56.166573 
L 546.601678 56.533541 
L 547.238973 58.454333 
L 547.876269 58.485905 
L 548.513565 63.194125 
L 549.15086 59.611242 
L 549.788156 58.567419 
L 550.425452 57.879794 
L 551.062747 59.597128 
L 551.700043 55.102998 
L 552.337339 61.348486 
L 552.974634 55.162322 
L 553.61193 57.214147 
L 554.249226 61.228125 
L 554.886522 56.675715 
L 555.523817 46.223789 
L 556.161113 53.815879 
L 556.798409 58.292198 
L 557.435704 61.555923 
L 558.073 56.354133 
L 558.710296 62.964274 
L 559.347591 58.503643 
L 559.984887 57.889761 
L 560.622183 52.890637 
L 561.259478 54.223434 
L 561.896774 58.057913 
L 562.53407 53.562197 
L 563.171365 60.171102 
L 563.808661 22.924755 
L 564.445957 53.177582 
L 565.083252 45.868269 
L 565.720548 55.913103 
L 566.357844 54.86067 
L 566.995139 55.86243 
L 567.632435 57.969982 
L 568.269731 56.186634 
L 568.907027 53.685908 
L 569.544322 55.763745 
L 570.181618 51.026534 
L 571.456209 66.710254 
L 572.093505 64.685616 
L 572.730801 57.817414 
L 573.368096 60.373864 
L 574.005392 50.812452 
L 574.642688 63.109923 
L 575.279983 60.793358 
L 575.917279 54.109136 
L 576.554575 63.59954 
L 577.19187 54.790311 
L 577.829166 57.301106 
L 578.466462 56.48971 
L 579.103757 54.140838 
L 579.741053 58.535737 
L 580.378349 61.400531 
L 581.015644 50.034494 
L 581.65294 58.425722 
L 582.290236 54.063658 
L 582.927532 61.401061 
L 583.564827 57.650179 
L 584.202123 52.798786 
L 584.839419 54.747428 
L 585.476714 58.236954 
L 586.11401 63.46961 
L 586.751306 54.745255 
L 587.388601 55.874485 
L 588.025897 65.544692 
L 588.663193 52.094758 
L 589.300488 60.98218 
L 589.937784 59.525673 
L 590.57508 58.524583 
L 591.212375 64.854619 
L 591.849671 55.531637 
L 592.486967 58.10264 
L 593.124262 66.242656 
L 593.761558 58.344968 
L 594.398854 54.859267 
L 595.036149 59.19767 
L 595.673445 56.416397 
L 596.310741 55.95855 
L 597.585332 61.395243 
L 598.222628 56.844257 
L 598.859924 60.178881 
L 599.497219 57.792658 
L 600.134515 57.718328 
L 600.771811 53.600943 
L 601.409106 66.121237 
L 602.046402 63.444884 
L 602.683698 50.488103 
L 603.320993 54.988122 
L 603.958289 22.924755 
L 604.595585 63.998116 
L 605.870176 50.496265 
L 606.507472 53.74662 
L 607.144767 57.806384 
L 607.782063 55.66613 
L 608.419359 57.499684 
L 609.056654 60.293865 
L 609.69395 50.128859 
L 610.968541 63.690996 
L 611.605837 59.614387 
L 612.243133 51.430578 
L 612.880429 54.530544 
L 613.517724 54.193998 
L 614.15502 59.098676 
L 614.792316 51.268271 
L 615.429611 60.646554 
L 616.066907 58.463992 
L 616.704203 55.733351 
L 617.341498 54.405138 
L 617.978794 57.853788 
L 618.61609 22.924755 
L 619.253385 66.699281 
L 619.890681 49.404643 
L 620.527977 55.196659 
L 621.165272 64.787494 
L 621.802568 53.871787 
L 622.439864 58.086256 
L 623.077159 57.953087 
L 623.714455 60.514782 
L 624.351751 61.211001 
L 624.989046 51.575671 
L 625.626342 61.772247 
L 626.900934 55.992422 
L 627.538229 62.372028 
L 628.175525 58.544914 
L 628.812821 57.772503 
L 629.450116 53.435247 
L 630.087412 56.641805 
L 630.724708 57.375483 
L 631.362003 63.105625 
L 631.999299 65.028619 
L 632.636595 55.450005 
L 633.27389 59.710547 
L 633.911186 57.510787 
L 634.548482 58.124085 
L 635.185777 62.899814 
L 635.823073 22.924755 
L 636.460369 56.98265 
L 637.73496 59.61578 
L 638.372256 56.831554 
L 639.009551 52.977911 
L 639.646847 47.840983 
L 640.284143 55.688518 
L 640.921439 61.797868 
L 641.558734 57.162912 
L 642.19603 64.090591 
L 642.833326 57.018107 
L 643.470621 56.106422 
L 644.107917 62.494147 
L 644.745213 63.798187 
L 645.382508 52.615244 
L 646.019804 66.36427 
L 646.6571 59.867263 
L 647.294395 54.636874 
L 647.931691 57.457776 
L 648.568987 49.417661 
L 649.206282 67.310527 
L 649.843578 54.452802 
L 650.480874 56.627395 
L 651.118169 59.483826 
L 651.755465 60.594419 
L 652.392761 63.841593 
L 653.030056 50.290979 
L 653.667352 53.59411 
L 654.304648 61.461972 
L 654.941944 54.474032 
L 655.579239 61.498473 
L 656.216535 57.088573 
L 656.853831 57.217335 
L 657.491126 62.255301 
L 658.128422 65.585908 
L 658.765718 58.244753 
L 659.403013 57.9587 
L 660.040309 60.941457 
L 660.677605 57.646555 
L 661.3149 53.411912 
L 661.952196 56.280331 
L 662.589492 64.039094 
L 663.226787 58.848902 
L 663.864083 54.658781 
L 664.501379 59.456114 
L 665.138674 57.426827 
L 665.77597 57.578025 
L 666.413266 62.36998 
L 667.050561 50.788542 
L 667.687857 53.485649 
L 668.325153 53.846186 
L 668.962448 52.550791 
L 669.599744 64.847145 
L 670.23704 58.220788 
L 670.874336 53.496785 
L 671.511631 57.392724 
L 672.148927 64.378745 
L 672.786223 61.989974 
L 673.423518 59.003239 
L 674.060814 52.896339 
L 674.69811 59.491319 
L 675.335405 58.37297 
L 675.972701 61.474499 
L 676.609997 62.223398 
L 677.247292 57.367535 
L 678.521884 60.770644 
L 679.159179 58.250195 
L 679.796475 57.129138 
L 680.433771 60.020838 
L 681.071066 49.783424 
L 681.708362 61.488144 
L 682.345658 63.722986 
L 682.982953 51.006328 
L 683.620249 64.193804 
L 684.257545 50.623309 
L 684.894841 62.668695 
L 685.532136 59.262377 
L 686.169432 54.400025 
L 686.806728 52.980672 
L 687.444023 51.031953 
L 688.081319 50.437105 
L 688.718615 61.670456 
L 689.35591 57.814619 
L 689.993206 65.561306 
L 690.630502 55.47081 
L 691.267797 65.406407 
L 691.905093 56.772545 
L 692.542389 66.597631 
L 693.179684 51.295892 
L 693.81698 61.709349 
L 694.454276 60.028576 
L 695.091571 51.701255 
L 695.728867 62.826 
L 696.366163 55.378985 
L 697.003458 56.160932 
L 697.640754 61.306478 
L 698.27805 59.553777 
L 698.915346 56.26833 
L 699.552641 57.234194 
L 700.189937 63.001609 
L 700.827233 59.391854 
L 701.464528 61.663882 
L 702.101824 60.583175 
L 702.73912 51.355424 
L 703.376415 71.409139 
L 704.013711 58.989128 
L 704.651007 53.557075 
L 705.288302 53.927884 
L 705.925598 61.173727 
L 706.562894 56.354503 
L 707.200189 60.739866 
L 707.837485 62.618261 
L 708.474781 62.982953 
L 709.112076 59.788561 
L 709.749372 62.894969 
L 710.386668 57.94403 
L 711.023963 59.131036 
L 711.661259 61.90753 
L 712.298555 52.394296 
L 712.93585 56.769233 
L 713.573146 56.626637 
L 714.210442 50.318033 
L 714.847738 56.427235 
L 715.485033 53.755891 
L 716.122329 59.939888 
L 716.759625 58.237906 
L 717.39692 60.977871 
L 718.034216 58.37761 
L 718.671512 56.382108 
L 719.308807 55.338484 
L 719.946103 53.894002 
L 720.583399 61.305108 
L 721.220694 60.590269 
L 721.85799 64.019928 
L 722.495286 60.539641 
L 723.132581 62.898789 
L 723.769877 60.883657 
L 724.407173 52.924626 
L 725.044468 51.767959 
L 725.681764 55.993236 
L 726.31906 58.899338 
L 726.956355 49.573093 
L 727.593651 48.774899 
L 728.230947 51.285192 
L 728.868243 66.204911 
L 729.505538 63.982172 
L 730.142834 57.067529 
L 730.78013 57.114234 
L 731.417425 62.448673 
L 732.054721 58.886228 
L 732.692017 51.964042 
L 733.329312 60.919021 
L 733.966608 55.287107 
L 734.603904 55.058594 
L 735.241199 60.825438 
L 735.878495 57.4465 
L 736.515791 49.458127 
L 737.153086 63.666411 
L 737.790382 53.278492 
L 738.427678 60.691329 
L 739.064973 58.390401 
L 739.702269 59.881431 
L 740.339565 62.060552 
L 740.97686 61.102363 
L 741.614156 64.10164 
L 742.251452 49.615892 
L 742.888748 58.453542 
L 743.526043 58.634257 
L 743.526043 58.634257 
" style="fill:none;stroke:#000000;stroke-linecap:square;"/>
   </g>
   <g id="line2d_2">
    <path clip-path="url(#pa74284c56c)" d="M 110.05095 73.200556 
L 122.796863 73.200556 
" style="fill:none;stroke:#000000;stroke-linecap:square;"/>
   </g>
   <g id="line2d_3">
    <path clip-path="url(#pa74284c56c)" d="M 110.05095 73.200556 
L 110.05095 64.317719 
" style="fill:none;stroke:#000000;stroke-linecap:square;"/>
   </g>
   <g id="line2d_4">
    <defs>
     <path d="M 0 0.00025 
C 0.000066 0.00025 0.00013 0.000224 0.000177 0.000177 
C 0.000224 0.00013 0.00025 0.000066 0.00025 0 
C 0.00025 -0.000066 0.000224 -0.00013 0.000177 -0.000177 
C 0.00013 -0.000224 0.000066 -0.00025 0 -0.00025 
C -0.000066 -0.00025 -0.00013 -0.000224 -0.000177 -0.000177 
C -0.000224 -0.00013 -0.00025 -0.000066 -0.00025 0 
C -0.00025 0.000066 -0.000224 0.00013 -0.000177 0.000177 
C -0.00013 0.000224 -0.000066 0.00025 0 0.00025 
z
" id="m61ff6068a4" style="stroke:#ffffff;stroke-opacity:0.001;"/>
    </defs>
    <g clip-path="url(#pa74284c56c)">
     <use style="fill:#ffffff;fill-opacity:0.001;stroke:#ffffff;stroke-opacity:0.001;" x="425.19685" xlink:href="#m61ff6068a4" y="76.535433"/>
     <use style="fill:#ffffff;fill-opacity:0.001;stroke:#ffffff;stroke-opacity:0.001;" x="425.19685" xlink:href="#m61ff6068a4" y="19.84252"/>
    </g>
   </g>
   <g id="line2d_5">
    <g clip-path="url(#pa74284c56c)">
     <use style="fill:#ffffff;fill-opacity:0.001;stroke:#ffffff;stroke-opacity:0.001;" x="68.031496" xlink:href="#m61ff6068a4" y="48.188976"/>
     <use style="fill:#ffffff;fill-opacity:0.001;stroke:#ffffff;stroke-opacity:0.001;" x="782.362205" xlink:href="#m61ff6068a4" y="48.188976"/>
    </g>
   </g>
   <g id="patch_3">
    <path d="M 68.031496 76.535433 
L 68.031496 19.84252 
" style="fill:none;"/>
   </g>
   <g id="patch_4">
    <path d="M 782.362205 76.535433 
L 782.362205 19.84252 
" style="fill:none;"/>
   </g>
   <g id="patch_5">
    <path d="M 68.031496 76.535433 
L 782.362205 76.535433 
" style="fill:none;"/>
   </g>
   <g id="patch_6">
    <path d="M 68.031496 19.84252 
L 782.362205 19.84252 
" style="fill:none;"/>
   </g>
   <g id="text_1">
    <!-- 0.2s -->
    <defs>
     <path d="M 31.78125 66.40625 
Q 24.171875 66.40625 20.328125 58.90625 
Q 16.5 51.421875 16.5 36.375 
Q 16.5 21.390625 20.328125 13.890625 
Q 24.171875 6.390625 31.78125 6.390625 
Q 39.453125 6.390625 43.28125 13.890625 
Q 47.125 21.390625 47.125 36.375 
Q 47.125 51.421875 43.28125 58.90625 
Q 39.453125 66.40625 31.78125 66.40625 
z
M 31.78125 74.21875 
Q 44.046875 74.21875 50.515625 64.515625 
Q 56.984375 54.828125 56.984375 36.375 
Q 56.984375 17.96875 50.515625 8.265625 
Q 44.046875 -1.421875 31.78125 -1.421875 
Q 19.53125 -1.421875 13.0625 8.265625 
Q 6.59375 17.96875 6.59375 36.375 
Q 6.59375 54.828125 13.0625 64.515625 
Q 19.53125 74.21875 31.78125 74.21875 
z
" id="DejaVuSans-48"/>
     <path d="M 10.6875 12.40625 
L 21 12.40625 
L 21 0 
L 10.6875 0 
z
" id="DejaVuSans-46"/>
     <path d="M 19.1875 8.296875 
L 53.609375 8.296875 
L 53.609375 0 
L 7.328125 0 
L 7.328125 8.296875 
Q 12.9375 14.109375 22.625 23.890625 
Q 32.328125 33.6875 34.8125 36.53125 
Q 39.546875 41.84375 41.421875 45.53125 
Q 43.3125 49.21875 43.3125 52.78125 
Q 43.3125 58.59375 39.234375 62.25 
Q 35.15625 65.921875 28.609375 65.921875 
Q 23.96875 65.921875 18.8125 64.3125 
Q 13.671875 62.703125 7.8125 59.421875 
L 7.8125 69.390625 
Q 13.765625 71.78125 18.9375 73 
Q 24.125 74.21875 28.421875 74.21875 
Q 39.75 74.21875 46.484375 68.546875 
Q 53.21875 62.890625 53.21875 53.421875 
Q 53.21875 48.921875 51.53125 44.890625 
Q 49.859375 40.875 45.40625 35.40625 
Q 44.1875 33.984375 37.640625 27.21875 
Q 31.109375 20.453125 19.1875 8.296875 
z
" id="DejaVuSans-50"/>
     <path d="M 44.28125 53.078125 
L 44.28125 44.578125 
Q 40.484375 46.53125 36.375 47.5 
Q 32.28125 48.484375 27.875 48.484375 
Q 21.1875 48.484375 17.84375 46.4375 
Q 14.5 44.390625 14.5 40.28125 
Q 14.5 37.15625 16.890625 35.375 
Q 19.28125 33.59375 26.515625 31.984375 
L 29.59375 31.296875 
Q 39.15625 29.25 43.1875 25.515625 
Q 47.21875 21.78125 47.21875 15.09375 
Q 47.21875 7.46875 41.1875 3.015625 
Q 35.15625 -1.421875 24.609375 -1.421875 
Q 20.21875 -1.421875 15.453125 -0.5625 
Q 10.6875 0.296875 5.421875 2 
L 5.421875 11.28125 
Q 10.40625 8.6875 15.234375 7.390625 
Q 20.0625 6.109375 24.8125 6.109375 
Q 31.15625 6.109375 34.5625 8.28125 
Q 37.984375 10.453125 37.984375 14.40625 
Q 37.984375 18.0625 35.515625 20.015625 
Q 33.0625 21.96875 24.703125 23.78125 
L 21.578125 24.515625 
Q 13.234375 26.265625 9.515625 29.90625 
Q 5.8125 33.546875 5.8125 39.890625 
Q 5.8125 47.609375 11.28125 51.796875 
Q 16.75 56 26.8125 56 
Q 31.78125 56 36.171875 55.265625 
Q 40.578125 54.546875 44.28125 53.078125 
z
" id="DejaVuSans-115"/>
    </defs>
    <g transform="translate(110.688245 79.723448)scale(0.08 -0.08)">
     <use xlink:href="#DejaVuSans-48"/>
     <use x="63.623047" xlink:href="#DejaVuSans-46"/>
     <use x="95.410156" xlink:href="#DejaVuSans-50"/>
     <use x="159.033203" xlink:href="#DejaVuSans-115"/>
    </g>
   </g>
   <g id="text_2">
    <!-- 20mV  -->
    <defs>
     <path d="M 52 44.1875 
Q 55.375 50.25 60.0625 53.125 
Q 64.75 56 71.09375 56 
Q 79.640625 56 84.28125 50.015625 
Q 88.921875 44.046875 88.921875 33.015625 
L 88.921875 0 
L 79.890625 0 
L 79.890625 32.71875 
Q 79.890625 40.578125 77.09375 44.375 
Q 74.3125 48.1875 68.609375 48.1875 
Q 61.625 48.1875 57.5625 43.546875 
Q 53.515625 38.921875 53.515625 30.90625 
L 53.515625 0 
L 44.484375 0 
L 44.484375 32.71875 
Q 44.484375 40.625 41.703125 44.40625 
Q 38.921875 48.1875 33.109375 48.1875 
Q 26.21875 48.1875 22.15625 43.53125 
Q 18.109375 38.875 18.109375 30.90625 
L 18.109375 0 
L 9.078125 0 
L 9.078125 54.6875 
L 18.109375 54.6875 
L 18.109375 46.1875 
Q 21.1875 51.21875 25.484375 53.609375 
Q 29.78125 56 35.6875 56 
Q 41.65625 56 45.828125 52.96875 
Q 50 49.953125 52 44.1875 
z
" id="DejaVuSans-109"/>
     <path d="M 28.609375 0 
L 0.78125 72.90625 
L 11.078125 72.90625 
L 34.1875 11.53125 
L 57.328125 72.90625 
L 67.578125 72.90625 
L 39.796875 0 
z
" id="DejaVuSans-86"/>
     <path id="DejaVuSans-32"/>
    </defs>
    <g transform="translate(83.426154 71.092664)scale(0.08 -0.08)">
     <use xlink:href="#DejaVuSans-50"/>
     <use x="63.623047" xlink:href="#DejaVuSans-48"/>
     <use x="127.246094" xlink:href="#DejaVuSans-109"/>
     <use x="224.658203" xlink:href="#DejaVuSans-86"/>
     <use x="293.066406" xlink:href="#DejaVuSans-32"/>
    </g>
   </g>
  </g>
 </g>
 <defs>
  <clipPath id="pa74284c56c">
   <rect height="56.692913" width="714.330709" x="68.031496" y="19.84252"/>
  </clipPath>
 </defs>
</svg>
