<?xml version="1.0" encoding="utf-8" standalone="no"?>
<!DOCTYPE svg PUBLIC "-//W3C//DTD SVG 1.1//EN"
  "http://www.w3.org/Graphics/SVG/1.1/DTD/svg11.dtd">
<!-- Created with matplotlib (https://matplotlib.org/) -->
<svg height="94.96063pt" version="1.1" viewBox="0 0 802.771654 94.96063" width="802.771654pt" xmlns="http://www.w3.org/2000/svg" xmlns:xlink="http://www.w3.org/1999/xlink">
 <defs>
  <style type="text/css">
*{stroke-linecap:butt;stroke-linejoin:round;}
  </style>
 </defs>
 <g id="figure_1">
  <g id="patch_1">
   <path d="M 0 94.96063 
L 802.771654 94.96063 
L 802.771654 0 
L 0 0 
z
" style="fill:none;"/>
  </g>
  <g id="axes_1">
   <g id="patch_2">
    <path d="M 54.425197 70.866142 
L 768.755906 70.866142 
L 768.755906 14.173228 
L 54.425197 14.173228 
z
" style="fill:none;"/>
   </g>
   <g id="matplotlib.axis_1"/>
   <g id="matplotlib.axis_2"/>
   <g id="line2d_1">
    <path clip-path="url(#p35d8a676c2)" d="M 93.261358 45.09244 
L 93.898654 48.850044 
L 94.53595 54.994477 
L 95.173245 46.65224 
L 95.810541 48.565281 
L 97.085132 55.777975 
L 97.722428 52.885062 
L 98.359724 45.272074 
L 98.99702 48.115043 
L 99.634315 53.183824 
L 100.908907 50.416382 
L 101.546202 47.372487 
L 102.183498 17.255463 
L 102.820794 52.826027 
L 103.458089 49.857814 
L 104.095385 51.242231 
L 104.732681 51.034852 
L 105.369976 49.729667 
L 106.007272 51.910849 
L 106.644568 50.341992 
L 107.281863 44.255931 
L 107.919159 48.899673 
L 108.556455 45.750816 
L 109.19375 50.43763 
L 109.831046 52.077525 
L 110.468342 49.169726 
L 111.105637 46.972855 
L 111.742933 54.663386 
L 112.380229 52.253154 
L 113.017524 17.255463 
L 113.65482 43.203428 
L 114.292116 44.353758 
L 114.929412 49.490907 
L 115.566707 50.83 
L 116.204003 48.411218 
L 116.841299 52.756102 
L 117.478594 50.643726 
L 118.11589 52.674154 
L 118.753186 56.170638 
L 119.390481 43.189345 
L 120.027777 49.898335 
L 120.665073 49.521627 
L 121.939664 52.414212 
L 122.57696 51.957309 
L 123.214255 49.124485 
L 123.851551 47.518343 
L 124.488847 59.227373 
L 125.126142 17.255463 
L 125.763438 47.017599 
L 126.400734 41.818597 
L 127.038029 50.125202 
L 127.675325 54.453196 
L 128.312621 56.400092 
L 128.949917 51.662219 
L 129.587212 52.992493 
L 130.224508 45.027817 
L 130.861804 45.551933 
L 131.499099 45.043356 
L 132.136395 50.273346 
L 132.773691 52.416504 
L 133.410986 50.246204 
L 134.048282 52.364038 
L 134.685578 56.378398 
L 135.322873 49.955194 
L 135.960169 48.172852 
L 136.597465 47.721773 
L 137.23476 44.506054 
L 137.872056 49.183522 
L 138.509352 58.578647 
L 139.146647 51.763899 
L 139.783943 54.567787 
L 140.421239 58.729541 
L 142.333126 40.562498 
L 142.970422 49.160086 
L 143.607717 52.160312 
L 144.245013 52.575026 
L 144.882309 44.798292 
L 145.519604 48.052774 
L 146.1569 44.686271 
L 146.794196 41.967503 
L 147.431491 46.780322 
L 148.068787 47.519723 
L 148.706083 56.236096 
L 149.343378 48.000015 
L 149.980674 49.629066 
L 150.61797 56.020429 
L 151.255265 49.263911 
L 151.892561 51.25269 
L 152.529857 54.066339 
L 153.167152 44.630034 
L 154.441744 51.570737 
L 155.079039 52.455406 
L 155.716335 48.608136 
L 156.353631 46.145272 
L 156.990927 52.923447 
L 157.628222 48.554762 
L 158.265518 48.491399 
L 158.902814 56.859417 
L 159.540109 43.620624 
L 160.177405 52.384992 
L 160.814701 50.380817 
L 161.451996 56.228232 
L 162.089292 48.812948 
L 162.726588 57.722626 
L 163.363883 47.949727 
L 164.001179 51.861064 
L 164.638475 49.812134 
L 165.27577 51.8735 
L 165.913066 47.894048 
L 166.550362 46.976139 
L 167.187657 49.7335 
L 167.824953 51.477129 
L 168.462249 48.388733 
L 169.099544 56.970894 
L 169.73684 52.224393 
L 170.374136 48.833282 
L 171.011431 51.184658 
L 171.648727 50.714831 
L 172.286023 54.604913 
L 172.923319 50.71669 
L 173.560614 51.044335 
L 174.19791 55.930087 
L 174.835206 44.013727 
L 175.472501 52.355414 
L 176.109797 51.405499 
L 176.747093 46.699535 
L 177.384388 45.209064 
L 178.021684 55.490792 
L 178.65898 55.15617 
L 179.296275 50.129198 
L 179.933571 53.227035 
L 180.570867 47.332697 
L 181.208162 46.545351 
L 181.845458 51.722632 
L 182.482754 50.083497 
L 183.120049 55.696276 
L 183.757345 41.870589 
L 184.394641 51.845172 
L 185.031936 17.255463 
L 185.669232 51.57835 
L 186.943824 44.749942 
L 187.581119 43.419513 
L 188.218415 54.990696 
L 188.855711 55.614159 
L 189.493006 52.603176 
L 190.130302 61.150064 
L 190.767598 47.572155 
L 191.404893 50.614737 
L 192.042189 49.628105 
L 192.679485 46.456827 
L 193.31678 57.067485 
L 193.954076 48.364625 
L 194.591372 44.795042 
L 195.228667 17.255463 
L 195.865963 48.831251 
L 196.503259 53.946736 
L 197.140554 48.789292 
L 197.77785 45.635833 
L 198.415146 39.792518 
L 199.052441 54.548364 
L 199.689737 45.910502 
L 200.327033 47.494574 
L 200.964329 51.030709 
L 201.601624 57.281175 
L 202.23892 49.289651 
L 202.876216 17.255463 
L 203.513511 50.631184 
L 204.150807 52.015906 
L 204.788103 48.667634 
L 205.425398 54.393468 
L 206.062694 45.996166 
L 206.69999 48.407791 
L 207.337285 58.741979 
L 207.974581 51.642662 
L 208.611877 54.82208 
L 209.249172 55.118471 
L 209.886468 52.677049 
L 210.523764 51.002056 
L 211.161059 48.223792 
L 211.798355 56.076714 
L 212.435651 57.480159 
L 213.072946 53.693145 
L 213.710242 53.466951 
L 214.347538 55.493982 
L 214.984834 43.885818 
L 215.622129 47.27393 
L 216.259425 48.18766 
L 216.896721 48.380775 
L 217.534016 55.362651 
L 218.171312 45.639877 
L 218.808608 48.799235 
L 219.445903 47.261716 
L 220.083199 46.585872 
L 220.720495 50.634694 
L 221.995086 51.844349 
L 222.632382 55.132919 
L 223.269677 49.797477 
L 223.906973 39.540716 
L 224.544269 49.030046 
L 225.181564 54.078806 
L 225.81886 54.319996 
L 226.456156 51.46192 
L 227.093451 52.608606 
L 227.730747 57.757102 
L 229.005338 51.180127 
L 229.642634 61.103221 
L 230.27993 48.543135 
L 230.917226 48.273168 
L 231.554521 45.619842 
L 232.191817 50.730688 
L 232.829113 43.957328 
L 233.466408 47.765972 
L 234.103704 46.998583 
L 234.741 49.663543 
L 235.378295 48.695558 
L 236.015591 52.029946 
L 236.652887 53.943877 
L 237.927478 44.663993 
L 238.564774 61.63462 
L 239.202069 50.667034 
L 239.839365 46.048879 
L 240.476661 50.906093 
L 241.113956 52.031182 
L 241.751252 59.949673 
L 242.388548 50.051228 
L 243.025843 51.119809 
L 243.663139 55.954128 
L 244.937731 51.944859 
L 245.575026 54.257855 
L 246.212322 47.765769 
L 246.849618 57.555953 
L 247.486913 51.776022 
L 248.124209 54.428971 
L 248.761505 47.790948 
L 249.3988 54.18001 
L 250.036096 44.898544 
L 250.673392 53.35071 
L 251.310687 50.340502 
L 251.947983 59.190211 
L 252.585279 47.954652 
L 253.222574 50.793718 
L 253.85987 52.599938 
L 254.497166 54.962311 
L 255.134461 45.294111 
L 255.771757 45.926208 
L 256.409053 49.387097 
L 257.046348 50.048629 
L 257.683644 50.3758 
L 258.32094 56.919118 
L 258.958236 47.883179 
L 259.595531 17.255463 
L 260.232827 44.108754 
L 260.870123 50.95348 
L 261.507418 53.483139 
L 262.144714 55.450912 
L 262.78201 55.687869 
L 263.419305 52.337767 
L 264.056601 44.860969 
L 265.331192 54.881331 
L 265.968488 43.004566 
L 266.605784 51.721146 
L 267.243079 46.797374 
L 267.880375 48.551092 
L 268.517671 44.871716 
L 269.154966 47.256298 
L 269.792262 58.958716 
L 271.066853 50.232826 
L 271.704149 40.059504 
L 272.341445 46.004154 
L 272.97874 50.860047 
L 273.616036 49.154383 
L 274.253332 57.667162 
L 274.890628 48.17783 
L 275.527923 56.506384 
L 276.165219 54.290463 
L 276.802515 47.999151 
L 277.43981 48.485843 
L 278.077106 48.155581 
L 278.714402 49.414872 
L 279.351697 49.760045 
L 279.988993 44.623847 
L 280.626289 54.182755 
L 281.263584 50.95951 
L 281.90088 50.993039 
L 282.538176 50.326049 
L 283.175471 53.774345 
L 283.812767 45.072663 
L 284.450063 48.638504 
L 285.087358 54.975247 
L 285.724654 56.201349 
L 286.36195 56.231132 
L 286.999245 49.640249 
L 287.636541 51.280086 
L 288.273837 48.894699 
L 288.911133 48.761556 
L 289.548428 51.315335 
L 290.185724 44.650239 
L 290.82302 52.822638 
L 291.460315 48.633924 
L 292.097611 52.774668 
L 292.734907 51.905125 
L 293.372202 55.936042 
L 294.009498 48.235783 
L 294.646794 52.292416 
L 295.284089 47.852511 
L 295.921385 46.56269 
L 297.195976 56.364181 
L 297.833272 51.501546 
L 298.470568 51.369028 
L 299.107863 47.745853 
L 299.745159 50.721484 
L 300.382455 49.399425 
L 301.01975 46.174419 
L 301.657046 53.322121 
L 302.294342 44.580989 
L 302.931638 46.917924 
L 303.568933 58.243862 
L 304.206229 49.660818 
L 304.843525 53.621918 
L 305.48082 52.318034 
L 306.118116 59.305622 
L 306.755412 49.969767 
L 307.392707 52.339434 
L 308.030003 17.255463 
L 308.667299 51.047746 
L 309.304594 51.468865 
L 309.94189 46.100166 
L 310.579186 48.808497 
L 311.216481 57.632518 
L 311.853777 52.365434 
L 312.491073 52.955621 
L 313.128368 53.216807 
L 313.765664 46.426597 
L 314.40296 51.934565 
L 315.040255 46.122451 
L 315.677551 48.009377 
L 316.314847 51.757821 
L 316.952143 51.970355 
L 317.589438 50.718671 
L 318.226734 51.818245 
L 318.86403 47.949826 
L 319.501325 42.520372 
L 320.138621 51.264948 
L 320.775917 48.828854 
L 321.413212 50.079614 
L 322.050508 55.398157 
L 322.687804 53.052367 
L 323.325099 53.818478 
L 323.962395 60.833394 
L 325.236986 53.621546 
L 325.874282 57.03769 
L 326.511578 52.814824 
L 327.148873 54.78332 
L 327.786169 47.814475 
L 328.423465 52.369189 
L 329.06076 45.846498 
L 329.698056 51.268436 
L 330.335352 47.4296 
L 330.972647 50.591332 
L 331.609943 58.458211 
L 332.247239 52.051834 
L 332.884535 50.366378 
L 333.52183 47.423952 
L 334.159126 52.366192 
L 334.796422 49.386443 
L 335.433717 48.166945 
L 336.071013 53.655347 
L 337.345604 48.293606 
L 337.9829 47.799809 
L 338.620196 54.303563 
L 339.257491 47.730145 
L 339.894787 48.112081 
L 340.532083 50.867027 
L 341.169378 45.332247 
L 341.806674 47.101508 
L 342.44397 47.834145 
L 343.081265 49.760764 
L 343.718561 52.980394 
L 344.355857 44.762608 
L 344.993152 46.004639 
L 345.630448 42.584053 
L 346.267744 54.063366 
L 346.90504 50.650463 
L 347.542335 45.649571 
L 348.179631 51.033205 
L 348.816927 48.413885 
L 349.454222 52.816858 
L 350.091518 56.0987 
L 350.728814 47.134902 
L 351.366109 52.743879 
L 352.640701 48.146454 
L 353.277996 63.444591 
L 353.915292 46.45616 
L 354.552588 56.860756 
L 355.189883 48.962665 
L 355.827179 53.248735 
L 356.464475 51.30886 
L 357.10177 53.282808 
L 357.739066 51.63856 
L 358.376362 52.518132 
L 359.013657 56.117304 
L 359.650953 49.426681 
L 360.288249 54.563365 
L 360.925545 53.969917 
L 361.56284 17.255463 
L 362.200136 53.803266 
L 362.837432 47.219512 
L 363.474727 49.385908 
L 364.112023 45.118499 
L 364.749319 46.964073 
L 365.386614 51.678022 
L 366.02391 53.518946 
L 366.661206 47.409185 
L 367.298501 42.700624 
L 367.935797 45.862867 
L 368.573093 53.303759 
L 369.210388 46.85035 
L 369.847684 51.896594 
L 370.48498 44.622795 
L 371.122275 52.95686 
L 371.759571 57.579512 
L 372.396867 55.077214 
L 373.034162 49.06924 
L 373.671458 47.362708 
L 374.308754 51.162903 
L 374.94605 51.160321 
L 375.583345 56.246231 
L 376.220641 51.686016 
L 376.857937 44.167759 
L 377.495232 52.716816 
L 378.132528 50.321483 
L 378.769824 44.972616 
L 379.407119 50.141332 
L 380.044415 52.751178 
L 380.681711 50.482243 
L 381.319006 53.855961 
L 381.956302 44.909537 
L 383.230893 60.013133 
L 383.868189 48.802753 
L 384.505485 55.046554 
L 385.14278 48.155923 
L 385.780076 50.449739 
L 386.417372 50.393968 
L 387.054667 55.469081 
L 387.691963 49.071036 
L 388.329259 50.625571 
L 388.966554 51.055115 
L 389.60385 53.252229 
L 390.878442 44.53077 
L 391.515737 51.78646 
L 392.153033 49.500806 
L 392.790329 45.172554 
L 393.427624 58.500741 
L 394.06492 43.105099 
L 394.702216 53.727088 
L 395.339511 54.930785 
L 395.976807 45.966914 
L 396.614103 43.375159 
L 397.251398 48.858808 
L 397.888694 48.610469 
L 398.52599 56.072267 
L 399.163285 48.705869 
L 399.800581 58.450444 
L 400.437877 51.861976 
L 401.075172 55.183815 
L 401.712468 53.448745 
L 402.349764 49.845798 
L 402.987059 58.770035 
L 403.624355 46.263125 
L 404.898947 52.397476 
L 405.536242 61.655634 
L 406.173538 53.87552 
L 406.810834 47.483553 
L 407.448129 62.378996 
L 408.085425 46.89695 
L 408.722721 52.330635 
L 409.360016 56.229099 
L 409.997312 47.91874 
L 410.634608 17.255463 
L 411.271903 48.554665 
L 411.909199 42.364719 
L 412.546495 43.504032 
L 413.18379 43.981815 
L 413.821086 46.636812 
L 414.458382 58.701156 
L 415.095677 44.421047 
L 415.732973 48.384013 
L 416.370269 46.71285 
L 417.007564 51.239768 
L 417.64486 49.67233 
L 418.282156 49.367294 
L 418.919452 47.24585 
L 419.556747 52.274589 
L 420.194043 51.58732 
L 420.831339 47.880843 
L 421.468634 46.271278 
L 422.10593 51.254653 
L 422.743226 52.287966 
L 423.380521 42.911199 
L 424.017817 44.30868 
L 424.655113 51.872457 
L 425.292408 56.120237 
L 425.929704 47.403602 
L 426.567 44.928908 
L 427.841591 52.647847 
L 428.478887 53.937701 
L 429.116182 50.828144 
L 429.753478 53.198589 
L 430.390774 51.601474 
L 431.028069 56.558245 
L 431.665365 46.726383 
L 432.302661 52.274741 
L 432.939957 44.830124 
L 433.577252 45.665668 
L 434.214548 49.460921 
L 434.851844 54.237187 
L 435.489139 47.742622 
L 436.126435 55.658776 
L 436.763731 48.000242 
L 437.401026 43.100887 
L 438.038322 54.138776 
L 439.312913 48.327776 
L 439.950209 51.650761 
L 440.587505 50.013996 
L 441.2248 54.819946 
L 441.862096 49.304211 
L 442.499392 48.980506 
L 443.136687 51.584536 
L 443.773983 58.931301 
L 444.411279 52.44898 
L 445.048574 50.625682 
L 445.68587 53.803842 
L 446.323166 55.3028 
L 446.960461 54.039076 
L 447.597757 56.225111 
L 448.235053 56.714068 
L 448.872349 46.070877 
L 449.509644 52.718225 
L 450.14694 42.258507 
L 450.784236 59.095177 
L 451.421531 49.206692 
L 452.058827 50.158151 
L 452.696123 53.580358 
L 453.333418 49.391619 
L 453.970714 60.007538 
L 454.60801 40.284815 
L 455.245305 52.492039 
L 455.882601 57.811345 
L 456.519897 53.231151 
L 457.157192 59.101264 
L 457.794488 51.248679 
L 458.431784 48.747117 
L 459.069079 51.200206 
L 459.706375 54.618677 
L 460.343671 44.297581 
L 460.980966 58.169609 
L 461.618262 50.940969 
L 462.255558 47.424411 
L 462.892854 56.714135 
L 463.530149 50.142113 
L 464.167445 51.283188 
L 464.804741 64.130153 
L 465.442036 50.697918 
L 466.079332 49.208364 
L 466.716628 54.32137 
L 467.353923 48.908631 
L 467.991219 45.257995 
L 468.628515 52.970192 
L 469.26581 53.874846 
L 469.903106 47.96604 
L 470.540402 44.17866 
L 471.177697 52.808104 
L 471.814993 49.971627 
L 472.452289 56.794412 
L 473.089584 53.487692 
L 473.72688 44.647149 
L 474.364176 55.735787 
L 475.001471 49.221026 
L 475.638767 53.456384 
L 476.276063 56.087466 
L 476.913359 55.295958 
L 477.550654 52.510898 
L 478.18795 50.951563 
L 478.825246 52.441335 
L 479.462541 53.152965 
L 480.099837 53.286703 
L 480.737133 55.212019 
L 481.374428 50.680061 
L 482.011724 60.478144 
L 482.64902 63.694016 
L 483.286315 47.082029 
L 483.923611 61.976996 
L 484.560907 48.211595 
L 485.198202 52.117262 
L 485.835498 50.641198 
L 486.472794 54.295409 
L 487.110089 52.355767 
L 487.747385 46.310417 
L 488.384681 46.945754 
L 489.021976 56.222662 
L 489.659272 52.217286 
L 490.296568 50.006134 
L 490.933864 52.719358 
L 491.571159 47.014137 
L 492.208455 55.029816 
L 492.845751 49.512727 
L 493.483046 54.154164 
L 494.120342 51.254978 
L 494.757638 51.532621 
L 495.394933 49.074765 
L 496.032229 50.969066 
L 496.669525 51.185076 
L 497.30682 50.758819 
L 497.944116 52.970133 
L 498.581412 45.994968 
L 499.218707 52.193934 
L 499.856003 46.383044 
L 500.493299 50.973128 
L 501.130594 50.301928 
L 501.76789 54.285882 
L 502.405186 55.2771 
L 503.042481 53.601792 
L 504.317073 49.238483 
L 504.954368 54.362781 
L 505.591664 54.098807 
L 506.22896 50.899987 
L 506.866256 48.468462 
L 507.503551 51.226929 
L 508.140847 45.85169 
L 508.778143 49.384267 
L 509.415438 53.59608 
L 510.052734 48.439458 
L 510.69003 47.435227 
L 511.327325 50.800626 
L 511.964621 48.752504 
L 512.601917 48.887684 
L 513.239212 49.7671 
L 513.876508 47.878864 
L 514.513804 47.779612 
L 515.151099 52.250198 
L 515.788395 46.759021 
L 516.425691 50.406585 
L 517.062986 42.791443 
L 517.700282 51.6038 
L 518.337578 55.816479 
L 518.974873 54.776223 
L 519.612169 47.745135 
L 520.249465 49.305279 
L 520.886761 45.367016 
L 521.524056 47.804132 
L 522.161352 53.974981 
L 522.798648 58.66944 
L 523.435943 48.688483 
L 524.073239 42.166815 
L 524.710535 50.27332 
L 525.34783 50.231323 
L 525.985126 56.658762 
L 526.622422 42.057153 
L 527.259717 54.921001 
L 527.897013 45.53497 
L 528.534309 45.844612 
L 529.171604 51.419383 
L 529.8089 52.019418 
L 530.446196 48.249219 
L 531.083491 47.404197 
L 531.720787 39.381263 
L 532.358083 56.07127 
L 532.995378 53.795157 
L 533.632674 56.920749 
L 534.26997 41.938985 
L 534.907266 53.799238 
L 535.544561 57.632157 
L 536.181857 50.447314 
L 536.819153 58.348905 
L 537.456448 48.87754 
L 538.093744 51.737048 
L 538.73104 49.172504 
L 539.368335 53.50849 
L 540.005631 49.444663 
L 540.642927 55.097576 
L 541.280222 50.143723 
L 541.917518 56.061779 
L 542.554814 46.948479 
L 543.192109 51.804162 
L 543.829405 46.748185 
L 544.466701 53.062353 
L 545.103996 50.452084 
L 545.741292 49.750843 
L 546.378588 54.090065 
L 547.015883 46.136844 
L 547.653179 53.985418 
L 548.290475 50.005613 
L 548.927771 53.063905 
L 549.565066 40.152232 
L 550.202362 56.034504 
L 550.839658 55.247809 
L 551.476953 46.301463 
L 552.114249 54.550982 
L 552.751545 44.347161 
L 553.38884 48.705565 
L 554.663432 52.925018 
L 555.300727 47.563972 
L 555.938023 51.100055 
L 556.575319 52.592109 
L 557.212614 55.401171 
L 557.84991 49.950709 
L 558.487206 47.042769 
L 559.124501 46.37691 
L 559.761797 46.784869 
L 560.399093 48.65302 
L 561.036388 42.019246 
L 562.31098 47.163463 
L 562.948275 48.07846 
L 563.585571 49.547827 
L 564.222867 57.652979 
L 564.860163 47.58369 
L 565.497458 45.39602 
L 566.134754 45.826266 
L 566.77205 57.711005 
L 567.409345 44.868512 
L 568.046641 44.513291 
L 568.683937 53.693284 
L 569.321232 46.302186 
L 569.958528 59.959205 
L 570.595824 49.050821 
L 571.233119 49.488141 
L 571.870415 52.688196 
L 572.507711 50.649213 
L 573.145006 49.40884 
L 573.782302 45.188092 
L 574.419598 46.320002 
L 575.056893 53.032803 
L 575.694189 48.979051 
L 576.331485 62.199409 
L 576.96878 55.209484 
L 577.606076 58.788825 
L 578.243372 53.179789 
L 578.880668 49.510631 
L 579.517963 54.821135 
L 580.155259 46.540693 
L 580.792555 52.054413 
L 581.42985 48.456903 
L 582.067146 47.405617 
L 582.704442 42.553915 
L 583.341737 51.077144 
L 583.979033 54.452473 
L 584.616329 53.750543 
L 585.253624 50.215023 
L 585.89092 53.768847 
L 586.528216 58.963982 
L 587.165511 54.881262 
L 587.802807 56.89514 
L 588.440103 50.952772 
L 589.077398 47.994628 
L 589.714694 55.465308 
L 590.35199 51.338077 
L 590.989285 50.78711 
L 591.626581 49.284111 
L 592.263877 55.790657 
L 592.901173 57.409758 
L 593.538468 53.269638 
L 594.175764 47.104271 
L 594.81306 58.316095 
L 595.450355 43.258541 
L 596.087651 48.871366 
L 596.724947 44.443455 
L 597.362242 50.605778 
L 598.636834 46.209077 
L 599.274129 49.819609 
L 599.911425 47.361686 
L 600.548721 43.320581 
L 601.186016 51.076067 
L 601.823312 52.56324 
L 602.460608 50.096192 
L 603.097903 50.858198 
L 603.735199 47.129284 
L 604.372495 60.161136 
L 605.00979 55.300162 
L 605.647086 47.188617 
L 606.284382 51.731279 
L 606.921677 50.431186 
L 607.558973 50.465022 
L 608.196269 54.599103 
L 608.833565 55.211756 
L 609.47086 58.414587 
L 610.108156 53.191613 
L 610.745452 50.362301 
L 612.020043 46.803944 
L 612.657339 52.463758 
L 613.294634 48.213365 
L 613.93193 51.542485 
L 614.569226 53.280618 
L 615.206521 57.465754 
L 615.843817 52.14936 
L 616.481113 52.83272 
L 617.118408 50.739492 
L 617.755704 49.309043 
L 618.393 49.031886 
L 619.030295 53.800383 
L 619.667591 55.259387 
L 620.304887 50.695662 
L 620.942182 47.776771 
L 621.579478 47.100402 
L 622.216774 54.740463 
L 622.85407 49.392148 
L 623.491365 51.87812 
L 624.128661 52.977856 
L 624.765957 49.485994 
L 625.403252 53.365424 
L 626.040548 53.980864 
L 626.677844 50.292507 
L 627.952435 58.990109 
L 628.589731 50.920474 
L 629.227026 48.183186 
L 629.864322 44.00816 
L 630.501618 53.634956 
L 631.138913 51.840302 
L 631.776209 54.364996 
L 632.413505 47.806072 
L 633.688096 55.570507 
L 634.962687 59.971374 
L 635.599983 42.865311 
L 636.237279 45.416729 
L 636.874575 57.628468 
L 637.51187 50.562456 
L 638.149166 55.324042 
L 639.423757 52.784868 
L 640.061053 49.481189 
L 640.698349 51.396592 
L 641.335644 55.274991 
L 641.97294 45.162637 
L 642.610236 55.952266 
L 643.884827 44.282171 
L 644.522123 47.617394 
L 645.159418 54.89579 
L 645.796714 45.704472 
L 646.43401 43.908409 
L 647.071305 57.577105 
L 647.708601 50.266994 
L 648.345897 49.831615 
L 648.983192 53.155251 
L 650.257784 45.099849 
L 650.89508 47.86793 
L 651.532375 52.366069 
L 652.169671 48.798852 
L 652.806967 54.018705 
L 653.444262 56.529549 
L 654.081558 52.222831 
L 654.718854 50.625227 
L 655.356149 57.434642 
L 655.993445 48.099133 
L 656.630741 54.717023 
L 657.268036 52.480746 
L 657.905332 57.892636 
L 658.542628 47.187999 
L 659.179923 51.701972 
L 659.817219 50.861081 
L 660.454515 53.740901 
L 661.09181 52.36175 
L 661.729106 49.32025 
L 662.366402 55.673166 
L 663.003697 54.223146 
L 663.640993 51.658371 
L 664.278289 57.543252 
L 664.915584 40.0624 
L 665.55288 50.414338 
L 666.190176 49.344995 
L 667.464767 55.454349 
L 668.739359 46.274148 
L 669.376654 58.009903 
L 670.01395 45.118101 
L 670.651246 52.705746 
L 671.288541 45.058611 
L 671.925837 45.636227 
L 672.563133 48.502466 
L 673.200428 54.587171 
L 673.837724 56.308488 
L 674.47502 51.728299 
L 675.112315 41.998201 
L 675.749611 46.845689 
L 676.386907 48.835115 
L 677.024202 54.676 
L 677.661498 51.317417 
L 678.298794 50.608819 
L 678.936089 50.193883 
L 679.573385 50.646581 
L 680.210681 50.242745 
L 681.485272 51.878047 
L 682.122568 50.928868 
L 682.759864 51.813913 
L 683.397159 50.980083 
L 684.034455 56.802066 
L 684.671751 51.072841 
L 685.946342 48.182033 
L 686.583638 53.925549 
L 687.220933 54.668197 
L 687.858229 53.875587 
L 688.495525 53.305476 
L 689.13282 49.108296 
L 689.770116 52.163259 
L 690.407412 50.795811 
L 691.044707 51.382185 
L 691.682003 46.121986 
L 692.319299 46.730276 
L 692.956594 53.861201 
L 693.59389 52.398878 
L 694.231186 45.772107 
L 694.868482 55.533708 
L 695.505777 51.537207 
L 696.143073 57.997205 
L 696.780369 55.706819 
L 697.417664 54.925193 
L 698.05496 46.615049 
L 698.692256 48.739227 
L 699.329551 46.418233 
L 699.966847 51.002755 
L 700.604143 51.011922 
L 701.241438 61.046681 
L 701.878734 52.61378 
L 702.51603 46.577675 
L 703.153325 46.620698 
L 703.790621 50.265845 
L 704.427917 67.783907 
L 705.065212 53.191508 
L 706.339804 48.84061 
L 706.977099 49.070742 
L 707.614395 46.703077 
L 708.251691 46.731795 
L 708.888987 47.685212 
L 709.526282 46.281782 
L 710.163578 55.02107 
L 710.800874 52.482064 
L 711.438169 49.124274 
L 712.075465 51.073617 
L 712.712761 56.040103 
L 713.350056 54.71634 
L 713.987352 47.487281 
L 714.624648 50.025316 
L 715.261943 49.910922 
L 715.899239 55.656837 
L 716.536535 51.785083 
L 717.17383 48.657709 
L 717.811126 51.49821 
L 718.448422 41.398628 
L 719.085717 50.830638 
L 719.723013 51.093044 
L 720.360309 43.288478 
L 720.997604 48.287409 
L 721.6349 51.668602 
L 722.272196 48.670981 
L 722.909491 53.270903 
L 723.546787 47.86776 
L 724.184083 54.418176 
L 724.821379 46.005836 
L 725.458674 48.985335 
L 726.09597 54.452868 
L 726.733266 48.844524 
L 727.370561 54.600579 
L 728.007857 49.736205 
L 728.645153 54.946521 
L 729.282448 64.513783 
L 729.919744 57.847823 
L 729.919744 57.847823 
" style="fill:none;stroke:#000000;stroke-linecap:square;"/>
   </g>
   <g id="line2d_2">
    <path clip-path="url(#p35d8a676c2)" d="M 96.44465 67.531264 
L 109.190564 67.531264 
" style="fill:none;stroke:#000000;stroke-linecap:square;"/>
   </g>
   <g id="line2d_3">
    <path clip-path="url(#p35d8a676c2)" d="M 96.44465 67.531264 
L 96.44465 59.100106 
" style="fill:none;stroke:#000000;stroke-linecap:square;"/>
   </g>
   <g id="line2d_4">
    <defs>
     <path d="M 0 0.00025 
C 0.000066 0.00025 0.00013 0.000224 0.000177 0.000177 
C 0.000224 0.00013 0.00025 0.000066 0.00025 0 
C 0.00025 -0.000066 0.000224 -0.00013 0.000177 -0.000177 
C 0.00013 -0.000224 0.000066 -0.00025 0 -0.00025 
C -0.000066 -0.00025 -0.00013 -0.000224 -0.000177 -0.000177 
C -0.000224 -0.00013 -0.00025 -0.000066 -0.00025 0 
C -0.00025 0.000066 -0.000224 0.00013 -0.000177 0.000177 
C -0.00013 0.000224 -0.000066 0.00025 0 0.00025 
z
" id="m4fbe8abe75" style="stroke:#ffffff;stroke-opacity:0.001;"/>
    </defs>
    <g clip-path="url(#p35d8a676c2)">
     <use style="fill:#ffffff;fill-opacity:0.001;stroke:#ffffff;stroke-opacity:0.001;" x="411.590551" xlink:href="#m4fbe8abe75" y="70.866142"/>
     <use style="fill:#ffffff;fill-opacity:0.001;stroke:#ffffff;stroke-opacity:0.001;" x="411.590551" xlink:href="#m4fbe8abe75" y="14.173228"/>
    </g>
   </g>
   <g id="line2d_5">
    <g clip-path="url(#p35d8a676c2)">
     <use style="fill:#ffffff;fill-opacity:0.001;stroke:#ffffff;stroke-opacity:0.001;" x="54.425197" xlink:href="#m4fbe8abe75" y="42.519685"/>
     <use style="fill:#ffffff;fill-opacity:0.001;stroke:#ffffff;stroke-opacity:0.001;" x="768.755906" xlink:href="#m4fbe8abe75" y="42.519685"/>
    </g>
   </g>
   <g id="patch_3">
    <path d="M 54.425197 70.866142 
L 54.425197 14.173228 
" style="fill:none;"/>
   </g>
   <g id="patch_4">
    <path d="M 768.755906 70.866142 
L 768.755906 14.173228 
" style="fill:none;"/>
   </g>
   <g id="patch_5">
    <path d="M 54.425197 70.866142 
L 768.755906 70.866142 
" style="fill:none;"/>
   </g>
   <g id="patch_6">
    <path d="M 54.425197 14.173228 
L 768.755906 14.173228 
" style="fill:none;"/>
   </g>
   <g id="text_1">
    <!-- 0.2s -->
    <defs>
     <path d="M 31.78125 66.40625 
Q 24.171875 66.40625 20.328125 58.90625 
Q 16.5 51.421875 16.5 36.375 
Q 16.5 21.390625 20.328125 13.890625 
Q 24.171875 6.390625 31.78125 6.390625 
Q 39.453125 6.390625 43.28125 13.890625 
Q 47.125 21.390625 47.125 36.375 
Q 47.125 51.421875 43.28125 58.90625 
Q 39.453125 66.40625 31.78125 66.40625 
z
M 31.78125 74.21875 
Q 44.046875 74.21875 50.515625 64.515625 
Q 56.984375 54.828125 56.984375 36.375 
Q 56.984375 17.96875 50.515625 8.265625 
Q 44.046875 -1.421875 31.78125 -1.421875 
Q 19.53125 -1.421875 13.0625 8.265625 
Q 6.59375 17.96875 6.59375 36.375 
Q 6.59375 54.828125 13.0625 64.515625 
Q 19.53125 74.21875 31.78125 74.21875 
z
" id="DejaVuSans-48"/>
     <path d="M 10.6875 12.40625 
L 21 12.40625 
L 21 0 
L 10.6875 0 
z
" id="DejaVuSans-46"/>
     <path d="M 19.1875 8.296875 
L 53.609375 8.296875 
L 53.609375 0 
L 7.328125 0 
L 7.328125 8.296875 
Q 12.9375 14.109375 22.625 23.890625 
Q 32.328125 33.6875 34.8125 36.53125 
Q 39.546875 41.84375 41.421875 45.53125 
Q 43.3125 49.21875 43.3125 52.78125 
Q 43.3125 58.59375 39.234375 62.25 
Q 35.15625 65.921875 28.609375 65.921875 
Q 23.96875 65.921875 18.8125 64.3125 
Q 13.671875 62.703125 7.8125 59.421875 
L 7.8125 69.390625 
Q 13.765625 71.78125 18.9375 73 
Q 24.125 74.21875 28.421875 74.21875 
Q 39.75 74.21875 46.484375 68.546875 
Q 53.21875 62.890625 53.21875 53.421875 
Q 53.21875 48.921875 51.53125 44.890625 
Q 49.859375 40.875 45.40625 35.40625 
Q 44.1875 33.984375 37.640625 27.21875 
Q 31.109375 20.453125 19.1875 8.296875 
z
" id="DejaVuSans-50"/>
     <path d="M 44.28125 53.078125 
L 44.28125 44.578125 
Q 40.484375 46.53125 36.375 47.5 
Q 32.28125 48.484375 27.875 48.484375 
Q 21.1875 48.484375 17.84375 46.4375 
Q 14.5 44.390625 14.5 40.28125 
Q 14.5 37.15625 16.890625 35.375 
Q 19.28125 33.59375 26.515625 31.984375 
L 29.59375 31.296875 
Q 39.15625 29.25 43.1875 25.515625 
Q 47.21875 21.78125 47.21875 15.09375 
Q 47.21875 7.46875 41.1875 3.015625 
Q 35.15625 -1.421875 24.609375 -1.421875 
Q 20.21875 -1.421875 15.453125 -0.5625 
Q 10.6875 0.296875 5.421875 2 
L 5.421875 11.28125 
Q 10.40625 8.6875 15.234375 7.390625 
Q 20.0625 6.109375 24.8125 6.109375 
Q 31.15625 6.109375 34.5625 8.28125 
Q 37.984375 10.453125 37.984375 14.40625 
Q 37.984375 18.0625 35.515625 20.015625 
Q 33.0625 21.96875 24.703125 23.78125 
L 21.578125 24.515625 
Q 13.234375 26.265625 9.515625 29.90625 
Q 5.8125 33.546875 5.8125 39.890625 
Q 5.8125 47.609375 11.28125 51.796875 
Q 16.75 56 26.8125 56 
Q 31.78125 56 36.171875 55.265625 
Q 40.578125 54.546875 44.28125 53.078125 
z
" id="DejaVuSans-115"/>
    </defs>
    <g transform="translate(97.081946 74.791416)scale(0.09 -0.09)">
     <use xlink:href="#DejaVuSans-48"/>
     <use x="63.623047" xlink:href="#DejaVuSans-46"/>
     <use x="95.410156" xlink:href="#DejaVuSans-50"/>
     <use x="159.033203" xlink:href="#DejaVuSans-115"/>
    </g>
   </g>
   <g id="text_2">
    <!-- 20mV  -->
    <defs>
     <path d="M 52 44.1875 
Q 55.375 50.25 60.0625 53.125 
Q 64.75 56 71.09375 56 
Q 79.640625 56 84.28125 50.015625 
Q 88.921875 44.046875 88.921875 33.015625 
L 88.921875 0 
L 79.890625 0 
L 79.890625 32.71875 
Q 79.890625 40.578125 77.09375 44.375 
Q 74.3125 48.1875 68.609375 48.1875 
Q 61.625 48.1875 57.5625 43.546875 
Q 53.515625 38.921875 53.515625 30.90625 
L 53.515625 0 
L 44.484375 0 
L 44.484375 32.71875 
Q 44.484375 40.625 41.703125 44.40625 
Q 38.921875 48.1875 33.109375 48.1875 
Q 26.21875 48.1875 22.15625 43.53125 
Q 18.109375 38.875 18.109375 30.90625 
L 18.109375 0 
L 9.078125 0 
L 9.078125 54.6875 
L 18.109375 54.6875 
L 18.109375 46.1875 
Q 21.1875 51.21875 25.484375 53.609375 
Q 29.78125 56 35.6875 56 
Q 41.65625 56 45.828125 52.96875 
Q 50 49.953125 52 44.1875 
z
" id="DejaVuSans-109"/>
     <path d="M 28.609375 0 
L 0.78125 72.90625 
L 11.078125 72.90625 
L 34.1875 11.53125 
L 57.328125 72.90625 
L 67.578125 72.90625 
L 39.796875 0 
z
" id="DejaVuSans-86"/>
     <path id="DejaVuSans-32"/>
    </defs>
    <g transform="translate(66.571417 65.237988)scale(0.09 -0.09)">
     <use xlink:href="#DejaVuSans-50"/>
     <use x="63.623047" xlink:href="#DejaVuSans-48"/>
     <use x="127.246094" xlink:href="#DejaVuSans-109"/>
     <use x="224.658203" xlink:href="#DejaVuSans-86"/>
     <use x="293.066406" xlink:href="#DejaVuSans-32"/>
    </g>
   </g>
  </g>
 </g>
 <defs>
  <clipPath id="p35d8a676c2">
   <rect height="56.692913" width="714.330709" x="54.425197" y="14.173228"/>
  </clipPath>
 </defs>
</svg>
